SplineFontDB: 3.0
FontName: NovaRoundSlim-Bold
FullName: Nova Round Slim Bold
FamilyName: Nova Round Slim
Weight: Bold
Copyright: Copyright (c) 2020-2024 by Wojciech Kalinowski "wmk69" with Reserved Font Name "NovaRoundSlim-Bold".\nThis Font Software is licensed under the SIL Open Font License, Version 1.1.
Version: 3.1.0; 2021-05-23
ItalicAngle: 0
UnderlinePosition: -80
UnderlineWidth: 320
Ascent: 1638
Descent: 410
InvalidEm: 0
LayerCount: 2
Layer: 0 1 "Warstwa t+AUIA-a" 1
Layer: 1 1 "Plan pierwszy" 0
XUID: [1021 783 23647091 8360855]
StyleMap: 0x0020
FSType: 0
OS2Version: 3
OS2_WeightWidthSlopeOnly: 0
OS2_UseTypoMetrics: 1
CreationTime: 1260698820
ModificationTime: 1621762041
PfmFamily: 33
TTFWeight: 700
TTFWidth: 5
LineGap: 200
VLineGap: 0
Panose: 2 12 8 4 5 5 3 6 2 4
OS2TypoAscent: 2000
OS2TypoAOffset: 0
OS2TypoDescent: -500
OS2TypoDOffset: 0
OS2TypoLinegap: 200
OS2WinAscent: 2000
OS2WinAOffset: 0
OS2WinDescent: 500
OS2WinDOffset: 0
HheadAscent: 2000
HheadAOffset: 0
HheadDescent: -500
HheadDOffset: 0
OS2SubXSize: 1434
OS2SubYSize: 1331
OS2SubXOff: 0
OS2SubYOff: 287
OS2SupXSize: 1434
OS2SupYSize: 1331
OS2SupXOff: 0
OS2SupYOff: 977
OS2StrikeYSize: 102
OS2StrikeYPos: 512
OS2CapHeight: 1530
OS2XHeight: 1120
OS2Vendor: '    '
OS2CodePages: 20000093.00000000
OS2UnicodeRanges: 8000002f.4000204b.00000000.00000000
Lookup: 258 0 0 "'kern' Horizontal Kerning lookup 0" { "'kern' Horizontal Kerning lookup 0-1 subtable" [307,0,4] } ['kern' ('DFLT' <'dflt' > 'grek' <'dflt' > 'latn' <'dflt' > ) ]
MarkAttachClasses: 1
DEI: 91125
KernClass2: 65 55 "'kern' Horizontal Kerning lookup 0-1 subtable"
 134 A M N Agrave Aacute Acircumflex Atilde Adieresis Aring Ntilde Amacron Abreve Aogonek Nacute Ncommaaccent Ncaron Eng Aringacute uni1E40
 28 B germandbls uni1E02 uni1E9E
 47 C Ccedilla Cacute Ccircumflex Cdotaccent Ccaron
 122 D O Q Eth Ograve Oacute Ocircumflex Otilde Odieresis Oslash Dcaron Dcroat Omacron Obreve Ohungarumlaut Oslashacute uni1E0A

StartChar: .notdef
Encoding: 65536 -1 0
Width: 1034
Flags: W
HStem: 0 118<298 736> 1392 118<298 736>
VStem: 110 188<118 1392> 736 188<118 1392>
LayerCount: 2
Fore
SplineSet
110 0 m 1,0,-1
 110 1510 l 1,1,-1
 924 1510 l 1,2,-1
 924 0 l 1,3,-1
 110 0 l 1,0,-1
298 118 m 1,4,-1
 736 118 l 1,5,-1
 736 1392 l 1,6,-1
 298 1392 l 1,7,-1
 298 118 l 1,4,-1
EndSplineSet
Validated: 1
EndChar

StartChar: exclam
Encoding: 33 33 4
Width: 640
GlyphClass: 2
Flags: W
HStem: -20 365<202.131 436.878> 1510 20G<427.823 480>
VStem: 140 360<42.5657 282.578> 160 320<542 1383>
LayerCount: 2
Fore
SplineSet
470 1530 m 1,0,-1
 480 1530 l 1,1,-1
 480 542 l 1,2,-1
 170 395 l 1,3,-1
 160 395 l 1,4,-1
 160 1383 l 1,5,-1
 470 1530 l 1,0,-1
320 -20 m 0,6,7
 244 -20 244 -20 192 34 c 128,-1,8
 140 88 140 88 140 162 c 0,9,10
 140 238 140 238 192 291 c 0,11,12
 245 345 245 345 320 345 c 128,-1,13
 395 345 395 345 447.5 291.5 c 128,-1,14
 500 238 500 238 500 163 c 128,-1,15
 500 88 500 88 447 34 c 128,-1,16
 394 -20 394 -20 320 -20 c 0,6,7
EndSplineSet
Validated: 1
EndChar

StartChar: quotedbl
Encoding: 34 34 5
Width: 510
GlyphClass: 2
Flags: W
HStem: 1100 480
VStem: 30 180<1181 1499> 300 180<1181 1499>
LayerCount: 2
Fore
SplineSet
470 1580 m 1,0,-1
 480 1580 l 1,1,-1
 480 1181 l 1,2,-1
 310 1100 l 1,3,-1
 300 1100 l 1,4,-1
 300 1499 l 1,5,-1
 470 1580 l 1,0,-1
200 1580 m 1,6,-1
 210 1580 l 1,7,-1
 210 1181 l 1,8,-1
 40 1100 l 1,9,-1
 30 1100 l 1,10,-1
 30 1499 l 1,11,-1
 200 1580 l 1,6,-1
EndSplineSet
Validated: 1
EndChar

StartChar: numbersign
Encoding: 35 35 6
Width: 1408
GlyphClass: 2
Flags: W
HStem: 460 180<190 408 588 820 1000 1218> 872 180<190 408 588 820 1000 1218>
VStem: 408 180<242 460 640 872 1052 1269> 820 180<242 460 640 872 1052 1269>
LayerCount: 2
Fore
SplineSet
578 1350 m 1,0,-1
 588 1350 l 1,1,-1
 588 1052 l 1,2,-1
 820 1052 l 1,3,-1
 820 1269 l 1,4,-1
 990 1350 l 1,5,-1
 1000 1350 l 1,6,-1
 1000 1052 l 1,7,-1
 1298 1052 l 1,8,-1
 1298 1042 l 1,9,-1
 1218 872 l 1,10,-1
 1000 872 l 1,11,-1
 1000 640 l 1,12,-1
 1298 640 l 1,13,-1
 1298 630 l 1,14,-1
 1218 460 l 1,15,-1
 1000 460 l 1,16,-1
 1000 242 l 1,17,-1
 830 161 l 1,18,-1
 820 161 l 1,19,-1
 820 460 l 1,20,-1
 588 460 l 1,21,-1
 588 242 l 1,22,-1
 418 161 l 1,23,-1
 408 161 l 1,24,-1
 408 460 l 1,25,-1
 110 460 l 1,26,-1
 110 470 l 1,27,-1
 190 640 l 1,28,-1
 408 640 l 1,29,-1
 408 872 l 1,30,-1
 110 872 l 1,31,-1
 110 882 l 1,32,-1
 190 1052 l 1,33,-1
 408 1052 l 1,34,-1
 408 1269 l 1,35,-1
 578 1350 l 1,0,-1
820 640 m 1,36,-1
 820 872 l 1,37,-1
 588 872 l 1,38,-1
 588 640 l 1,39,-1
 820 640 l 1,36,-1
EndSplineSet
Validated: 1
EndChar

StartChar: dollar
Encoding: 36 36 7
Width: 1179
GlyphClass: 2
Flags: W
VStem: 112 315<962.146 1299.52> 515 120<-69 -13.0332 141 731 927 1366 1522.11 1579> 798 341<283.923 636.887>
LayerCount: 2
Fore
SplineSet
635 -69 m 1,0,-1
 525 -120 l 1,1,-1
 515 -120 l 1,2,-1
 515 -18 l 1,3,4
 318 -1 318 -1 174 131 c 0,5,6
 56 239 56 239 20 395 c 1,7,-1
 333 543 l 1,8,-1
 343 543 l 1,9,-1
 343 384 l 2,10,11
 343 241 343 241 414 185 c 0,12,13
 463 147 463 147 515 135 c 1,14,-1
 515 750 l 1,15,16
 335 777 335 777 237 857 c 0,17,18
 112 959 112 959 112 1123 c 0,19,20
 112 1294 112 1294 249 1412 c 0,21,22
 362 1509 362 1509 515 1526 c 1,23,-1
 515 1579 l 1,24,-1
 625 1630 l 1,25,-1
 635 1630 l 1,26,-1
 635 1528 l 1,27,28
 795 1513 795 1513 909 1404 c 0,29,30
 1009 1309 1009 1309 1036 1194 c 1,31,-1
 728 1048 l 1,32,-1
 718 1048 l 1,33,-1
 718 1155 l 2,34,35
 718 1281 718 1281 687 1326 c 0,36,37
 666 1356 666 1356 635 1369 c 1,38,-1
 635 901 l 1,39,40
 905 874 905 874 1022 761 c 128,-1,41
 1139 648 1139 648 1139 488 c 0,42,43
 1139 271 1139 271 973 125 c 0,44,45
 830 -1 830 -1 635 -17 c 1,46,-1
 635 -69 l 1,0,-1
515 927 m 1,47,-1
 515 1366 l 1,48,49
 499 1358 499 1358 484 1345 c 0,50,51
 427 1296 427 1296 427 1155 c 0,52,53
 427 963 427 963 515 927 c 1,47,-1
635 731 m 1,54,-1
 635 141 l 1,55,56
 677 155 677 155 713 187 c 0,57,58
 798 263 798 263 798 426 c 0,59,60
 798 602 798 602 727 674 c 0,61,62
 688 714 688 714 635 731 c 1,54,-1
EndSplineSet
Validated: 1
EndChar

StartChar: percent
Encoding: 37 37 8
Width: 1846
GlyphClass: 2
Flags: W
HStem: -20 103<1274.5 1458.61> 618 104<1275.14 1459.26> 788 104<386.743 570.86> 1427 103<387.388 571.504>
VStem: 110 233<981.735 1337.81> 614 233<979.348 1336.99> 999 233<173.005 530.652> 1503 233<172.185 528.265>
DStem2: 464 93 711 -20 0.423093 0.906086<2.11609 1585.94>
LayerCount: 2
Fore
SplineSet
1366 83 m 128,-1,1
 1421 83 1421 83 1462 130.5 c 128,-1,2
 1503 178 1503 178 1503 350.5 c 128,-1,3
 1503 523 1503 523 1462 570.5 c 128,-1,4
 1421 618 1421 618 1366 618 c 128,-1,5
 1311 618 1311 618 1271.5 570.5 c 128,-1,6
 1232 523 1232 523 1232 350.5 c 128,-1,7
 1232 178 1232 178 1271.5 130.5 c 128,-1,0
 1311 83 1311 83 1366 83 c 128,-1,1
480 1427 m 128,-1,9
 425 1427 425 1427 384 1379.5 c 128,-1,10
 343 1332 343 1332 343 1159.5 c 128,-1,11
 343 987 343 987 384 939.5 c 128,-1,12
 425 892 425 892 480 892 c 128,-1,13
 535 892 535 892 574.5 939.5 c 128,-1,14
 614 987 614 987 614 1159.5 c 128,-1,15
 614 1332 614 1332 574.5 1379.5 c 128,-1,8
 535 1427 535 1427 480 1427 c 128,-1,9
1367 -20 m 0,16,17
 1212 -20 1212 -20 1107 89 c 0,18,19
 999 199 999 199 999 352 c 0,20,21
 999 506 999 506 1107 613 c 0,22,23
 1215 722 1215 722 1367 722 c 0,24,25
 1522 722 1522 722 1628 613 c 0,26,27
 1736 502 1736 502 1736 350 c 0,28,29
 1736 196 1736 196 1628 89 c 0,30,31
 1519 -20 1519 -20 1367 -20 c 0,16,17
701 -20 m 1,32,-1
 464 93 l 1,33,-1
 1135 1530 l 1,34,-1
 1145 1530 l 1,35,-1
 1381 1417 l 1,36,-1
 711 -20 l 1,37,-1
 701 -20 l 1,32,-1
479 1530 m 0,38,39
 634 1530 634 1530 739 1421 c 0,40,41
 847 1311 847 1311 847 1158 c 0,42,43
 847 1004 847 1004 739 897 c 0,44,45
 631 788 631 788 479 788 c 0,46,47
 324 788 324 788 218 897 c 0,48,49
 110 1008 110 1008 110 1160 c 0,50,51
 110 1314 110 1314 218 1421 c 0,52,53
 327 1530 327 1530 479 1530 c 0,38,39
EndSplineSet
Validated: 1
EndChar

StartChar: ampersand
Encoding: 38 38 9
Width: 1692
GlyphClass: 2
Flags: W
HStem: -20 150<592.376 920.418> 1380 150<553.738 779.314>
VStem: 110 333<284.685 675.08> 200 307<949.319 1293.85> 1210 325<646.25 851>
DStem2: 881 902 596 746 0.666545 -0.745465<0 463.893 743.262 953.937>
LayerCount: 2
Fore
SplineSet
670 -20 m 0,0,1
 441 -20 441 -20 275.5 120.5 c 128,-1,2
 110 261 110 261 110 473 c 0,3,4
 110 719 110 719 309 851 c 1,5,6
 200 955 200 955 200 1122 c 0,7,8
 200 1287 200 1287 341 1409 c 0,9,10
 480 1530 480 1530 677 1530 c 128,-1,11
 874 1530 874 1530 1013 1406 c 0,12,13
 1115 1315 1115 1315 1144 1187 c 1,14,-1
 840 1043 l 1,15,-1
 830 1043 l 1,16,-1
 830 1187 l 2,17,18
 830 1278 830 1278 785 1331 c 0,19,20
 744 1380 744 1380 661 1380 c 0,21,22
 597 1380 597 1380 555 1338 c 0,23,24
 507 1290 507 1290 507 1166 c 0,25,26
 507 984 507 984 557.5 943 c 128,-1,27
 608 902 608 902 680 902 c 2,28,-1
 881 902 l 1,29,-1
 1190 556 l 1,30,31
 1210 682 1210 682 1210 851 c 1,32,-1
 1525 1000 l 1,33,-1
 1535 1000 l 1,34,35
 1534 612 1534 612 1364 361 c 1,36,-1
 1582 118 l 1,37,-1
 1291 -20 l 1,38,-1
 1281 -20 l 1,39,-1
 1143 134 l 1,40,41
 943 -20 943 -20 670 -20 c 0,0,1
596 746 m 1,42,43
 528 731 528 731 496 689 c 0,44,45
 443 619 443 619 443 478 c 0,46,47
 443 320 443 320 528 228 c 0,48,49
 619 130 619 130 746 130 c 0,50,51
 902 130 902 130 1036 256 c 1,52,-1
 596 746 l 1,42,43
EndSplineSet
Validated: 1
EndChar

StartChar: quotesingle
Encoding: 39 39 10
Width: 240
GlyphClass: 2
Flags: W
HStem: 1100 480
VStem: 30 180<1181 1499>
LayerCount: 2
Fore
SplineSet
200 1580 m 1,0,-1
 210 1580 l 1,1,-1
 210 1181 l 1,2,-1
 40 1100 l 1,3,-1
 30 1100 l 1,4,-1
 30 1499 l 1,5,-1
 200 1580 l 1,0,-1
EndSplineSet
Validated: 1
EndChar

StartChar: parenleft
Encoding: 40 40 11
Width: 756
GlyphClass: 2
Flags: W
HStem: -240 150<573.16 726> 1599 151<573.611 726>
VStem: 160 320<66.5334 1444.73>
LayerCount: 2
Fore
SplineSet
726 -240 m 1,0,1
 492 -240 492 -240 326 -93 c 128,-1,2
 160 54 160 54 160 274 c 2,3,-1
 160 1236 l 2,4,5
 160 1458 160 1458 326 1604 c 0,6,7
 493 1750 493 1750 726 1750 c 1,8,-1
 726 1599 l 1,9,10
 623 1598 623 1598 552 1542 c 0,11,12
 480 1484 480 1484 480 1398 c 2,13,-1
 480 112 l 2,14,15
 480 24 480 24 552 -34 c 0,16,17
 622 -90 622 -90 726 -90 c 1,18,-1
 726 -240 l 1,0,1
EndSplineSet
Validated: 1
EndChar

StartChar: parenright
Encoding: 41 41 12
Width: 756
GlyphClass: 2
Flags: W
HStem: -240 150<30 182.84> 1599 151<30 182.389>
VStem: 276 320<66.5334 1444.73>
LayerCount: 2
Fore
SplineSet
30 -240 m 1,0,1
 30 -90 l 5,2,3
 134 -90 134 -90 204 -34 c 4,4,5
 276 24 276 24 276 112 c 6,6,-1
 276 1398 l 2,7,8
 276 1484 276 1484 204 1542 c 0,9,10
 133 1598 133 1598 30 1599 c 1,11,-1
 30 1750 l 1,12,13
 263 1750 263 1750 430 1604 c 0,14,15
 596 1458 596 1458 596 1236 c 2,16,-1
 596 274 l 2,17,18
 596 54 596 54 430 -93 c 128,-1,19
 264 -240 264 -240 30 -240 c 1,0,1
EndSplineSet
Validated: 1
EndChar

StartChar: asterisk
Encoding: 42 42 13
Width: 790
GlyphClass: 2
Flags: W
VStem: 305 180<921 1054 1366 1499>
DStem2: 190 1432 30 1317 0.866084 -0.499898<0 132.593 444.456 577.049> 30 1103 190 988 0.866084 0.499898<81.0853 213.678 525.542 658.134>
LayerCount: 2
Fore
SplineSet
475 1580 m 1,0,-1
 485 1580 l 1,1,-1
 485 1366 l 1,2,-1
 600 1432 l 1,3,-1
 755 1326 l 1,4,-1
 760 1317 l 1,5,-1
 575 1210 l 1,6,-1
 760 1103 l 1,7,-1
 755 1094 l 1,8,-1
 600 988 l 1,9,-1
 485 1054 l 1,10,-1
 485 921 l 1,11,-1
 315 840 l 1,12,-1
 305 840 l 1,13,-1
 305 1054 l 1,14,-1
 190 988 l 1,15,-1
 35 1094 l 1,16,-1
 30 1103 l 1,17,-1
 215 1210 l 1,18,-1
 30 1317 l 1,19,-1
 35 1326 l 1,20,-1
 190 1432 l 1,21,-1
 305 1366 l 1,22,-1
 305 1499 l 1,23,-1
 475 1580 l 1,0,-1
EndSplineSet
Validated: 1
EndChar

StartChar: plus
Encoding: 43 43 14
Width: 1240
GlyphClass: 2
Flags: W
HStem: 620 270<235 485 755 1005>
VStem: 485 270<370 620 890 1140>
LayerCount: 2
Fore
SplineSet
745 1265 m 1,0,-1
 755 1265 l 1,1,-1
 755 890 l 1,2,-1
 1130 890 l 1,3,-1
 1130 880 l 1,4,-1
 1005 620 l 1,5,-1
 755 620 l 1,6,-1
 755 370 l 1,7,-1
 495 245 l 1,8,-1
 485 245 l 1,9,-1
 485 620 l 1,10,-1
 110 620 l 1,11,-1
 110 630 l 1,12,-1
 235 890 l 1,13,-1
 485 890 l 1,14,-1
 485 1140 l 1,15,-1
 745 1265 l 1,0,-1
EndSplineSet
Validated: 1
EndChar

StartChar: comma
Encoding: 44 44 15
Width: 496
GlyphClass: 2
Flags: W
HStem: -328 666
VStem: 202 264<-112.817 113.6>
LayerCount: 2
Fore
SplineSet
30 212 m 1,0,-1
 299 338 l 1,1,-1
 309 338 l 1,2,3
 466 236 466 236 466 54 c 0,4,5
 466 -203 466 -203 130 -328 c 1,6,-1
 123 -321 l 1,7,8
 202 -172 202 -172 202 -24 c 0,9,10
 202 132 202 132 30 212 c 1,0,-1
EndSplineSet
Validated: 1
EndChar

StartChar: hyphen
Encoding: 45 45 16
Width: 1240
GlyphClass: 2
Flags: W
HStem: 620 270<235 1005>
LayerCount: 2
Fore
SplineSet
235 890 m 1,0,-1
 1130 890 l 1,1,-1
 1130 880 l 1,2,-1
 1005 620 l 1,3,-1
 110 620 l 1,4,-1
 110 630 l 1,5,-1
 235 890 l 1,0,-1
EndSplineSet
Validated: 1
EndChar

StartChar: period
Encoding: 46 46 17
Width: 420
GlyphClass: 2
Flags: W
HStem: -20 365<92.1309 326.878>
VStem: 30 360<42.5657 282.578>
LayerCount: 2
Fore
SplineSet
210 -20 m 0,0,1
 134 -20 134 -20 82 34 c 128,-1,2
 30 88 30 88 30 162 c 0,3,4
 30 238 30 238 82 291 c 0,5,6
 135 345 135 345 210 345 c 128,-1,7
 285 345 285 345 337.5 291.5 c 128,-1,8
 390 238 390 238 390 163 c 128,-1,9
 390 88 390 88 337 34 c 128,-1,10
 284 -20 284 -20 210 -20 c 0,0,1
EndSplineSet
Validated: 1
EndChar

StartChar: slash
Encoding: 47 47 18
Width: 1105
GlyphClass: 2
Flags: W
DStem2: 10 -87 257 -200 0.423051 0.906106<2.10366 1983.21>
LayerCount: 2
Fore
SplineSet
247 -200 m 1,0,-1
 10 -87 l 1,1,-1
 849 1710 l 1,2,-1
 859 1710 l 1,3,-1
 1095 1597 l 1,4,-1
 257 -200 l 1,5,-1
 247 -200 l 1,0,-1
EndSplineSet
Validated: 1
EndChar

StartChar: zero
Encoding: 48 48 19
Width: 1370
GlyphClass: 2
Flags: W
HStem: -20 150<533.025 838.455> 1379 151<534.107 835.365>
VStem: 120 330<286.533 1224.73> 920 330<285.269 1223.47>
LayerCount: 2
Fore
SplineSet
689 130 m 128,-1,1
 790 130 790 130 855 187 c 128,-1,2
 920 244 920 244 920 332 c 2,3,-1
 920 1178 l 2,4,5
 920 1270 920 1270 854 1323 c 0,6,7
 783 1379 783 1379 685 1379 c 128,-1,8
 587 1379 587 1379 516 1322 c 0,9,10
 450 1269 450 1269 450 1178 c 2,11,-1
 450 332 l 2,12,13
 450 240 450 240 517 186 c 0,14,0
 588 130 588 130 689 130 c 128,-1,1
686 -20 m 128,-1,16
 452 -20 452 -20 286 127 c 128,-1,17
 120 274 120 274 120 494 c 2,18,-1
 120 1016 l 2,19,20
 120 1238 120 1238 286 1384 c 0,21,22
 453 1530 453 1530 687 1530 c 0,23,24
 920 1530 920 1530 1085 1383 c 128,-1,25
 1250 1236 1250 1236 1250 1016 c 2,26,-1
 1250 494 l 2,27,28
 1250 272 1250 272 1085 126 c 128,-1,15
 920 -20 920 -20 686 -20 c 128,-1,16
EndSplineSet
Validated: 1
EndChar

StartChar: one
Encoding: 49 49 20
Width: 794
GlyphClass: 2
Flags: W
HStem: -20 21G<264 316.177> 1117 21G<20 66.4762> 1510 20G<531.871 584>
VStem: 264 320<127 1222>
DStem2: 20 1267 20 1117 0.903372 0.428857<0 201.124>
LayerCount: 2
Fore
SplineSet
274 -20 m 1,0,-1
 264 -20 l 1,1,-1
 264 1222 l 1,2,-1
 20 1117 l 1,3,-1
 20 1267 l 1,4,-1
 574 1530 l 1,5,-1
 584 1530 l 1,6,-1
 584 127 l 1,7,-1
 274 -20 l 1,0,-1
EndSplineSet
Validated: 1
EndChar

StartChar: two
Encoding: 50 50 21
Width: 1273
GlyphClass: 2
Flags: W
HStem: 0 300<428 1047> 1379 151<470.621 743.25>
VStem: 50 320<912.092 1232.24> 839 341<837.931 1241.96>
LayerCount: 2
Fore
SplineSet
40 0 m 1,0,-1
 40 10 l 1,1,-1
 187 323 l 1,2,-1
 646 636 l 2,3,4
 839 768 839 768 839 1082 c 0,5,6
 839 1229 839 1229 781 1299 c 0,7,8
 714 1379 714 1379 612 1379 c 128,-1,9
 510 1379 510 1379 440 1309 c 128,-1,10
 370 1239 370 1239 370 1090 c 0,11,12
 370 998 370 998 399 927 c 1,13,-1
 129 800 l 1,14,-1
 119 800 l 1,15,16
 50 912 50 912 50 1048 c 0,17,18
 50 1229 50 1229 204 1380 c 0,19,20
 358 1530 358 1530 615 1530 c 0,21,22
 882 1530 882 1530 1032 1383 c 0,23,24
 1180 1238 1180 1238 1180 1047 c 0,25,26
 1180 713 1180 713 796 502 c 2,27,-1
 428 300 l 1,28,-1
 1183 300 l 1,29,-1
 1183 290 l 1,30,-1
 1047 0 l 1,31,-1
 40 0 l 1,0,-1
EndSplineSet
Validated: 1
EndChar

StartChar: three
Encoding: 51 51 22
Width: 1262
GlyphClass: 2
Flags: W
HStem: -20 150<483.017 747.831> 1360 150<239 716>
VStem: 847 335<277.959 699.792>
LayerCount: 2
Fore
SplineSet
616 -20 m 128,-1,1
 356 -20 356 -20 204 136 c 0,2,3
 85 258 85 258 60 419 c 1,4,-1
 378 570 l 1,5,-1
 388 570 l 1,6,-1
 388 394 l 2,7,8
 388 260 388 260 453 198 c 0,9,10
 524 130 524 130 621 130 c 0,11,12
 719 130 719 130 783 209 c 128,-1,13
 847 288 847 288 847 500 c 0,14,15
 847 687 847 687 789 773 c 0,16,17
 729 862 729 862 607 862 c 0,18,19
 525 862 525 862 457 830 c 1,20,-1
 422 870 l 1,21,-1
 716 1360 l 1,22,-1
 172 1360 l 1,23,-1
 172 1370 l 1,24,-1
 239 1510 l 1,25,-1
 1139 1510 l 1,26,-1
 798 948 l 1,27,28
 946 919 946 919 1047 824 c 0,29,30
 1182 696 1182 696 1182 493 c 0,31,32
 1182 276 1182 276 1032 130 c 0,33,0
 876 -20 876 -20 616 -20 c 128,-1,1
EndSplineSet
Validated: 1
EndChar

StartChar: four
Encoding: 52 52 23
Width: 1317
GlyphClass: 2
Flags: W
HStem: -20 21G<787 839.177> 304 150<295 787 1107 1190> 1510 20G<1054.79 1107>
VStem: 787 320<127 304 454 1139>
DStem2: 10 314 295 454 0.582974 0.812491<279.896 1123.28>
LayerCount: 2
Fore
SplineSet
295 454 m 1,0,-1
 787 454 l 1,1,-1
 787 1139 l 1,2,-1
 295 454 l 1,0,-1
797 -20 m 1,3,-1
 787 -20 l 1,4,-1
 787 304 l 1,5,-1
 10 304 l 1,6,-1
 10 314 l 1,7,-1
 772 1376 l 1,8,-1
 1097 1530 l 1,9,-1
 1107 1530 l 1,10,-1
 1107 454 l 1,11,-1
 1257 454 l 1,12,-1
 1257 444 l 1,13,-1
 1190 304 l 1,14,-1
 1107 304 l 1,15,-1
 1107 127 l 1,16,-1
 797 -20 l 1,3,-1
EndSplineSet
Validated: 1
EndChar

StartChar: five
Encoding: 53 53 24
Width: 1261
GlyphClass: 2
Flags: W
HStem: -20 150<483.017 747.3> 847 151<498.305 748.08> 1360 150<597 1037>
VStem: 847 334<284.982 716.271>
LayerCount: 2
Fore
SplineSet
616 -20 m 0,0,1
 356 -20 356 -20 204 136 c 0,2,3
 85 258 85 258 60 419 c 1,4,-1
 378 570 l 1,5,-1
 388 570 l 1,6,-1
 388 394 l 2,7,8
 388 260 388 260 453 198 c 0,9,10
 524 130 524 130 621 130 c 0,11,12
 719 130 719 130 783 209 c 128,-1,13
 847 288 847 288 847 500 c 0,14,15
 847 673 847 673 790 758 c 0,16,17
 730 847 730 847 608 847 c 0,18,19
 501 847 501 847 397 786 c 1,20,-1
 148 897 l 1,21,-1
 304 1510 l 1,22,-1
 1104 1510 l 1,23,-1
 1104 1500 l 1,24,-1
 1037 1360 l 1,25,-1
 597 1360 l 1,26,-1
 496 983 l 1,27,28
 565 998 565 998 633 998 c 0,29,30
 872 998 872 998 1027 862 c 0,31,32
 1181 728 1181 728 1181 501 c 0,33,34
 1181 281 1181 281 1028 131 c 0,35,36
 874 -20 874 -20 616 -20 c 0,0,1
EndSplineSet
Validated: 1
EndChar

StartChar: six
Encoding: 54 54 25
Width: 1340
GlyphClass: 2
Flags: W
HStem: -20 150<554.527 809.739> 863 152<553.408 810.199> 1380 150<524.612 830.577>
VStem: 120 320<286.533 733.875 950 1224.73> 914 336<286.353 707.409>
LayerCount: 2
Fore
SplineSet
679 130 m 0,0,1
 777 130 777 130 839 203 c 0,2,3
 914 291 914 291 914 498 c 0,4,5
 914 702 914 702 839 790 c 0,6,7
 777 863 777 863 679 863 c 0,8,9
 585 863 585 863 517 785 c 0,10,11
 442 697 442 697 442 495 c 0,12,13
 442 296 442 296 517 208 c 0,14,15
 585 130 585 130 679 130 c 0,0,1
684 1530 m 128,-1,17
 918 1530 918 1530 1083 1383 c 0,18,19
 1203 1276 1203 1276 1237 1130 c 1,20,-1
 940 989 l 1,21,-1
 930 989 l 1,22,-1
 930 1144 l 2,23,24
 930 1254 930 1254 857 1316 c 0,25,26
 784 1380 784 1380 681 1380 c 128,-1,27
 578 1380 578 1380 509 1325 c 128,-1,28
 440 1270 440 1270 440 1185 c 2,29,-1
 440 950 l 1,30,31
 554 1015 554 1015 684 1015 c 0,32,33
 918 1015 918 1015 1084 867.5 c 128,-1,34
 1250 720 1250 720 1250 498 c 0,35,36
 1250 273 1250 273 1084 127 c 0,37,38
 917 -20 917 -20 683 -20 c 0,39,40
 448 -20 448 -20 284 127 c 128,-1,41
 120 274 120 274 120 494 c 2,42,-1
 120 1016 l 2,43,44
 120 1238 120 1238 285 1384 c 128,-1,16
 450 1530 450 1530 684 1530 c 128,-1,17
EndSplineSet
Validated: 1
EndChar

StartChar: seven
Encoding: 55 55 26
Width: 1098
GlyphClass: 2
Flags: W
HStem: -20 21G<132 184.412> 1360 150<77 686>
DStem2: 132 -20 564 179 0.37255 0.928012<345.616 1487.05>
LayerCount: 2
Fore
SplineSet
142 -20 m 1,0,-1
 132 -20 l 1,1,-1
 686 1360 l 1,2,-1
 10 1360 l 1,3,-1
 10 1370 l 1,4,-1
 77 1510 l 1,5,-1
 1088 1510 l 1,6,-1
 1088 1500 l 1,7,-1
 564 179 l 1,8,-1
 142 -20 l 1,0,-1
EndSplineSet
Validated: 1
EndChar

StartChar: eight
Encoding: 56 56 27
Width: 1250
GlyphClass: 2
Flags: W
HStem: -20 150<489.691 759.697> 747 150<503.904 745.582> 1380 150<504.543 743.984>
VStem: 60 334<276.879 645.922> 151 288<963.99 1295.97> 809 289<963.218 1297.8> 858 332<276.59 641.39>
LayerCount: 2
Fore
SplineSet
624 1380 m 128,-1,1
 536 1380 536 1380 487.5 1319 c 128,-1,2
 439 1258 439 1258 439 1143 c 0,3,4
 439 1019 439 1019 487.5 958 c 128,-1,5
 536 897 536 897 624 897 c 128,-1,6
 712 897 712 897 760.5 958 c 128,-1,7
 809 1019 809 1019 809 1143 c 0,8,9
 809 1258 809 1258 760.5 1319 c 128,-1,0
 712 1380 712 1380 624 1380 c 128,-1,1
394 438 m 128,-1,11
 394 271 394 271 459.5 200.5 c 128,-1,12
 525 130 525 130 626 130 c 128,-1,13
 727 130 727 130 789 200 c 0,14,15
 858 278 858 278 858 438 c 0,16,17
 858 602 858 602 789 677 c 0,18,19
 725 747 725 747 626 747 c 0,20,21
 525 747 525 747 459.5 676 c 128,-1,10
 394 605 394 605 394 438 c 128,-1,11
624.5 -20 m 128,-1,23
 391 -20 391 -20 225 121 c 0,24,25
 60 262 60 262 60 484 c 0,26,27
 60 726 60 726 259 853 c 1,28,29
 151 957 151 957 151 1123 c 128,-1,30
 151 1289 151 1289 290 1410 c 0,31,32
 428 1530 428 1530 624 1530 c 0,33,34
 822 1530 822 1530 960 1410 c 0,35,36
 1098 1291 1098 1291 1098 1125.5 c 128,-1,37
 1098 960 1098 960 991 855 c 1,38,39
 1190 715 1190 715 1190 488 c 0,40,41
 1190 260 1190 260 1024 120 c 128,-1,22
 858 -20 858 -20 624.5 -20 c 128,-1,23
EndSplineSet
Validated: 1
EndChar

StartChar: nine
Encoding: 57 57 28
Width: 1340
GlyphClass: 2
Flags: W
HStem: -20 150<509.423 815.388> 495 152<529.801 786.592> 1380 150<530.261 785.473>
VStem: 90 336<802.591 1223.65> 900 320<285.269 560 776.125 1223.47>
LayerCount: 2
Fore
SplineSet
661 1380 m 0,0,1
 563 1380 563 1380 501 1307 c 0,2,3
 426 1219 426 1219 426 1012 c 0,4,5
 426 808 426 808 501 720 c 0,6,7
 563 647 563 647 661 647 c 0,8,9
 755 647 755 647 823 725 c 0,10,11
 898 813 898 813 898 1015 c 0,12,13
 898 1214 898 1214 823 1302 c 0,14,15
 755 1380 755 1380 661 1380 c 0,0,1
656 -20 m 128,-1,17
 422 -20 422 -20 257 127 c 0,18,19
 137 234 137 234 103 380 c 1,20,-1
 400 521 l 1,21,-1
 410 521 l 1,22,-1
 410 366 l 2,23,24
 410 256 410 256 483 194 c 0,25,26
 556 130 556 130 659 130 c 128,-1,27
 762 130 762 130 831 185 c 128,-1,28
 900 240 900 240 900 325 c 2,29,-1
 900 560 l 1,30,31
 786 495 786 495 656 495 c 0,32,33
 422 495 422 495 256 642.5 c 128,-1,34
 90 790 90 790 90 1012 c 0,35,36
 90 1237 90 1237 256 1383 c 0,37,38
 423 1530 423 1530 657 1530 c 0,39,40
 892 1530 892 1530 1056 1383 c 128,-1,41
 1220 1236 1220 1236 1220 1016 c 2,42,-1
 1220 494 l 2,43,44
 1220 272 1220 272 1055 126 c 128,-1,16
 890 -20 890 -20 656 -20 c 128,-1,17
EndSplineSet
Validated: 1
EndChar

StartChar: colon
Encoding: 58 58 29
Width: 420
GlyphClass: 2
Flags: W
HStem: -20 365<92.1309 326.878> 573 365<92.1309 326.878>
VStem: 30 360<42.5657 282.578 635.566 875.578>
LayerCount: 2
Fore
SplineSet
210 938 m 128,-1,1
 285 938 285 938 337.5 884.5 c 128,-1,2
 390 831 390 831 390 756 c 128,-1,3
 390 681 390 681 337 627 c 128,-1,4
 284 573 284 573 210 573 c 0,5,6
 134 573 134 573 82 627 c 128,-1,7
 30 681 30 681 30 755 c 0,8,9
 30 831 30 831 82 884 c 0,10,0
 135 938 135 938 210 938 c 128,-1,1
210 -20 m 0,11,12
 134 -20 134 -20 82 34 c 128,-1,13
 30 88 30 88 30 162 c 0,14,15
 30 238 30 238 82 291 c 0,16,17
 135 345 135 345 210 345 c 128,-1,18
 285 345 285 345 337.5 291.5 c 128,-1,19
 390 238 390 238 390 163 c 128,-1,20
 390 88 390 88 337 34 c 128,-1,21
 284 -20 284 -20 210 -20 c 0,11,12
EndSplineSet
Validated: 1
EndChar

StartChar: semicolon
Encoding: 59 59 30
Width: 496
GlyphClass: 2
Flags: W
HStem: 573 365<130.131 364.878>
VStem: 68 360<635.566 875.578> 202 264<-112.817 113.6>
LayerCount: 2
Fore
SplineSet
30 212 m 1,0,-1
 299 338 l 1,1,-1
 309 338 l 1,2,3
 466 236 466 236 466 54 c 0,4,5
 466 -203 466 -203 130 -328 c 1,6,-1
 123 -321 l 1,7,8
 202 -172 202 -172 202 -24 c 0,9,10
 202 132 202 132 30 212 c 1,0,-1
248 938 m 128,-1,12
 323 938 323 938 375.5 884.5 c 128,-1,13
 428 831 428 831 428 756 c 128,-1,14
 428 681 428 681 375 627 c 128,-1,15
 322 573 322 573 248 573 c 0,16,17
 172 573 172 573 120 627 c 128,-1,18
 68 681 68 681 68 755 c 0,19,20
 68 831 68 831 120 884 c 0,21,11
 173 938 173 938 248 938 c 128,-1,12
EndSplineSet
Validated: 1
EndChar

StartChar: less
Encoding: 60 60 31
Width: 1355
GlyphClass: 2
Flags: W
DStem2: 408 812 110 638 0.942398 -0.334493<0 808.778> 227 891 408 812 0.937798 0.347181<142.314 973.557>
LayerCount: 2
Fore
SplineSet
227 891 m 1,0,-1
 1140 1229 l 1,1,-1
 1195 1116 l 1,2,-1
 1195 1106 l 1,3,-1
 408 812 l 1,4,-1
 1195 539 l 1,5,-1
 1195 529 l 1,6,-1
 1082 293 l 1,7,-1
 110 638 l 1,8,-1
 110 648 l 1,9,-1
 227 891 l 1,0,-1
EndSplineSet
Validated: 1
EndChar

StartChar: equal
Encoding: 61 61 32
Width: 1240
GlyphClass: 2
Flags: W
HStem: 390 270<235 1005> 850 270<235 1005>
LayerCount: 2
Fore
SplineSet
235 660 m 1,0,-1
 1130 660 l 1,1,-1
 1130 650 l 1,2,-1
 1005 390 l 1,3,-1
 110 390 l 1,4,-1
 110 400 l 1,5,-1
 235 660 l 1,0,-1
235 1120 m 1,6,-1
 1130 1120 l 1,7,-1
 1130 1110 l 1,8,-1
 1005 850 l 1,9,-1
 110 850 l 1,10,-1
 110 860 l 1,11,-1
 235 1120 l 1,6,-1
EndSplineSet
Validated: 1
EndChar

StartChar: greater
Encoding: 62 62 33
Width: 1355
GlyphClass: 2
Flags: W
DStem2: 273 1217 160 971 0.942398 -0.334493<0 808.778> 160 404 215 281 0.937798 0.347181<8.8757 840.118>
LayerCount: 2
Fore
SplineSet
1128 619 m 1,0,-1
 215 281 l 1,1,-1
 160 394 l 1,2,-1
 160 404 l 1,3,-1
 947 698 l 1,4,-1
 160 971 l 1,5,-1
 160 981 l 1,6,-1
 273 1217 l 1,7,-1
 1245 872 l 1,8,-1
 1245 862 l 1,9,-1
 1128 619 l 1,0,-1
EndSplineSet
Validated: 1
EndChar

StartChar: question
Encoding: 63 63 34
Width: 1340
GlyphClass: 2
Flags: W
HStem: -20 365<527.131 761.878> 1378 151<530.621 817.654>
VStem: 110 320<911.092 1231.24> 465 360<42.5657 282.578> 909 321<889.55 1256.55>
LayerCount: 2
Fore
SplineSet
675 1529 m 0,0,1
 942 1529 942 1529 1092 1382 c 0,2,3
 1230 1247 1230 1247 1230 1070 c 0,4,5
 1230 779 1230 779 868 646 c 0,6,7
 811 625 811 625 811 506 c 1,8,-1
 498 359 l 1,9,-1
 488 359 l 1,10,11
 488 617 488 617 731 721 c 0,12,13
 909 797 909 797 909 1080 c 0,14,15
 909 1233 909 1233 856 1298 c 0,16,17
 789 1378 789 1378 672 1378 c 0,18,19
 570 1378 570 1378 500 1308 c 128,-1,20
 430 1238 430 1238 430 1089 c 0,21,22
 430 997 430 997 459 926 c 1,23,-1
 189 799 l 1,24,-1
 179 799 l 1,25,26
 110 911 110 911 110 1047 c 0,27,28
 110 1228 110 1228 264 1379 c 0,29,30
 418 1529 418 1529 675 1529 c 0,0,1
645 -20 m 0,31,32
 569 -20 569 -20 517 34 c 128,-1,33
 465 88 465 88 465 162 c 0,34,35
 465 238 465 238 517 291 c 0,36,37
 570 345 570 345 645 345 c 128,-1,38
 720 345 720 345 772.5 291.5 c 128,-1,39
 825 238 825 238 825 163 c 128,-1,40
 825 88 825 88 772 34 c 128,-1,41
 719 -20 719 -20 645 -20 c 0,31,32
EndSplineSet
Validated: 1
EndChar

StartChar: at
Encoding: 64 64 35
Width: 1420
GlyphClass: 2
Flags: W
HStem: -430 140<551 706> -20 140<833.174 980> 519 140<836.124 980> 980 140<550.847 889.359>
VStem: 140 300<-126.562 815.912> 535 255<166 471.782> 980 300<120 519 659 819.172>
LayerCount: 2
Fore
SplineSet
952 -20 m 2,0,1
 767 -20 767 -20 651 82 c 128,-1,2
 535 184 535 184 535 324 c 0,3,4
 535 487 535 487 682 588 c 0,5,6
 785 659 785 659 965 659 c 2,7,-1
 980 659 l 1,8,-1
 980 758 l 2,9,10
 980 864 980 864 914 918 c 0,11,12
 839 980 839 980 723 980 c 0,13,14
 602 980 602 980 521 916.5 c 128,-1,15
 440 853 440 853 440 748 c 2,16,-1
 440 -58 l 2,17,18
 440 -158 440 -158 516 -224 c 0,19,20
 591 -290 591 -290 705 -290 c 2,21,-1
 769 -290 l 1,22,-1
 769 -300 l 1,23,-1
 706 -430 l 1,24,25
 374 -429 374 -429 218 -189 c 0,26,27
 140 -69 140 -69 140 90 c 2,28,-1
 140 600 l 2,29,30
 140 823 140 823 296 971.5 c 128,-1,31
 452 1120 452 1120 710 1120 c 128,-1,32
 968 1120 968 1120 1124 973.5 c 128,-1,33
 1280 827 1280 827 1280 604 c 2,34,-1
 1280 118 l 1,35,-1
 990 -20 l 1,36,-1
 952 -20 l 2,0,1
980 519 m 1,37,38
 878 519 878 519 834 473.5 c 128,-1,39
 790 428 790 428 790 322 c 0,40,41
 790 213 790 213 829 169 c 0,42,43
 872 120 872 120 980 120 c 1,44,-1
 980 519 l 1,37,38
EndSplineSet
Validated: 1
EndChar

StartChar: A
Encoding: 65 65 36
Width: 1410
GlyphClass: 2
Flags: W
HStem: -20 21G<140 192.177 950 1002.18> 680 150<460 950> 1380 150<552.799 859.72>
VStem: 140 320<127 680 830 1224.73> 950 320<127 680 830 1223.47>
LayerCount: 2
Fore
SplineSet
150 -20 m 1,0,-1
 140 -20 l 1,1,-1
 140 1016 l 2,2,3
 140 1238 140 1238 306 1384 c 128,-1,4
 472 1530 472 1530 706.5 1530 c 128,-1,5
 941 1530 941 1530 1105.5 1383 c 128,-1,6
 1270 1236 1270 1236 1270 1016 c 2,7,-1
 1270 127 l 1,8,-1
 960 -20 l 1,9,-1
 950 -20 l 1,10,-1
 950 680 l 1,11,-1
 460 680 l 1,12,-1
 460 127 l 1,13,-1
 150 -20 l 1,0,-1
950 830 m 1,14,-1
 950 1172 l 2,15,16
 950 1263 950 1263 878 1322 c 0,17,18
 808 1380 808 1380 705.5 1380 c 128,-1,19
 603 1380 603 1380 531.5 1321 c 128,-1,20
 460 1262 460 1262 460 1172 c 2,21,-1
 460 830 l 1,22,-1
 950 830 l 1,14,-1
EndSplineSet
Validated: 1
EndChar

StartChar: B
Encoding: 66 66 37
Width: 1300
GlyphClass: 2
Flags: W
HStem: 0 150<480 838.328> 751 150<480 811.884> 1360 150<480 811.253>
VStem: 160 320<150 751 901 1360> 859 300<947.886 1289.98> 915 335<278.768 666.211>
LayerCount: 2
Fore
SplineSet
480 1360 m 1,0,-1
 480 901 l 1,1,-1
 695 901 l 2,2,3
 762 901 762 901 807 940 c 0,4,5
 859 985 859 985 859 1123 c 0,6,7
 859 1271 859 1271 807 1321 c 0,8,9
 766 1360 766 1360 695 1360 c 2,10,-1
 480 1360 l 1,0,-1
480 150 m 1,11,-1
 670 150 l 2,12,13
 793 150 793 150 852 206 c 0,14,15
 915 266 915 266 915 449.5 c 128,-1,16
 915 633 915 633 847 697 c 0,17,18
 789 751 789 751 670 751 c 2,19,-1
 480 751 l 1,20,-1
 480 150 l 1,11,-1
160 0 m 1,21,-1
 160 1384 l 1,22,-1
 428 1510 l 1,23,-1
 685 1510 l 2,24,25
 870 1510 870 1510 1003 1413 c 0,26,27
 1159 1299 1159 1299 1159 1112 c 0,28,29
 1159 966 1159 966 1050 858 c 1,30,31
 1070 845 1070 845 1086 831 c 0,32,33
 1250 691 1250 691 1250 485 c 0,34,35
 1250 278 1250 278 1100 139 c 0,36,37
 949 0 949 0 685 0 c 2,38,-1
 160 0 l 1,21,-1
EndSplineSet
Validated: 1
EndChar

StartChar: C
Encoding: 67 67 38
Width: 1290
GlyphClass: 2
Flags: W
HStem: -20 150<531.898 838.258> 1380 150<532.624 838.474>
VStem: 120 330<286.533 1224.73> 915 335<290.674 404 1109.43 1210.35>
LayerCount: 2
Fore
SplineSet
685 -20 m 128,-1,1
 450 -20 450 -20 285 127 c 128,-1,2
 120 274 120 274 120 494 c 2,3,-1
 120 1016 l 2,4,5
 120 1238 120 1238 286 1384 c 128,-1,6
 452 1530 452 1530 686 1530 c 128,-1,7
 920 1530 920 1530 1084 1378 c 0,8,9
 1205 1266 1205 1266 1238 1116 c 1,10,-1
 925 967 l 1,11,-1
 915 967 l 1,12,-1
 915 1178 l 2,13,14
 915 1268 915 1268 852.5 1324 c 128,-1,15
 790 1380 790 1380 687 1380 c 128,-1,16
 584 1380 584 1380 517 1324 c 128,-1,17
 450 1268 450 1268 450 1178 c 2,18,-1
 450 332 l 2,19,20
 450 242 450 242 517 186 c 128,-1,21
 584 130 584 130 687 130 c 128,-1,22
 790 130 790 130 852.5 186 c 128,-1,23
 915 242 915 242 915 332 c 2,24,-1
 915 404 l 1,25,-1
 1240 558 l 1,26,-1
 1250 558 l 1,27,-1
 1250 502 l 2,28,29
 1250 278 1250 278 1084 128 c 0,30,0
 920 -20 920 -20 685 -20 c 128,-1,1
EndSplineSet
Validated: 1
EndChar

StartChar: D
Encoding: 68 68 39
Width: 1390
GlyphClass: 2
Flags: W
HStem: 0 150<480 851.516> 1360 150<480 849.547>
VStem: 160 320<150 1360> 940 330<307.564 1203.44>
LayerCount: 2
Fore
SplineSet
480 150 m 1,0,-1
 695 150 l 2,1,2
 798 150 798 150 870 207 c 0,3,4
 940 263 940 263 940 351 c 2,5,-1
 940 1159 l 2,6,7
 940 1247 940 1247 868 1303 c 0,8,9
 796 1360 796 1360 695 1360 c 2,10,-1
 480 1360 l 1,11,-1
 480 150 l 1,0,-1
160 0 m 1,12,-1
 160 1383 l 1,13,-1
 428 1510 l 1,14,-1
 705 1510 l 2,15,16
 939 1510 939 1510 1105 1362 c 0,17,18
 1270 1216 1270 1216 1270 997 c 2,19,-1
 1270 513 l 2,20,21
 1270 296 1270 296 1105 148 c 128,-1,22
 940 0 940 0 705 0 c 2,23,-1
 160 0 l 1,12,-1
EndSplineSet
Validated: 1
EndChar

StartChar: E
Encoding: 69 69 40
Width: 1100
GlyphClass: 2
Flags: W
HStem: 0 150<480 1023> 680 150<480 973> 1360 150<480 973>
VStem: 160 320<150 680 830 1360>
CounterMasks: 1 e0
LayerCount: 2
Fore
SplineSet
160 0 m 1,0,-1
 160 1384 l 1,1,-1
 428 1510 l 1,2,-1
 1040 1510 l 1,3,-1
 1040 1500 l 1,4,-1
 973 1360 l 1,5,-1
 480 1360 l 1,6,-1
 480 830 l 1,7,-1
 1040 830 l 1,8,-1
 1040 820 l 1,9,-1
 973 680 l 1,10,-1
 480 680 l 1,11,-1
 480 150 l 1,12,-1
 1090 150 l 1,13,-1
 1090 140 l 1,14,-1
 1023 0 l 1,15,-1
 160 0 l 1,0,-1
EndSplineSet
Validated: 1
EndChar

StartChar: F
Encoding: 70 70 41
Width: 1050
GlyphClass: 2
Flags: W
HStem: -20 21G<160 212.177> 680 150<480 973> 1360 150<480 973>
VStem: 160 320<127 680 830 1360>
LayerCount: 2
Fore
SplineSet
170 -20 m 1,0,-1
 160 -20 l 1,1,-1
 160 1384 l 1,2,-1
 428 1510 l 1,3,-1
 1040 1510 l 1,4,-1
 1040 1500 l 1,5,-1
 973 1360 l 1,6,-1
 480 1360 l 1,7,-1
 480 830 l 1,8,-1
 1040 830 l 1,9,-1
 1040 820 l 1,10,-1
 973 680 l 1,11,-1
 480 680 l 1,12,-1
 480 127 l 1,13,-1
 170 -20 l 1,0,-1
EndSplineSet
Validated: 1
EndChar

StartChar: G
Encoding: 71 71 42
Width: 1370
GlyphClass: 2
Flags: W
HStem: -20 150<531.898 845.463> 680 150<649 930> 1380 150<532.624 838.474>
VStem: 120 330<286.533 1224.73> 930 320<289.206 680>
CounterMasks: 1 e0
LayerCount: 2
Fore
SplineSet
685 -20 m 0,0,1
 450 -20 450 -20 285 127 c 128,-1,2
 120 274 120 274 120 494 c 2,3,-1
 120 1016 l 2,4,5
 120 1238 120 1238 286 1384 c 128,-1,6
 452 1530 452 1530 686 1530 c 128,-1,7
 920 1530 920 1530 1084 1378 c 0,8,9
 1205 1266 1205 1266 1238 1116 c 1,10,-1
 925 967 l 1,11,-1
 915 967 l 1,12,-1
 915 1178 l 2,13,14
 915 1268 915 1268 852.5 1324 c 128,-1,15
 790 1380 790 1380 687 1380 c 128,-1,16
 584 1380 584 1380 517 1324 c 128,-1,17
 450 1268 450 1268 450 1178 c 2,18,-1
 450 332 l 2,19,20
 450 242 450 242 517 186 c 128,-1,21
 584 130 584 130 687 130 c 128,-1,22
 790 130 790 130 860 184 c 128,-1,23
 930 238 930 238 930 322 c 2,24,-1
 930 680 l 1,25,-1
 582 680 l 1,26,-1
 582 690 l 1,27,-1
 649 830 l 1,28,-1
 1250 830 l 1,29,-1
 1250 500 l 2,30,31
 1250 276 1250 276 1084.5 128 c 128,-1,32
 919 -20 919 -20 685 -20 c 0,0,1
EndSplineSet
Validated: 1
EndChar

StartChar: H
Encoding: 72 72 43
Width: 1440
GlyphClass: 2
Flags: W
HStem: -20 21G<160 212.177 960 1012.18> 680 150<480 960> 1510 20G<427.823 480 1227.82 1280>
VStem: 160 320<127 680 830 1383> 960 320<127 680 830 1383>
LayerCount: 2
Fore
SplineSet
170 -20 m 1,0,-1
 160 -20 l 1,1,-1
 160 1383 l 1,2,-1
 470 1530 l 1,3,-1
 480 1530 l 1,4,-1
 480 830 l 1,5,-1
 960 830 l 1,6,-1
 960 1383 l 1,7,-1
 1270 1530 l 1,8,-1
 1280 1530 l 1,9,-1
 1280 127 l 1,10,-1
 970 -20 l 1,11,-1
 960 -20 l 1,12,-1
 960 680 l 1,13,-1
 480 680 l 1,14,-1
 480 127 l 1,15,-1
 170 -20 l 1,0,-1
EndSplineSet
Validated: 1
EndChar

StartChar: I
Encoding: 73 73 44
Width: 640
GlyphClass: 2
Flags: W
HStem: -20 21G<160 212.177> 1510 20G<427.823 480>
VStem: 160 320<127 1383>
LayerCount: 2
Fore
SplineSet
170 -20 m 1,0,-1
 160 -20 l 1,1,-1
 160 1383 l 1,2,-1
 470 1530 l 1,3,-1
 480 1530 l 1,4,-1
 480 127 l 1,5,-1
 170 -20 l 1,0,-1
EndSplineSet
Validated: 1
EndChar

StartChar: J
Encoding: 74 74 45
Width: 1224
GlyphClass: 2
Flags: W
HStem: -20 150<406.771 701.475> 1360 150<186 784>
VStem: 784 320<286.533 1360>
LayerCount: 2
Fore
SplineSet
553 -20 m 0,0,1
 320 -20 320 -20 158 131 c 0,2,3
 43 238 43 238 10 397 c 1,4,-1
 318 542 l 1,5,-1
 328 542 l 1,6,-1
 328 332 l 2,7,8
 328 243 328 243 391.5 186.5 c 128,-1,9
 455 130 455 130 553 130 c 0,10,11
 650 130 650 130 718 187 c 0,12,13
 784 243 784 243 784 332 c 2,14,-1
 784 1360 l 1,15,-1
 119 1360 l 1,16,-1
 119 1370 l 1,17,-1
 186 1510 l 1,18,-1
 1104 1510 l 1,19,-1
 1104 494 l 2,20,21
 1104 274 1104 274 943 127 c 128,-1,22
 782 -20 782 -20 553 -20 c 0,0,1
EndSplineSet
Validated: 1
EndChar

StartChar: K
Encoding: 75 75 46
Width: 1390
GlyphClass: 2
Flags: W
HStem: -20 21G<160 212.177 950 1002.18> 1510 20G<427.823 480 1066.11 1143.29>
VStem: 160 320<127 880.67 1040 1383> 950 320<127 806.966>
DStem2: 480 1040 798 1098 0.783175 0.621801<0 123.443 285.114 783.824>
LayerCount: 2
Fore
SplineSet
170 -20 m 1,0,-1
 160 -20 l 1,1,-1
 160 1383 l 1,2,-1
 470 1530 l 1,3,-1
 480 1530 l 1,4,-1
 480 1040 l 1,5,-1
 1091 1531 l 1,6,-1
 1101 1531 l 1,7,-1
 1249 1461 l 1,8,-1
 798 1098 l 1,9,10
 979 1078 979 1078 1106 966 c 0,11,12
 1270 820 1270 820 1270 599 c 2,13,-1
 1270 127 l 1,14,-1
 960 -20 l 1,15,-1
 950 -20 l 1,16,-1
 950 755 l 2,17,18
 950 847 950 847 874 908 c 0,19,20
 804 963 804 963 716 963 c 0,21,22
 625 963 625 963 555 910 c 0,23,24
 480 852 480 852 480 755 c 2,25,-1
 480 127 l 1,26,-1
 170 -20 l 1,0,-1
EndSplineSet
Validated: 1
EndChar

StartChar: L
Encoding: 76 76 47
Width: 1100
GlyphClass: 2
Flags: W
HStem: 0 150<480 1023> 1510 20G<427.534 480>
VStem: 160 320<150 1384>
LayerCount: 2
Fore
SplineSet
160 0 m 1,0,-1
 160 1384 l 1,1,-1
 470 1530 l 1,2,-1
 480 1530 l 1,3,-1
 480 150 l 1,4,-1
 1090 150 l 1,5,-1
 1090 140 l 1,6,-1
 1023 0 l 1,7,-1
 160 0 l 1,0,-1
EndSplineSet
Validated: 1
EndChar

StartChar: M
Encoding: 77 77 48
Width: 2220
GlyphClass: 2
Flags: W
HStem: -20 21G<140 192.177 950 1002.18 1760 1812.18> 1380 150<552.691 860.104 1362.54 1670.3>
VStem: 140 320<127 1224.73> 950 320<127 1293.7> 1760 320<127 1223.47>
CounterMasks: 1 38
LayerCount: 2
Fore
SplineSet
150 -20 m 1,0,-1
 140 -20 l 1,1,-1
 140 1016 l 2,2,3
 140 1238 140 1238 306 1384 c 128,-1,4
 472 1530 472 1530 706 1530 c 0,5,6
 942 1530 942 1530 1110 1379 c 1,7,8
 1281 1530 1281 1530 1518 1530 c 0,9,10
 1752 1530 1752 1530 1916 1383 c 128,-1,11
 2080 1236 2080 1236 2080 1016 c 2,12,-1
 2080 127 l 1,13,-1
 1770 -20 l 1,14,-1
 1760 -20 l 1,15,-1
 1760 1172 l 2,16,17
 1760 1263 1760 1263 1688 1322 c 0,18,19
 1618 1380 1618 1380 1515.5 1380 c 128,-1,20
 1413 1380 1413 1380 1341.5 1321 c 128,-1,21
 1270 1262 1270 1262 1270 1172 c 2,22,-1
 1270 127 l 1,23,-1
 960 -20 l 1,24,-1
 950 -20 l 1,25,-1
 950 1172 l 2,26,27
 950 1263 950 1263 878 1322 c 0,28,29
 808 1380 808 1380 705.5 1380 c 128,-1,30
 603 1380 603 1380 531.5 1321 c 128,-1,31
 460 1262 460 1262 460 1172 c 2,32,-1
 460 127 l 1,33,-1
 150 -20 l 1,0,-1
EndSplineSet
Validated: 1
EndChar

StartChar: N
Encoding: 78 78 49
Width: 1410
GlyphClass: 2
Flags: W
HStem: -20 21G<140 192.177 950 1002.18> 1380 150<552.799 859.72>
VStem: 140 320<127 1224.73> 950 320<127 1223.47>
LayerCount: 2
Fore
SplineSet
150 -20 m 1,0,-1
 140 -20 l 1,1,-1
 140 1016 l 2,2,3
 140 1238 140 1238 306 1384 c 128,-1,4
 472 1530 472 1530 706.5 1530 c 128,-1,5
 941 1530 941 1530 1105.5 1383 c 128,-1,6
 1270 1236 1270 1236 1270 1016 c 2,7,-1
 1270 127 l 1,8,-1
 960 -20 l 1,9,-1
 950 -20 l 1,10,-1
 950 1172 l 2,11,12
 950 1263 950 1263 878 1322 c 0,13,14
 808 1380 808 1380 705.5 1380 c 128,-1,15
 603 1380 603 1380 531.5 1321 c 128,-1,16
 460 1262 460 1262 460 1172 c 2,17,-1
 460 127 l 1,18,-1
 150 -20 l 1,0,-1
EndSplineSet
Validated: 1
EndChar

StartChar: O
Encoding: 79 79 50
Width: 1370
GlyphClass: 2
Flags: W
HStem: -20 150<533.025 838.455> 1379 151<534.107 835.365>
VStem: 120 330<286.533 1224.73> 920 330<285.269 1223.47>
LayerCount: 2
Fore
SplineSet
689 130 m 128,-1,1
 790 130 790 130 855 187 c 128,-1,2
 920 244 920 244 920 332 c 2,3,-1
 920 1178 l 2,4,5
 920 1270 920 1270 854 1323 c 0,6,7
 783 1379 783 1379 685 1379 c 128,-1,8
 587 1379 587 1379 516 1322 c 0,9,10
 450 1269 450 1269 450 1178 c 2,11,-1
 450 332 l 2,12,13
 450 240 450 240 517 186 c 0,14,0
 588 130 588 130 689 130 c 128,-1,1
686 -20 m 128,-1,16
 452 -20 452 -20 286 127 c 128,-1,17
 120 274 120 274 120 494 c 2,18,-1
 120 1016 l 2,19,20
 120 1238 120 1238 286 1384 c 0,21,22
 453 1530 453 1530 687 1530 c 0,23,24
 920 1530 920 1530 1085 1383 c 128,-1,25
 1250 1236 1250 1236 1250 1016 c 2,26,-1
 1250 494 l 2,27,28
 1250 272 1250 272 1085 126 c 128,-1,15
 920 -20 920 -20 686 -20 c 128,-1,16
EndSplineSet
Validated: 1
EndChar

StartChar: P
Encoding: 80 80 51
Width: 1270
GlyphClass: 2
Flags: W
HStem: -20 21G<160 212.177> 440 151<480 805.942> 1360 150<480 807.573>
VStem: 160 320<127 440 591 1360> 905 335<759.852 1190.22>
LayerCount: 2
Fore
SplineSet
480 591 m 1,0,-1
 677 591 l 2,1,2
 775 591 775 591 840 662 c 128,-1,3
 905 733 905 733 905 975 c 128,-1,4
 905 1217 905 1217 840 1288.5 c 128,-1,5
 775 1360 775 1360 677 1360 c 2,6,-1
 480 1360 l 1,7,-1
 480 591 l 1,0,-1
170 -20 m 1,8,-1
 160 -20 l 1,9,-1
 160 1383 l 1,10,-1
 428 1510 l 1,11,-1
 686 1510 l 2,12,13
 926 1510 926 1510 1082 1353 c 0,14,15
 1240 1196 1240 1196 1240 975 c 128,-1,16
 1240 754 1240 754 1081 597 c 128,-1,17
 922 440 922 440 686 440 c 2,18,-1
 480 440 l 1,19,-1
 480 127 l 1,20,-1
 170 -20 l 1,8,-1
EndSplineSet
Validated: 1
EndChar

StartChar: Q
Encoding: 81 81 52
Width: 1370
GlyphClass: 2
Flags: W
HStem: -20 150<530.44 767.337> 1379 151<532.029 840.723>
VStem: 120 320<286.533 1224.73> 930 320<422.574 1223.47>
LayerCount: 2
Fore
SplineSet
494 512 m 1,0,-1
 781 609 l 1,1,-1
 791 609 l 1,2,-1
 930 420 l 1,3,-1
 930 1178 l 2,4,5
 930 1266 930 1266 858 1323 c 0,6,7
 788 1379 788 1379 685 1379 c 0,8,9
 582 1378 582 1378 512 1322 c 0,10,11
 440 1264 440 1264 440 1178 c 2,12,-1
 440 332 l 2,13,14
 440 244 440 244 512 186 c 0,15,16
 582 130 582 130 686 130 c 0,17,18
 729 130 729 130 768 140 c 1,19,-1
 494 512 l 1,0,-1
686 -20 m 0,20,21
 452 -20 452 -20 286 127 c 128,-1,22
 120 274 120 274 120 494 c 2,23,-1
 120 1016 l 2,24,25
 120 1238 120 1238 286 1384 c 0,26,27
 453 1530 453 1530 687 1530 c 0,28,29
 920 1530 920 1530 1085 1383 c 128,-1,30
 1250 1236 1250 1236 1250 1016 c 2,31,-1
 1250 494 l 2,32,33
 1250 298 1250 298 1121 161 c 1,34,-1
 1197 57 l 1,35,-1
 910 -40 l 1,36,-1
 900 -40 l 1,37,-1
 867 5 l 1,38,39
 782 -20 782 -20 686 -20 c 0,20,21
EndSplineSet
Validated: 1
EndChar

StartChar: R
Encoding: 82 82 53
Width: 1369
GlyphClass: 2
Flags: W
HStem: -20 21G<160 212.177 998.87 1068> 440 151<480 688> 1360 150<480 807.573>
VStem: 160 320<127 440 591 1360> 905 335<759.852 1190.22>
DStem2: 1020 543 688 440 0.577032 -0.816722<-3.05354 455.775>
LayerCount: 2
Fore
SplineSet
480 591 m 1,0,-1
 677 591 l 2,1,2
 775 591 775 591 840 662 c 128,-1,3
 905 733 905 733 905 975 c 128,-1,4
 905 1217 905 1217 840 1288.5 c 128,-1,5
 775 1360 775 1360 677 1360 c 2,6,-1
 480 1360 l 1,7,-1
 480 591 l 1,0,-1
170 -20 m 1,8,-1
 160 -20 l 1,9,-1
 160 1383 l 1,10,-1
 428 1510 l 1,11,-1
 686 1510 l 2,12,13
 926 1510 926 1510 1082 1353 c 0,14,15
 1240 1196 1240 1196 1240 975 c 128,-1,16
 1240 754 1240 754 1082 597 c 0,17,18
 1052 567 1052 567 1020 543 c 1,19,-1
 1329 116 l 1,20,-1
 1023 -20 l 1,21,-1
 1013 -20 l 1,22,-1
 688 440 l 1,23,-1
 480 440 l 1,24,-1
 480 127 l 1,25,-1
 170 -20 l 1,8,-1
EndSplineSet
Validated: 1
EndChar

StartChar: T
Encoding: 84 84 54
Width: 1190
GlyphClass: 2
Flags: W
HStem: -20 21G<435 487.466> 1360 150<77 435 755 1113>
VStem: 435 320<126 1360>
LayerCount: 2
Fore
SplineSet
445 -20 m 1,0,-1
 435 -20 l 1,1,-1
 435 1360 l 1,2,-1
 10 1360 l 1,3,-1
 10 1370 l 1,4,-1
 77 1510 l 1,5,-1
 1180 1510 l 1,6,-1
 1180 1500 l 1,7,-1
 1113 1360 l 1,8,-1
 755 1360 l 1,9,-1
 755 126 l 1,10,-1
 445 -20 l 1,0,-1
EndSplineSet
Validated: 1
EndChar

StartChar: U
Encoding: 85 85 55
Width: 1410
GlyphClass: 2
Flags: W
HStem: -20 150<550.28 857.201> 1510 20G<407.823 460 1217.82 1270>
VStem: 140 320<286.533 1383> 950 320<285.269 1383>
LayerCount: 2
Fore
SplineSet
703.5 -20 m 128,-1,1
 469 -20 469 -20 304.5 127 c 128,-1,2
 140 274 140 274 140 494 c 2,3,-1
 140 1383 l 1,4,-1
 450 1530 l 1,5,-1
 460 1530 l 1,6,-1
 460 338 l 2,7,8
 460 247 460 247 532 188 c 0,9,10
 602 130 602 130 704.5 130 c 128,-1,11
 807 130 807 130 878.5 189 c 128,-1,12
 950 248 950 248 950 338 c 2,13,-1
 950 1383 l 1,14,-1
 1260 1530 l 1,15,-1
 1270 1530 l 1,16,-1
 1270 494 l 2,17,18
 1270 272 1270 272 1104 126 c 128,-1,0
 938 -20 938 -20 703.5 -20 c 128,-1,1
EndSplineSet
Validated: 1
EndChar

StartChar: V
Encoding: 86 86 56
Width: 1385
GlyphClass: 2
Flags: W
HStem: -20 21G<540.336 600.222> 1510 20G<244.594 304.665 1225.81 1286.5>
DStem2: 297 1530 5 1397 0.357831 -0.933786<19.707 1265.83> 750 348 824 106 0.378421 0.925634<0 1273.26>
LayerCount: 2
Fore
SplineSet
558 -20 m 1,0,-1
 548 -20 l 1,1,-1
 5 1397 l 1,2,-1
 287 1530 l 1,3,-1
 297 1530 l 1,4,-1
 750 348 l 1,5,-1
 1234 1530 l 1,6,-1
 1244 1530 l 1,7,-1
 1380 1466 l 1,8,-1
 824 106 l 1,9,-1
 558 -20 l 1,0,-1
EndSplineSet
Validated: 1
EndChar

StartChar: W
Encoding: 87 87 57
Width: 2220
GlyphClass: 2
Flags: W
HStem: -20 150<549.702 857.458 1359.9 1667.31> 1510 20G<407.823 460 1217.82 1270 2027.82 2080>
VStem: 140 320<286.533 1383> 950 320<216.296 1383> 1760 320<285.269 1383>
CounterMasks: 1 38
LayerCount: 2
Fore
SplineSet
702 -20 m 0,0,1
 468 -20 468 -20 304 127 c 128,-1,2
 140 274 140 274 140 494 c 2,3,-1
 140 1383 l 1,4,-1
 450 1530 l 1,5,-1
 460 1530 l 1,6,-1
 460 338 l 2,7,8
 460 247 460 247 532 188 c 0,9,10
 602 130 602 130 704.5 130 c 128,-1,11
 807 130 807 130 878.5 189 c 128,-1,12
 950 248 950 248 950 338 c 2,13,-1
 950 1383 l 1,14,-1
 1260 1530 l 1,15,-1
 1270 1530 l 1,16,-1
 1270 338 l 2,17,18
 1270 247 1270 247 1342 188 c 0,19,20
 1412 130 1412 130 1514.5 130 c 128,-1,21
 1617 130 1617 130 1688.5 189 c 128,-1,22
 1760 248 1760 248 1760 338 c 2,23,-1
 1760 1383 l 1,24,-1
 2070 1530 l 1,25,-1
 2080 1530 l 1,26,-1
 2080 494 l 2,27,28
 2080 272 2080 272 1914 126 c 128,-1,29
 1748 -20 1748 -20 1514 -20 c 0,30,31
 1278 -20 1278 -20 1110 131 c 1,32,33
 939 -20 939 -20 702 -20 c 0,0,1
EndSplineSet
Validated: 1
EndChar

StartChar: X
Encoding: 88 88 58
Width: 1249
GlyphClass: 2
Flags: W
HStem: -20 21G<104.846 171.583 949.597 1015.22> 1510 20G<233.778 299.38 1077.44 1143.52>
DStem2: 286 1530 10 1404 0.556181 -0.831061<0 694.208 971.302 1664.68> 10 45 157 -20 0.588883 0.808218<34.0317 746.896 1123.7 1837.38>
LayerCount: 2
Fore
SplineSet
157 -20 m 1,0,-1
 147 -20 l 1,1,-1
 10 45 l 1,2,-1
 484 696 l 1,3,-1
 10 1404 l 1,4,-1
 276 1530 l 1,5,-1
 286 1530 l 1,6,-1
 672 953 l 1,7,-1
 1092 1530 l 1,8,-1
 1102 1530 l 1,9,-1
 1239 1464 l 1,10,-1
 765 814 l 1,11,-1
 1239 106 l 1,12,-1
 973 -20 l 1,13,-1
 963 -20 l 1,14,-1
 577 556 l 1,15,-1
 157 -20 l 1,0,-1
EndSplineSet
Validated: 1
EndChar

StartChar: Y
Encoding: 89 89 59
Width: 1270
GlyphClass: 2
Flags: W
HStem: -20 21G<475 527.177> 1510 20G<347.823 400 1137.82 1190>
VStem: 80 320<683.533 1383> 475 320<127 410.017> 870 320<682.269 1383>
CounterMasks: 1 38
LayerCount: 2
Fore
SplineSet
485 -20 m 1,0,-1
 475 -20 l 1,1,-1
 475 397 l 1,2,3
 348 431 348 431 244 524 c 0,4,5
 80 671 80 671 80 891 c 2,6,-1
 80 1383 l 1,7,-1
 390 1530 l 1,8,-1
 400 1530 l 1,9,-1
 400 735 l 2,10,11
 400 652 400 652 472 585 c 0,12,13
 534 527 534 527 635 527 c 128,-1,14
 736 527 736 527 803 586 c 128,-1,15
 870 645 870 645 870 735 c 2,16,-1
 870 1383 l 1,17,-1
 1180 1530 l 1,18,-1
 1190 1530 l 1,19,-1
 1190 891 l 2,20,21
 1190 669 1190 669 1024 523 c 0,22,23
 921 432 921 432 795 398 c 1,24,-1
 795 127 l 1,25,-1
 485 -20 l 1,0,-1
EndSplineSet
Validated: 1
EndChar

StartChar: Z
Encoding: 90 90 60
Width: 1138
GlyphClass: 2
Flags: W
HStem: 0 150<419 1061> 1360 150<108 718>
DStem2: 10 10 419 150 0.464962 0.88533<314.116 1524.39>
LayerCount: 2
Fore
SplineSet
10 0 m 1,0,-1
 10 10 l 1,1,-1
 718 1360 l 1,2,-1
 41 1360 l 1,3,-1
 41 1370 l 1,4,-1
 108 1510 l 1,5,-1
 1128 1510 l 1,6,-1
 1128 1500 l 1,7,-1
 419 150 l 1,8,-1
 1128 150 l 1,9,-1
 1128 140 l 1,10,-1
 1061 0 l 1,11,-1
 10 0 l 1,0,-1
EndSplineSet
Validated: 1
EndChar

StartChar: bracketleft
Encoding: 91 91 61
Width: 920
GlyphClass: 2
Flags: W
HStem: -240 150<480 843> 1600 150<480 843>
VStem: 160 320<-90 1600>
LayerCount: 2
Fore
SplineSet
160 -240 m 1,0,-1
 160 1624 l 1,1,-1
 428 1750 l 1,2,-1
 910 1750 l 1,3,-1
 910 1740 l 1,4,-1
 843 1600 l 1,5,-1
 480 1600 l 1,6,-1
 480 -90 l 1,7,-1
 910 -90 l 1,8,-1
 910 -100 l 1,9,-1
 843 -240 l 1,10,-1
 160 -240 l 1,0,-1
EndSplineSet
Validated: 1
EndChar

StartChar: backslash
Encoding: 92 92 62
Width: 1105
GlyphClass: 2
Flags: W
DStem2: 256 1710 10 1597 0.423051 -0.906106<0 1981.11>
LayerCount: 2
Fore
SplineSet
858 -200 m 1,0,-1
 848 -200 l 1,1,-1
 10 1597 l 1,2,-1
 246 1710 l 1,3,-1
 256 1710 l 1,4,-1
 1095 -87 l 1,5,-1
 858 -200 l 1,0,-1
EndSplineSet
Validated: 1
EndChar

StartChar: bracketright
Encoding: 93 93 63
Width: 920
GlyphClass: 2
Flags: W
HStem: -240 150<77 440> 1600 150<77 440>
VStem: 440 320<-90 1600>
LayerCount: 2
Fore
SplineSet
492 -240 m 1,0,-1
 10 -240 l 1,1,-1
 10 -230 l 1,2,-1
 77 -90 l 1,3,-1
 440 -90 l 1,4,-1
 440 1600 l 1,5,-1
 10 1600 l 1,6,-1
 10 1610 l 1,7,-1
 77 1750 l 1,8,-1
 760 1750 l 1,9,-1
 760 -114 l 1,10,-1
 492 -240 l 1,0,-1
EndSplineSet
Validated: 1
EndChar

StartChar: asciicircum
Encoding: 94 94 64
Width: 1061
GlyphClass: 2
Flags: W
HStem: 1039 531
DStem2: 30 1112 193 1039 0.701689 0.712484<62.3639 462.65> 634 1570 469 1329 0.700901 -0.713259<56.2468 462.849>
LayerCount: 2
Fore
SplineSet
355 1442 m 1,0,-1
 624 1570 l 1,1,-1
 634 1570 l 1,2,-1
 1031 1166 l 1,3,-1
 764 1039 l 1,4,-1
 754 1039 l 1,5,-1
 469 1329 l 1,6,-1
 193 1039 l 1,7,-1
 183 1039 l 1,8,-1
 30 1112 l 1,9,-1
 355 1442 l 1,0,-1
EndSplineSet
Validated: 1
EndChar

StartChar: underscore
Encoding: 95 95 65
Width: 1404
GlyphClass: 2
Flags: W
HStem: -410 200<201 1203>
LayerCount: 2
Fore
SplineSet
110 -410 m 1,0,-1
 110 -400 l 1,1,-1
 201 -210 l 1,2,-1
 1294 -210 l 1,3,-1
 1294 -220 l 1,4,-1
 1203 -410 l 1,5,-1
 110 -410 l 1,0,-1
EndSplineSet
Validated: 1
EndChar

StartChar: grave
Encoding: 96 96 66
Width: 405
GlyphClass: 2
Flags: W
HStem: 1160 410
VStem: 30 345
DStem2: 220 1570 30 1485 0.429396 -0.903116<0 356.108>
LayerCount: 2
Fore
SplineSet
210 1570 m 1,0,-1
 220 1570 l 1,1,-1
 375 1244 l 1,2,-1
 197 1160 l 1,3,-1
 187 1160 l 1,4,-1
 30 1485 l 1,5,-1
 210 1570 l 1,0,-1
EndSplineSet
Validated: 1
EndChar

StartChar: a
Encoding: 97 97 67
Width: 1104
GlyphClass: 2
Flags: W
HStem: -20 140<380.927 632.963> 577 140<378.488 631.447> 960 140<297 608.771>
VStem: 40 300<180.383 519.032> 664 300<157.099 540.9 664 867.926>
LayerCount: 2
Fore
SplineSet
340 248 m 2,0,1
 340 190 340 190 383.5 155 c 128,-1,2
 427 120 427 120 501.5 120 c 128,-1,3
 576 120 576 120 628 156 c 0,4,5
 678 191 678 191 678 249 c 2,6,-1
 678 448 l 2,7,8
 678 507 678 507 626 542 c 0,9,10
 575 577 575 577 500.5 577 c 128,-1,11
 426 577 426 577 383 541.5 c 128,-1,12
 340 506 340 506 340 448 c 2,13,-1
 340 248 l 2,0,1
462 -20 m 0,14,15
 296 -20 296 -20 175 75 c 0,16,17
 40 181 40 181 40 353 c 0,18,19
 40 526 40 526 198 636 c 0,20,21
 314 717 314 717 462 717 c 0,22,23
 575 717 575 717 664 664 c 1,24,-1
 664 804 l 2,25,26
 664 880 664 880 610 926 c 0,27,28
 571 960 571 960 489 960 c 2,29,-1
 234 960 l 1,30,-1
 234 970 l 1,31,-1
 297 1100 l 1,32,-1
 489 1100 l 2,33,34
 691 1100 691 1100 827 984 c 0,35,36
 964 866 964 866 964 681 c 2,37,-1
 964 118 l 1,38,-1
 674 -20 l 1,39,-1
 664 -20 l 1,40,-1
 664 35 l 1,41,42
 590 -20 590 -20 462 -20 c 0,14,15
EndSplineSet
Validated: 1
EndChar

StartChar: b
Encoding: 98 98 68
Width: 1210
GlyphClass: 2
Flags: W
HStem: -20 140<489.169 730.958> 980 140<489.569 731.77> 1510 20G<387.971 440>
VStem: 140 300<220.152 933.793 1072 1392> 775 315<218.852 880.148>
LayerCount: 2
Fore
SplineSet
440 264 m 2,0,1
 440 202 440 202 490 161 c 128,-1,2
 540 120 540 120 614.5 120 c 128,-1,3
 689 120 689 120 732 160.5 c 128,-1,4
 775 201 775 201 775 265 c 2,5,-1
 775 835 l 2,6,7
 775 899 775 899 732 939.5 c 128,-1,8
 689 980 689 980 614.5 980 c 128,-1,9
 540 980 540 980 490 939 c 128,-1,10
 440 898 440 898 440 836 c 2,11,-1
 440 264 l 2,0,1
614.5 -20 m 128,-1,13
 419 -20 419 -20 280 102 c 0,14,15
 140 225 140 225 140 403 c 2,16,-1
 140 1392 l 1,17,-1
 430 1530 l 1,18,-1
 440 1530 l 1,19,-1
 440 1072 l 1,20,21
 517 1120 517 1120 615 1120 c 0,22,23
 813 1120 813 1120 951 998 c 0,24,25
 1090 876 1090 876 1090 696 c 2,26,-1
 1090 403 l 2,27,28
 1090 223 1090 223 950 101 c 0,29,12
 810 -20 810 -20 614.5 -20 c 128,-1,13
EndSplineSet
Validated: 1
EndChar

StartChar: c
Encoding: 99 99 69
Width: 1110
GlyphClass: 2
Flags: W
HStem: -20 140<475.26 713.225> 980 140<471.409 711.853>
VStem: 120 310<220.152 881.641> 755 315<222.556 320 778.467 866.657>
LayerCount: 2
Fore
SplineSet
595 -20 m 128,-1,1
 400 -20 400 -20 260 102 c 0,2,3
 120 225 120 225 120 403 c 2,4,-1
 120 697 l 2,5,6
 120 878 120 878 260 999 c 128,-1,7
 400 1120 400 1120 594.5 1120 c 128,-1,8
 789 1120 789 1120 929 993 c 0,9,10
 1027 904 1027 904 1057 785 c 1,11,-1
 765 646 l 1,12,-1
 755 646 l 1,13,-1
 755 842 l 2,14,15
 755 906 755 906 709 942 c 0,16,17
 659 980 659 980 592 980 c 128,-1,18
 525 980 525 980 474 941 c 0,19,20
 430 906 430 906 430 842 c 2,21,-1
 430 258 l 2,22,23
 430 194 430 194 476 158 c 0,24,25
 526 120 526 120 593 120 c 128,-1,26
 660 120 660 120 711 159 c 0,27,28
 755 194 755 194 755 258 c 2,29,-1
 755 320 l 1,30,-1
 1060 465 l 1,31,-1
 1070 465 l 1,32,-1
 1070 410 l 2,33,34
 1070 226 1070 226 930 103 c 128,-1,0
 790 -20 790 -20 595 -20 c 128,-1,1
EndSplineSet
Validated: 1
EndChar

StartChar: d
Encoding: 100 100 70
Width: 1210
GlyphClass: 2
Flags: W
HStem: -20 140<479.042 720.831> 980 140<478.23 720.431> 1510 20G<1017.97 1070>
VStem: 120 315<218.852 880.148> 770 300<220.645 933.793 1072 1392>
LayerCount: 2
Fore
SplineSet
770 836 m 2,0,1
 770 898 770 898 720 939 c 128,-1,2
 670 980 670 980 595.5 980 c 128,-1,3
 521 980 521 980 478 939.5 c 128,-1,4
 435 899 435 899 435 835 c 2,5,-1
 435 265 l 2,6,7
 435 201 435 201 478 160.5 c 128,-1,8
 521 120 521 120 595.5 120 c 128,-1,9
 670 120 670 120 720 161 c 128,-1,10
 770 202 770 202 770 264 c 2,11,-1
 770 836 l 2,0,1
595.5 -20 m 128,-1,13
 400 -20 400 -20 260 101 c 0,14,15
 120 223 120 223 120 403 c 2,16,-1
 120 696 l 2,17,18
 120 876 120 876 259 998 c 0,19,20
 397 1120 397 1120 595 1120 c 0,21,22
 693 1120 693 1120 770 1072 c 1,23,-1
 770 1392 l 1,24,-1
 1060 1530 l 1,25,-1
 1070 1530 l 1,26,-1
 1070 403 l 2,27,28
 1070 226 1070 226 930 102 c 0,29,12
 791 -20 791 -20 595.5 -20 c 128,-1,13
EndSplineSet
Validated: 1
EndChar

StartChar: e
Encoding: 101 101 71
Width: 1190
GlyphClass: 2
Flags: W
HStem: -20 140<475.26 713.225> 980 140<471.409 711.853>
VStem: 120 310<220.152 357 516 881.641> 755 315<222.556 320 671 868.256>
DStem2: 430 516 430 357 0.903565 0.428451<0 360.069>
LayerCount: 2
Fore
SplineSet
595 -20 m 128,-1,1
 400 -20 400 -20 260 102 c 0,2,3
 120 225 120 225 120 403 c 2,4,-1
 120 697 l 2,5,6
 120 878 120 878 260 999 c 128,-1,7
 400 1120 400 1120 594.5 1120 c 128,-1,8
 789 1120 789 1120 929 993 c 128,-1,9
 1069 866 1069 866 1069 692 c 2,10,-1
 1069 660 l 1,11,-1
 430 357 l 1,12,-1
 430 258 l 2,13,14
 430 194 430 194 476 158 c 0,15,16
 526 120 526 120 593 120 c 128,-1,17
 660 120 660 120 711 159 c 0,18,19
 755 194 755 194 755 258 c 2,20,-1
 755 320 l 1,21,-1
 1060 465 l 1,22,-1
 1070 465 l 1,23,-1
 1070 410 l 2,24,25
 1070 226 1070 226 930 103 c 128,-1,0
 790 -20 790 -20 595 -20 c 128,-1,1
430 516 m 1,26,-1
 755 671 l 1,27,-1
 755 842 l 2,28,29
 755 906 755 906 709 942 c 0,30,31
 659 980 659 980 592 980 c 128,-1,32
 525 980 525 980 474 941 c 0,33,34
 430 906 430 906 430 842 c 2,35,-1
 430 516 l 1,26,-1
EndSplineSet
Validated: 1
EndChar

StartChar: f
Encoding: 102 102 72
Width: 860
GlyphClass: 2
Flags: W
HStem: -20 21G<140 192.029> 732 140<440 749> 1370 140<490.569 788>
VStem: 140 300<118 732 872 1265.14>
LayerCount: 2
Fore
SplineSet
150 -20 m 1,0,-1
 140 -20 l 1,1,-1
 140 1076 l 2,2,3
 140 1261 140 1261 280 1386 c 0,4,5
 420 1510 420 1510 615 1510 c 2,6,-1
 850 1510 l 1,7,-1
 850 1500 l 1,8,-1
 788 1370 l 1,9,-1
 615 1370 l 2,10,11
 539 1370 539 1370 489 1329 c 0,12,13
 440 1288 440 1288 440 1225 c 2,14,-1
 440 872 l 1,15,-1
 811 872 l 1,16,-1
 811 862 l 1,17,-1
 749 732 l 1,18,-1
 440 732 l 1,19,-1
 440 118 l 1,20,-1
 150 -20 l 1,0,-1
EndSplineSet
Validated: 1
EndChar

StartChar: g
Encoding: 103 103 73
Width: 1210
GlyphClass: 2
Flags: W
HStem: -410 140<322 719.462> -20 140<478.473 720.804> 980 140<476.598 721.164>
VStem: 120 315<220.305 882.133> 770 300<-169.535 28 166.207 879.848>
LayerCount: 2
Fore
SplineSet
594 -20 m 0,0,1
 399 -20 399 -20 260 102 c 0,2,3
 120 225 120 225 120 403 c 2,4,-1
 120 697 l 2,5,6
 120 879 120 879 260 999 c 0,7,8
 401 1120 401 1120 596 1120 c 0,9,10
 792 1120 792 1120 930 998 c 0,11,12
 1070 875 1070 875 1070 697 c 2,13,-1
 1070 24 l 2,14,15
 1070 -168 1070 -168 930 -289 c 0,16,17
 789 -410 789 -410 595 -410 c 2,18,-1
 260 -410 l 1,19,-1
 260 -400 l 1,20,-1
 322 -270 l 1,21,-1
 595 -270 l 2,22,23
 672 -270 672 -270 721 -229 c 128,-1,24
 770 -188 770 -188 770 -125 c 2,25,-1
 770 28 l 1,26,27
 695 -20 695 -20 594 -20 c 0,0,1
770 836 m 2,28,29
 770 898 770 898 720 939 c 128,-1,30
 670 980 670 980 595.5 980 c 128,-1,31
 521 980 521 980 478 939.5 c 128,-1,32
 435 899 435 899 435 835 c 2,33,-1
 435 265 l 2,34,35
 435 201 435 201 478 160.5 c 128,-1,36
 521 120 521 120 595.5 120 c 128,-1,37
 670 120 670 120 720 161 c 128,-1,38
 770 202 770 202 770 264 c 2,39,-1
 770 836 l 2,28,29
EndSplineSet
Validated: 1
EndChar

StartChar: h
Encoding: 104 104 74
Width: 1250
GlyphClass: 2
Flags: W
HStem: -20 21G<160 212.029 810 862.029> 979 141<509.569 760.976> 1510 20G<407.971 460>
VStem: 160 300<118 932.793 1072 1392> 810 300<118 880.148>
LayerCount: 2
Fore
SplineSet
170 -20 m 1,0,-1
 160 -20 l 1,1,-1
 160 1392 l 1,2,-1
 450 1530 l 1,3,-1
 460 1530 l 1,4,-1
 460 1072 l 1,5,6
 537 1120 537 1120 635 1120 c 0,7,8
 833 1120 833 1120 971 998 c 0,9,10
 1110 876 1110 876 1110 696 c 2,11,-1
 1110 118 l 1,12,-1
 820 -20 l 1,13,-1
 810 -20 l 1,14,-1
 810 834 l 2,15,16
 810 898 810 898 759.5 938.5 c 128,-1,17
 709 979 709 979 634.5 979 c 128,-1,18
 560 979 560 979 510 938 c 128,-1,19
 460 897 460 897 460 835 c 2,20,-1
 460 118 l 1,21,-1
 170 -20 l 1,0,-1
EndSplineSet
Validated: 1
EndChar

StartChar: i
Encoding: 105 105 75
Width: 620
GlyphClass: 2
Flags: W
HStem: -20 21G<160 212.029> 1100 20G<407.971 460> 1180 364<192.131 426.338>
VStem: 130 360<1244.3 1481.73> 160 300<118 982>
LayerCount: 2
Fore
SplineSet
170 -20 m 1,0,-1
 160 -20 l 1,1,-1
 160 982 l 1,2,-1
 450 1120 l 1,3,-1
 460 1120 l 1,4,-1
 460 118 l 1,5,-1
 170 -20 l 1,0,-1
310 1544 m 0,6,7
 386 1544 386 1544 438 1491 c 128,-1,8
 490 1438 490 1438 490 1363 c 0,9,10
 490 1289 490 1289 437 1234 c 0,11,12
 385 1180 385 1180 310 1180 c 0,13,14
 233 1180 233 1180 181.5 1234 c 128,-1,15
 130 1288 130 1288 130 1362 c 0,16,17
 130 1438 130 1438 182 1490 c 0,18,19
 235 1544 235 1544 310 1544 c 0,6,7
EndSplineSet
Validated: 1
EndChar

StartChar: j
Encoding: 106 106 76
Width: 620
GlyphClass: 2
Flags: W
HStem: -410 21G<-75 69.5> 1100 20G<407.971 460> 1180 364<192.131 426.338>
VStem: 130 360<1244.3 1481.73> 160 300<-151.418 982>
LayerCount: 2
Fore
SplineSet
310 1544 m 0,0,1
 386 1544 386 1544 438 1491 c 128,-1,2
 490 1438 490 1438 490 1363 c 0,3,4
 490 1289 490 1289 437 1234 c 0,5,6
 385 1180 385 1180 310 1180 c 0,7,8
 233 1180 233 1180 181.5 1234 c 128,-1,9
 130 1288 130 1288 130 1362 c 0,10,11
 130 1438 130 1438 182 1490 c 0,12,13
 235 1544 235 1544 310 1544 c 0,0,1
-75 -410 m 1,14,-1
 -75 -400 l 1,15,-1
 -17 -280 l 1,16,17
 65 -275 65 -275 112.5 -231.5 c 128,-1,18
 160 -188 160 -188 160 -120 c 2,19,-1
 160 982 l 1,20,-1
 450 1120 l 1,21,-1
 460 1120 l 1,22,-1
 460 41 l 2,23,24
 460 -177 460 -177 279 -315 c 0,25,26
 154 -410 154 -410 -15 -410 c 2,27,-1
 -75 -410 l 1,14,-1
EndSplineSet
Validated: 1
EndChar

StartChar: k
Encoding: 107 107 77
Width: 1210
GlyphClass: 2
Flags: W
HStem: -20 21G<160 212.029 790 842.029> 1100 20G<902.4 986.319> 1510 20G<407.971 460>
VStem: 160 300<118 638.712 820 1392> 790 300<118 594.293>
DStem2: 460 820 700 807 0.84498 0.534798<195.843 560.96>
LayerCount: 2
Fore
SplineSet
170 -20 m 1,0,-1
 160 -20 l 1,1,-1
 160 1392 l 1,2,-1
 450 1530 l 1,3,-1
 460 1530 l 1,4,-1
 460 820 l 1,5,-1
 934 1120 l 1,6,-1
 944 1120 l 1,7,-1
 1090 1051 l 1,8,-1
 700 807 l 1,9,10
 856 788 856 788 950 709 c 0,11,12
 1090 593 1090 593 1090 408 c 2,13,-1
 1090 118 l 1,14,-1
 800 -20 l 1,15,-1
 790 -20 l 1,16,-1
 790 532 l 2,17,18
 790 597 790 597 739 640 c 0,19,20
 688 682 688 682 621 682 c 0,21,22
 553 682 553 682 506 640 c 0,23,24
 460 599 460 599 460 532 c 2,25,-1
 460 118 l 1,26,-1
 170 -20 l 1,0,-1
EndSplineSet
Validated: 1
EndChar

StartChar: l
Encoding: 108 108 78
Width: 620
GlyphClass: 2
Flags: W
HStem: -20 21G<160 212.029> 1510 20G<407.971 460>
VStem: 160 300<118 1392>
LayerCount: 2
Fore
SplineSet
170 -20 m 1,0,-1
 160 -20 l 1,1,-1
 160 1392 l 1,2,-1
 450 1530 l 1,3,-1
 460 1530 l 1,4,-1
 460 118 l 1,5,-1
 170 -20 l 1,0,-1
EndSplineSet
Validated: 1
EndChar

StartChar: m
Encoding: 109 109 79
Width: 1880
GlyphClass: 2
Flags: W
HStem: -20 21G<140 192.029 790 842.029 1440 1492.03> 979 141<489.503 741.123 1138.72 1390.98>
VStem: 140 300<118 881.641> 790 300<118 932.793> 1440 300<118 880.148>
CounterMasks: 1 38
LayerCount: 2
Fore
SplineSet
150 -20 m 1,0,-1
 140 -20 l 1,1,-1
 140 697 l 2,2,3
 140 878 140 878 280 999 c 128,-1,4
 420 1120 420 1120 615 1120 c 0,5,6
 805 1120 805 1120 939 1007 c 1,7,8
 1076 1120 1076 1120 1265 1120 c 0,9,10
 1463 1120 1463 1120 1601 998 c 0,11,12
 1740 876 1740 876 1740 696 c 2,13,-1
 1740 118 l 1,14,-1
 1450 -20 l 1,15,-1
 1440 -20 l 1,16,-1
 1440 834 l 2,17,18
 1440 898 1440 898 1389.5 938.5 c 128,-1,19
 1339 979 1339 979 1264.5 979 c 128,-1,20
 1190 979 1190 979 1140 938 c 128,-1,21
 1090 897 1090 897 1090 835 c 2,22,-1
 1090 118 l 1,23,-1
 800 -20 l 1,24,-1
 790 -20 l 1,25,-1
 790 834 l 2,26,27
 790 898 790 898 739.5 938.5 c 128,-1,28
 689 979 689 979 614.5 979 c 128,-1,29
 540 979 540 979 490 938 c 128,-1,30
 440 897 440 897 440 835 c 2,31,-1
 440 118 l 1,32,-1
 150 -20 l 1,0,-1
EndSplineSet
Validated: 1
EndChar

StartChar: n
Encoding: 110 110 80
Width: 1230
GlyphClass: 2
Flags: W
HStem: -20 21G<140 192.029 790 842.029> 979 141<489.503 740.976>
VStem: 140 300<118 881.641> 790 300<118 879.656>
LayerCount: 2
Fore
SplineSet
150 -20 m 1,0,-1
 140 -20 l 1,1,-1
 140 697 l 2,2,3
 140 878 140 878 280 999 c 128,-1,4
 420 1120 420 1120 615 1120 c 0,5,6
 813 1120 813 1120 951 998 c 0,7,8
 1090 875 1090 875 1090 696 c 2,9,-1
 1090 118 l 1,10,-1
 800 -20 l 1,11,-1
 790 -20 l 1,12,-1
 790 834 l 2,13,14
 790 898 790 898 739.5 938.5 c 128,-1,15
 689 979 689 979 614.5 979 c 128,-1,16
 540 979 540 979 490 938 c 128,-1,17
 440 897 440 897 440 835 c 2,18,-1
 440 118 l 1,19,-1
 150 -20 l 1,0,-1
EndSplineSet
Validated: 1
EndChar

StartChar: o
Encoding: 111 111 81
Width: 1190
GlyphClass: 2
Flags: W
HStem: -20 140<474.927 718.375> 980 140<471.958 715.407>
VStem: 120 310<220.152 882.133> 760 310<219.122 879.848>
LayerCount: 2
Fore
SplineSet
595.5 120 m 128,-1,1
 665 120 665 120 716 159 c 0,2,3
 760 194 760 194 760 258 c 2,4,-1
 760 842 l 2,5,6
 760 906 760 906 714 942 c 0,7,8
 664 980 664 980 594.5 980 c 128,-1,9
 525 980 525 980 474 941 c 0,10,11
 430 906 430 906 430 842 c 2,12,-1
 430 258 l 2,13,14
 430 194 430 194 476 158 c 0,15,0
 526 120 526 120 595.5 120 c 128,-1,1
594.5 -20 m 128,-1,17
 399 -20 399 -20 260 102 c 0,18,19
 120 225 120 225 120 403 c 2,20,-1
 120 697 l 2,21,22
 120 879 120 879 260 999 c 0,23,24
 401 1120 401 1120 596 1120 c 0,25,26
 792 1120 792 1120 930 998 c 0,27,28
 1070 875 1070 875 1070 697 c 2,29,-1
 1070 403 l 2,30,31
 1070 223 1070 223 930 101 c 0,32,16
 790 -20 790 -20 594.5 -20 c 128,-1,17
EndSplineSet
Validated: 1
EndChar

StartChar: p
Encoding: 112 112 82
Width: 1210
GlyphClass: 2
Flags: W
HStem: -430 21G<140 192.029> -20 140<489.569 731.77> 980 140<489.169 730.958>
VStem: 140 300<-292 28 166.207 879.355> 775 315<219.852 881.148>
LayerCount: 2
Fore
SplineSet
440 264 m 2,0,1
 440 202 440 202 490 161 c 128,-1,2
 540 120 540 120 614.5 120 c 128,-1,3
 689 120 689 120 732 160.5 c 128,-1,4
 775 201 775 201 775 265 c 2,5,-1
 775 835 l 2,6,7
 775 899 775 899 732 939.5 c 128,-1,8
 689 980 689 980 614.5 980 c 128,-1,9
 540 980 540 980 490 939 c 128,-1,10
 440 898 440 898 440 836 c 2,11,-1
 440 264 l 2,0,1
150 -430 m 1,12,-1
 140 -430 l 1,13,-1
 140 697 l 2,14,15
 140 874 140 874 280 998 c 0,16,17
 419 1120 419 1120 614.5 1120 c 128,-1,18
 810 1120 810 1120 950 999 c 0,19,20
 1090 877 1090 877 1090 697 c 2,21,-1
 1090 404 l 2,22,23
 1090 224 1090 224 951 102 c 0,24,25
 813 -20 813 -20 615 -20 c 0,26,27
 517 -20 517 -20 440 28 c 1,28,-1
 440 -292 l 1,29,-1
 150 -430 l 1,12,-1
EndSplineSet
Validated: 1
EndChar

StartChar: q
Encoding: 113 113 83
Width: 1210
GlyphClass: 2
Flags: W
HStem: -430 21G<770 822.029> -20 140<478.23 720.431> 980 140<479.042 720.831>
VStem: 120 315<219.852 881.148> 770 300<-292 28 166.207 879.848>
LayerCount: 2
Fore
SplineSet
770 836 m 2,0,1
 770 898 770 898 720 939 c 128,-1,2
 670 980 670 980 595.5 980 c 128,-1,3
 521 980 521 980 478 939.5 c 128,-1,4
 435 899 435 899 435 835 c 2,5,-1
 435 265 l 2,6,7
 435 201 435 201 478 160.5 c 128,-1,8
 521 120 521 120 595.5 120 c 128,-1,9
 670 120 670 120 720 161 c 128,-1,10
 770 202 770 202 770 264 c 2,11,-1
 770 836 l 2,0,1
780 -430 m 1,12,-1
 770 -430 l 1,13,-1
 770 28 l 1,14,15
 693 -20 693 -20 595 -20 c 0,16,17
 397 -20 397 -20 259 102 c 0,18,19
 120 224 120 224 120 404 c 2,20,-1
 120 697 l 2,21,22
 120 877 120 877 260 999 c 0,23,24
 400 1120 400 1120 595.5 1120 c 128,-1,25
 791 1120 791 1120 930 998 c 0,26,27
 1070 875 1070 875 1070 697 c 2,28,-1
 1070 -292 l 1,29,-1
 780 -430 l 1,12,-1
EndSplineSet
Validated: 1
EndChar

StartChar: r
Encoding: 114 114 84
Width: 860
GlyphClass: 2
Flags: W
HStem: -20 21G<140 192.029> 960 140<490.538 788>
VStem: 140 300<118 861.641>
LayerCount: 2
Fore
SplineSet
150 -20 m 1,0,-1
 140 -20 l 1,1,-1
 140 677 l 2,2,3
 140 858 140 858 280 979 c 0,4,5
 421 1100 421 1100 615 1100 c 2,6,-1
 850 1100 l 1,7,-1
 850 1090 l 1,8,-1
 788 960 l 1,9,-1
 615 960 l 2,10,11
 538 960 538 960 489 919 c 128,-1,12
 440 878 440 878 440 815 c 2,13,-1
 440 118 l 1,14,-1
 150 -20 l 1,0,-1
EndSplineSet
Validated: 1
EndChar

StartChar: t
Encoding: 116 116 85
Width: 890
GlyphClass: 2
Flags: W
HStem: -20 21G<300 351.985> 960 140<72 300 585 818> 1510 20G<533.015 585>
VStem: 300 285<111 960 1100 1399>
LayerCount: 2
Fore
SplineSet
310 -20 m 1,0,-1
 300 -20 l 1,1,-1
 300 960 l 1,2,-1
 10 960 l 1,3,-1
 10 970 l 1,4,-1
 72 1100 l 1,5,-1
 300 1100 l 1,6,-1
 300 1399 l 1,7,-1
 575 1530 l 1,8,-1
 585 1530 l 1,9,-1
 585 1100 l 1,10,-1
 880 1100 l 1,11,-1
 880 1090 l 1,12,-1
 818 960 l 1,13,-1
 585 960 l 1,14,-1
 585 111 l 1,15,-1
 310 -20 l 1,0,-1
EndSplineSet
Validated: 1
EndChar

StartChar: u
Encoding: 117 117 86
Width: 1230
GlyphClass: 2
Flags: W
HStem: -20 141<489.024 740.497> 1100 20G<387.971 440 1037.97 1090>
VStem: 140 300<220.344 982> 790 300<218.359 982>
LayerCount: 2
Fore
SplineSet
615 -20 m 0,0,1
 417 -20 417 -20 279 102 c 0,2,3
 140 225 140 225 140 404 c 2,4,-1
 140 982 l 1,5,-1
 430 1120 l 1,6,-1
 440 1120 l 1,7,-1
 440 266 l 2,8,9
 440 202 440 202 490.5 161.5 c 128,-1,10
 541 121 541 121 615.5 121 c 128,-1,11
 690 121 690 121 740 162 c 128,-1,12
 790 203 790 203 790 265 c 2,13,-1
 790 982 l 1,14,-1
 1080 1120 l 1,15,-1
 1090 1120 l 1,16,-1
 1090 403 l 2,17,18
 1090 222 1090 222 950 101 c 128,-1,19
 810 -20 810 -20 615 -20 c 0,0,1
EndSplineSet
Validated: 1
EndChar

StartChar: v
Encoding: 118 118 87
Width: 1107
GlyphClass: 2
Flags: W
HStem: -20 21G<404.961 465.031> 1100 20G<225.08 285.029 960.394 1020.69>
DStem2: 277 1120 5 995 0.372966 -0.927845<14.5338 896.538> 611 288 692 108 0.395199 0.918596<0 904.117>
LayerCount: 2
Fore
SplineSet
423 -20 m 1,0,-1
 413 -20 l 1,1,-1
 5 995 l 1,2,-1
 267 1120 l 1,3,-1
 277 1120 l 1,4,-1
 611 288 l 1,5,-1
 969 1120 l 1,6,-1
 979 1120 l 1,7,-1
 1102 1061 l 1,8,-1
 692 108 l 1,9,-1
 423 -20 l 1,0,-1
EndSplineSet
Validated: 1
EndChar

StartChar: w
Encoding: 119 119 88
Width: 1880
GlyphClass: 2
Flags: W
HStem: -20 141<489.024 741.28 1138.88 1390.5> 1100 20G<387.971 440 1037.97 1090 1687.97 1740>
VStem: 140 300<219.852 982> 790 300<167.207 982> 1440 300<218.359 982>
CounterMasks: 1 38
LayerCount: 2
Fore
SplineSet
615 -20 m 0,0,1
 417 -20 417 -20 279 102 c 0,2,3
 140 224 140 224 140 404 c 2,4,-1
 140 982 l 1,5,-1
 430 1120 l 1,6,-1
 440 1120 l 1,7,-1
 440 266 l 2,8,9
 440 202 440 202 490.5 161.5 c 128,-1,10
 541 121 541 121 615.5 121 c 128,-1,11
 690 121 690 121 740 162 c 128,-1,12
 790 203 790 203 790 265 c 2,13,-1
 790 982 l 1,14,-1
 1080 1120 l 1,15,-1
 1090 1120 l 1,16,-1
 1090 266 l 2,17,18
 1090 202 1090 202 1140.5 161.5 c 128,-1,19
 1191 121 1191 121 1265.5 121 c 128,-1,20
 1340 121 1340 121 1390 162 c 128,-1,21
 1440 203 1440 203 1440 265 c 2,22,-1
 1440 982 l 1,23,-1
 1730 1120 l 1,24,-1
 1740 1120 l 1,25,-1
 1740 403 l 2,26,27
 1740 222 1740 222 1600 101 c 128,-1,28
 1460 -20 1460 -20 1265 -20 c 0,29,30
 1075 -20 1075 -20 941 93 c 1,31,32
 804 -20 804 -20 615 -20 c 0,0,1
EndSplineSet
Validated: 1
EndChar

StartChar: x
Encoding: 120 120 89
Width: 978
GlyphClass: 2
Flags: W
HStem: -20 21G<93.2881 161.243 698.292 764.414> 1100 20G<213.949 279.724 817.796 884.667>
DStem2: 266 1120 10 1003 0.565434 -0.824793<0 475.421 718.417 1192.45> 10 39 146 -20 0.605755 0.795651<35.4392 527.054 866.225 1358.64>
LayerCount: 2
Fore
SplineSet
146 -20 m 1,0,-1
 136 -20 l 1,1,-1
 10 39 l 1,2,-1
 358 496 l 1,3,-1
 10 1003 l 1,4,-1
 256 1120 l 1,5,-1
 266 1120 l 1,6,-1
 535 728 l 1,7,-1
 833 1120 l 1,8,-1
 843 1120 l 1,9,-1
 968 1060 l 1,10,-1
 620 603 l 1,11,-1
 968 96 l 1,12,-1
 722 -20 l 1,13,-1
 712 -20 l 1,14,-1
 444 371 l 1,15,-1
 146 -20 l 1,0,-1
EndSplineSet
Validated: 1
EndChar

StartChar: y
Encoding: 121 121 90
Width: 1250
GlyphClass: 2
Flags: W
HStem: -410 140<342 739.462> -20 140<489.562 742.578> 1100 20G<387.971 440 1037.97 1090>
VStem: 140 300<220.152 982> 790 300<-169.535 28 162.702 982>
LayerCount: 2
Fore
SplineSet
614 -20 m 0,0,1
 419 -20 419 -20 280 102 c 0,2,3
 140 225 140 225 140 403 c 2,4,-1
 140 982 l 1,5,-1
 430 1120 l 1,6,-1
 440 1120 l 1,7,-1
 440 258 l 2,8,9
 440 198 440 198 491 158 c 0,10,11
 541 120 541 120 615.5 120 c 128,-1,12
 690 120 690 120 741 159 c 0,13,14
 790 198 790 198 790 258 c 2,15,-1
 790 982 l 1,16,-1
 1080 1120 l 1,17,-1
 1090 1120 l 1,18,-1
 1090 24 l 2,19,20
 1090 -168 1090 -168 950 -289 c 0,21,22
 809 -410 809 -410 615 -410 c 2,23,-1
 280 -410 l 1,24,-1
 280 -400 l 1,25,-1
 342 -270 l 1,26,-1
 615 -270 l 2,27,28
 692 -270 692 -270 741 -229 c 128,-1,29
 790 -188 790 -188 790 -125 c 2,30,-1
 790 28 l 1,31,32
 715 -20 715 -20 614 -20 c 0,0,1
EndSplineSet
Validated: 1
EndChar

StartChar: z
Encoding: 122 122 91
Width: 974
GlyphClass: 2
Flags: W
HStem: 0 140<405 902> 960 140<104 570>
DStem2: 10 10 405 140 0.507812 0.861468<312.577 1102.77>
LayerCount: 2
Fore
SplineSet
10 0 m 1,0,-1
 10 10 l 1,1,-1
 570 960 l 1,2,-1
 42 960 l 1,3,-1
 42 970 l 1,4,-1
 104 1100 l 1,5,-1
 964 1100 l 1,6,-1
 964 1090 l 1,7,-1
 405 140 l 1,8,-1
 964 140 l 1,9,-1
 964 130 l 1,10,-1
 902 0 l 1,11,-1
 10 0 l 1,0,-1
EndSplineSet
Validated: 1
EndChar

StartChar: braceleft
Encoding: 123 123 92
Width: 830
GlyphClass: 2
Flags: W
HStem: -240 150<647.16 800> 680 150<77 234> 1599 151<647.611 800>
VStem: 234 320<67.3667 680 830 1444.73>
LayerCount: 2
Fore
SplineSet
800 -240 m 1,0,1
 566 -240 566 -240 400 -93 c 0,2,3
 234 55 234 55 234 274 c 2,4,-1
 234 680 l 1,5,-1
 10 680 l 1,6,-1
 10 690 l 1,7,-1
 77 830 l 1,8,-1
 234 830 l 1,9,-1
 234 1236 l 2,10,11
 234 1458 234 1458 400 1604 c 0,12,13
 567 1750 567 1750 800 1750 c 1,14,-1
 800 1599 l 1,15,16
 697 1598 697 1598 626 1542 c 0,17,18
 554 1484 554 1484 554 1398 c 2,19,-1
 554 112 l 2,20,21
 554 24 554 24 626 -34 c 0,22,23
 696 -90 696 -90 800 -90 c 1,24,-1
 800 -240 l 1,0,1
EndSplineSet
Validated: 1
EndChar

StartChar: bar
Encoding: 124 124 93
Width: 690
GlyphClass: 2
Flags: W
VStem: 210 270<-76 1586>
LayerCount: 2
Fore
SplineSet
210 -200 m 1,0,-1
 210 1586 l 1,1,-1
 470 1710 l 1,2,-1
 480 1710 l 1,3,-1
 480 -76 l 1,4,-1
 220 -200 l 1,5,-1
 210 -200 l 1,0,-1
EndSplineSet
Validated: 1
EndChar

StartChar: braceright
Encoding: 125 125 94
Width: 830
GlyphClass: 2
Flags: W
HStem: -240 151<30 182.389> 680 150<596 753> 1600 150<30 182.84>
VStem: 276 320<64.769 680 830 1443.47>
LayerCount: 2
Fore
SplineSet
30 -240 m 1,0,-1
 30 -89 l 1,1,2
 133 -88 133 -88 204 -32 c 0,3,4
 276 26 276 26 276 112 c 2,5,-1
 276 1398 l 2,6,7
 276 1486 276 1486 204 1544 c 0,8,9
 134 1600 134 1600 30 1600 c 1,10,-1
 30 1750 l 1,11,12
 264 1750 264 1750 430 1603 c 128,-1,13
 596 1456 596 1456 596 1236 c 2,14,-1
 596 830 l 1,15,-1
 820 830 l 1,16,-1
 820 820 l 1,17,-1
 753 680 l 1,18,-1
 596 680 l 1,19,-1
 596 274 l 2,20,21
 596 51 596 51 430 -94 c 0,22,23
 263 -240 263 -240 30 -240 c 1,0,-1
EndSplineSet
Validated: 1
EndChar

StartChar: asciitilde
Encoding: 126 126 95
Width: 1178
GlyphClass: 2
Flags: W
HStem: 515 212<729.113 890.449> 785 212<287.551 448.887>
VStem: 110 148<580 758.707> 920 148<753.293 932>
LayerCount: 2
Fore
SplineSet
426 997 m 0,0,1
 607 997 607 997 686 844 c 0,2,3
 717 783 717 783 736 763 c 0,4,5
 768 727 768 727 816 727 c 0,6,7
 920 727 920 727 920 932 c 1,8,-1
 1058 997 l 1,9,-1
 1068 997 l 1,10,11
 1068 515 1068 515 752 515 c 0,12,13
 571 515 571 515 492 668 c 0,14,15
 461 729 461 729 442 749 c 0,16,17
 410 785 410 785 362 785 c 0,18,19
 258 785 258 785 258 580 c 1,20,-1
 120 515 l 1,21,-1
 110 515 l 1,22,23
 110 997 110 997 426 997 c 0,0,1
EndSplineSet
Validated: 1
EndChar

StartChar: exclamdown
Encoding: 161 161 97
Width: 640
GlyphClass: 2
Flags: W
HStem: -430 21G<160 212.177> 755 365<203.122 437.869>
VStem: 140 360<817.422 1057.43> 160 320<-283 558>
LayerCount: 2
Fore
SplineSet
170 -430 m 1,0,-1
 160 -430 l 1,1,-1
 160 558 l 1,2,-1
 470 705 l 1,3,-1
 480 705 l 1,4,-1
 480 -283 l 1,5,-1
 170 -430 l 1,0,-1
320 1120 m 0,6,7
 396 1120 396 1120 448 1066 c 128,-1,8
 500 1012 500 1012 500 938 c 0,9,10
 500 862 500 862 448 809 c 0,11,12
 395 755 395 755 320 755 c 128,-1,13
 245 755 245 755 192.5 808.5 c 128,-1,14
 140 862 140 862 140 937 c 128,-1,15
 140 1012 140 1012 193 1066 c 128,-1,16
 246 1120 246 1120 320 1120 c 0,6,7
EndSplineSet
Validated: 1
EndChar

StartChar: cent
Encoding: 162 162 98
Width: 1110
GlyphClass: 2
Flags: W
VStem: 120 310<220.152 881.641> 535 120<-69 -10.7795 129 970 1111.34 1169> 755 315<222.556 320 778.467 866.657>
LayerCount: 2
Fore
SplineSet
655 -69 m 1,0,-1
 545 -120 l 1,1,-1
 535 -120 l 1,2,-1
 535 -17 l 1,3,4
 378 -1 378 -1 260 102 c 0,5,6
 120 225 120 225 120 403 c 2,7,-1
 120 697 l 2,8,9
 120 878 120 878 260 999 c 0,10,11
 378 1101 378 1101 535 1117 c 1,12,-1
 535 1169 l 1,13,-1
 645 1220 l 1,14,-1
 655 1220 l 1,15,-1
 655 1117 l 1,16,17
 811 1100 811 1100 929 993 c 0,18,19
 1027 904 1027 904 1057 785 c 1,20,-1
 765 646 l 1,21,-1
 755 646 l 1,22,-1
 755 842 l 2,23,24
 755 906 755 906 709 942 c 0,25,26
 684 961 684 961 655 970 c 1,27,-1
 655 129 l 1,28,29
 685 139 685 139 711 159 c 0,30,31
 755 194 755 194 755 258 c 2,32,-1
 755 320 l 1,33,-1
 1060 465 l 1,34,-1
 1070 465 l 1,35,-1
 1070 410 l 2,36,37
 1070 226 1070 226 930 103 c 0,38,39
 812 -1 812 -1 655 -17 c 1,40,-1
 655 -69 l 1,0,-1
535 128 m 1,41,-1
 535 972 l 1,42,43
 502 962 502 962 474 941 c 0,44,45
 430 906 430 906 430 842 c 2,46,-1
 430 258 l 2,47,48
 430 194 430 194 476 158 c 0,49,50
 503 138 503 138 535 128 c 1,41,-1
EndSplineSet
Validated: 1
EndChar

StartChar: sterling
Encoding: 163 163 99
Width: 1375
GlyphClass: 2
Flags: W
HStem: 0 150<177 260 580 1198> 625 150<178 260 580 927> 1402 128<621.133 840.564>
VStem: 260 320<150 625 775 1316.14>
LayerCount: 2
Fore
SplineSet
110 0 m 1,0,-1
 110 10 l 1,1,-1
 177 150 l 1,2,-1
 260 150 l 1,3,-1
 260 625 l 1,4,-1
 111 625 l 1,5,-1
 111 635 l 1,6,-1
 178 775 l 1,7,-1
 260 775 l 1,8,-1
 260 1119 l 2,9,10
 260 1323 260 1323 401 1427 c 0,11,12
 542 1530 542 1530 733 1530 c 0,13,14
 923 1530 923 1530 1063 1426 c 0,15,16
 1175 1342 1175 1342 1201 1194 c 1,17,-1
 885 1045 l 1,18,-1
 875 1045 l 1,19,-1
 875 1253 l 2,20,21
 875 1336 875 1336 835.5 1369 c 128,-1,22
 796 1402 796 1402 735 1402 c 0,23,24
 667 1402 667 1402 628 1372 c 0,25,26
 580 1335 580 1335 580 1253 c 2,27,-1
 580 775 l 1,28,-1
 995 775 l 1,29,-1
 995 765 l 1,30,-1
 927 625 l 1,31,-1
 580 625 l 1,32,-1
 580 150 l 1,33,-1
 1265 150 l 1,34,-1
 1265 140 l 1,35,-1
 1198 0 l 1,36,-1
 110 0 l 1,0,-1
EndSplineSet
Validated: 1
EndChar

StartChar: currency
Encoding: 164 164 100
Width: 1535
GlyphClass: 2
Flags: W
HStem: 180 150<627.659 900.639> 1177 151<629.446 904.664>
VStem: 203 312<527.751 981.496> 1017 312<527.017 983.463>
LayerCount: 2
Fore
SplineSet
768 1177 m 0,0,1
 651 1177 651 1177 586 1086 c 0,2,3
 515 987 515 987 515 754 c 0,4,5
 515 528 515 528 585 422 c 0,6,7
 645 330 645 330 764 330 c 128,-1,8
 883 330 883 330 946 422 c 0,9,10
 1017 522 1017 522 1017 754 c 0,11,12
 1017 978 1017 978 946 1086 c 0,13,14
 886 1177 886 1177 768 1177 c 0,0,1
1418 1215 m 1,15,-1
 1425 1208 l 1,16,-1
 1257 1040 l 1,17,18
 1329 913 1329 913 1329 756 c 128,-1,19
 1329 599 1329 599 1258 472 c 1,20,-1
 1425 305 l 1,21,-1
 1418 298 l 1,22,-1
 1112 190 l 1,23,-1
 1048 254 l 1,24,25
 921 180 921 180 764 180 c 128,-1,26
 607 180 607 180 476 260 c 1,27,-1
 423 206 l 1,28,-1
 117 314 l 1,29,-1
 110 321 l 1,30,-1
 270 480 l 1,31,32
 203 604 203 604 203 758.5 c 128,-1,33
 203 913 203 913 277 1041 c 1,34,-1
 110 1209 l 1,35,-1
 117 1216 l 1,36,-1
 421 1323 l 1,37,-1
 489 1256 l 1,38,39
 614 1328 614 1328 767 1328 c 128,-1,40
 920 1328 920 1328 1044 1255 c 1,41,-1
 1113 1323 l 1,42,-1
 1418 1215 l 1,15,-1
EndSplineSet
Validated: 1
EndChar

StartChar: yen
Encoding: 165 165 101
Width: 1270
GlyphClass: 2
Flags: W
HStem: -20 21G<475 527.105> 94 140<271 475 795 999> 294 140<271 376 891 999> 1510 20G<347.823 400 1137.82 1190>
VStem: 80 320<683.533 1383> 870 320<682.269 1383>
LayerCount: 2
Fore
SplineSet
485 -20 m 1,0,-1
 475 -20 l 1,1,-1
 475 94 l 1,2,-1
 210 94 l 1,3,-1
 210 104 l 1,4,-1
 271 234 l 1,5,-1
 475 234 l 1,6,-1
 475 294 l 1,7,-1
 210 294 l 1,8,-1
 210 304 l 1,9,-1
 271 434 l 1,10,-1
 376 434 l 1,11,12
 306 468 306 468 244 524 c 0,13,14
 80 671 80 671 80 891 c 2,15,-1
 80 1383 l 1,16,-1
 390 1530 l 1,17,-1
 400 1530 l 1,18,-1
 400 735 l 2,19,20
 400 652 400 652 472 585 c 0,21,22
 534 527 534 527 635 527 c 128,-1,23
 736 527 736 527 803 586 c 128,-1,24
 870 645 870 645 870 735 c 2,25,-1
 870 1383 l 1,26,-1
 1180 1530 l 1,27,-1
 1190 1530 l 1,28,-1
 1190 891 l 2,29,30
 1190 669 1190 669 1024 523 c 0,31,32
 962 468 962 468 891 434 c 1,33,-1
 1060 434 l 1,34,-1
 1060 424 l 1,35,-1
 999 294 l 1,36,-1
 795 294 l 1,37,-1
 795 234 l 1,38,-1
 1060 234 l 1,39,-1
 1060 224 l 1,40,-1
 999 94 l 1,41,-1
 725 94 l 1,42,-1
 485 -20 l 1,0,-1
EndSplineSet
Validated: 1
EndChar

StartChar: brokenbar
Encoding: 166 166 102
Width: 690
GlyphClass: 2
Flags: W
VStem: 210 270<-76 589 913 1586>
LayerCount: 2
Fore
SplineSet
210 -200 m 1,0,-1
 210 589 l 1,1,-1
 470 713 l 1,2,-1
 480 713 l 1,3,-1
 480 -76 l 1,4,-1
 220 -200 l 1,5,-1
 210 -200 l 1,0,-1
470 1710 m 1,6,-1
 480 1710 l 1,7,-1
 480 913 l 1,8,-1
 220 789 l 1,9,-1
 210 789 l 1,10,-1
 210 1586 l 1,11,-1
 470 1710 l 1,6,-1
EndSplineSet
Validated: 1
EndChar

StartChar: section
Encoding: 167 167 103
Width: 1127
GlyphClass: 2
Flags: W
HStem: -20 140<486.081 650.221> 1390 140<476.779 640.919>
VStem: 110 298<642.921 837.168> 176 274<1091.06 1359.92> 677 274<150.078 418.937> 719 298<672.832 867.079>
LayerCount: 2
Fore
SplineSet
559 -20 m 0,0,1
 397 -20 397 -20 291 77 c 0,2,3
 212 149 212 149 185 246 c 1,4,-1
 447 371 l 1,5,-1
 457 371 l 1,6,-1
 457 274 l 2,7,8
 457 206 457 206 484 167 c 0,9,10
 516 120 516 120 571 120 c 0,11,12
 619 120 619 120 648 157 c 128,-1,13
 677 194 677 194 677 281 c 0,14,15
 677 383 677 383 635 418 c 0,16,17
 604 444 604 444 524 449 c 0,18,19
 308 463 308 463 211 537 c 0,20,21
 110 614 110 614 110 742 c 0,22,23
 110 860 110 860 176 947 c 1,24,-1
 410 831 l 1,25,26
 408 811 408 811 408 788 c 0,27,28
 408 676 408 676 469 628 c 0,29,30
 511 594 511 594 580 589 c 0,31,32
 745 577 745 577 837 515 c 0,33,34
 951 439 951 439 951 291 c 0,35,36
 951 148 951 148 838.5 64 c 128,-1,37
 726 -20 726 -20 559 -20 c 0,0,1
568 1530 m 0,38,39
 730 1530 730 1530 836 1433 c 0,40,41
 915 1361 915 1361 942 1264 c 1,42,-1
 680 1139 l 1,43,-1
 670 1139 l 1,44,-1
 670 1236 l 2,45,46
 670 1304 670 1304 643 1343 c 0,47,48
 611 1390 611 1390 556 1390 c 0,49,50
 508 1390 508 1390 479 1353 c 128,-1,51
 450 1316 450 1316 450 1229 c 0,52,53
 450 1127 450 1127 492 1092 c 0,54,55
 523 1066 523 1066 603 1061 c 0,56,57
 819 1047 819 1047 916 973 c 0,58,59
 1017 896 1017 896 1017 768 c 0,60,61
 1017 650 1017 650 951 563 c 1,62,-1
 717 679 l 1,63,64
 719 699 719 699 719 722 c 0,65,66
 719 834 719 834 658 882 c 0,67,68
 616 916 616 916 547 921 c 0,69,70
 382 933 382 933 290 995 c 0,71,72
 176 1071 176 1071 176 1219 c 0,73,74
 176 1362 176 1362 288.5 1446 c 128,-1,75
 401 1530 401 1530 568 1530 c 0,38,39
EndSplineSet
Validated: 1
EndChar

StartChar: dieresis
Encoding: 168 168 104
Width: 690
GlyphClass: 2
Flags: W
HStem: 1210 297<73.8326 277.652 411.833 616.167>
VStem: 30 292<1255.38 1461.62> 368 292<1255.38 1461.62>
LayerCount: 2
Fore
SplineSet
514.5 1507 m 128,-1,1
 575 1507 575 1507 617.5 1463 c 128,-1,2
 660 1419 660 1419 660 1358.5 c 128,-1,3
 660 1298 660 1298 617.5 1254 c 128,-1,4
 575 1210 575 1210 514 1210 c 128,-1,5
 453 1210 453 1210 410.5 1254 c 128,-1,6
 368 1298 368 1298 368 1358 c 0,7,8
 368 1419 368 1419 411 1462 c 0,9,0
 454 1507 454 1507 514.5 1507 c 128,-1,1
175.5 1507 m 128,-1,11
 236 1507 236 1507 279 1463 c 128,-1,12
 322 1419 322 1419 322 1358.5 c 128,-1,13
 322 1298 322 1298 279 1254 c 128,-1,14
 236 1210 236 1210 176 1210 c 0,15,16
 115 1210 115 1210 72.5 1254 c 128,-1,17
 30 1298 30 1298 30 1358 c 0,18,19
 30 1419 30 1419 72 1462 c 0,20,10
 115 1507 115 1507 175.5 1507 c 128,-1,11
EndSplineSet
Validated: 1
EndChar

StartChar: copyright
Encoding: 169 169 105
Width: 1321
GlyphClass: 2
Flags: W
HStem: 386 48<505.181 810.676> 544 96<586.612 743.232> 1263 95<586.807 744.588> 1478 52<504.168 816.773>
VStem: 110 50<794.694 1125.05> 364 205<673.344 1229.41> 761 209<675.114 785> 1160 51<785.868 1126.58>
LayerCount: 2
Fore
SplineSet
667 1358 m 0,0,1
 795 1358 795 1358 880 1277 c 0,2,3
 944 1216 944 1216 968 1114 c 1,4,-1
 771 1036 l 1,5,-1
 761 1036 l 1,6,-1
 761 1183 l 2,7,8
 761 1219 761 1219 736.5 1241 c 128,-1,9
 712 1263 712 1263 666 1263 c 128,-1,10
 620 1263 620 1263 594.5 1241 c 128,-1,11
 569 1219 569 1219 569 1183 c 2,12,-1
 569 720 l 2,13,14
 569 684 569 684 594.5 662 c 128,-1,15
 620 640 620 640 666 640 c 128,-1,16
 712 640 712 640 736.5 662 c 128,-1,17
 761 684 761 684 761 720 c 2,18,-1
 761 785 l 1,19,-1
 960 873 l 1,20,-1
 970 873 l 1,21,-1
 970 825 l 2,22,23
 970 704 970 704 880 624 c 128,-1,24
 790 544 790 544 666 544 c 128,-1,25
 542 544 542 544 453 623 c 128,-1,26
 364 702 364 702 364 820 c 2,27,-1
 364 1083 l 2,28,29
 364 1201 364 1201 453 1279.5 c 128,-1,30
 542 1358 542 1358 667 1358 c 0,0,1
661 1530 m 0,31,32
 903 1530 903 1530 1059 1357 c 0,33,34
 1211 1188 1211 1188 1211 953 c 0,35,36
 1211 701 1211 701 1050 549 c 0,37,38
 879 386 879 386 659 386 c 0,39,40
 436 386 436 386 271 549 c 0,41,42
 110 708 110 708 110 953 c 0,43,44
 110 1197 110 1197 268 1362 c 0,45,46
 429 1530 429 1530 661 1530 c 0,31,32
659 1478 m 0,47,48
 459 1478 459 1478 310 1330 c 0,49,50
 160 1181 160 1181 160 953 c 0,51,52
 160 750 160 750 307 587 c 0,53,54
 445 434 445 434 661 434 c 0,55,56
 862 434 862 434 1014 587 c 0,57,58
 1160 734 1160 734 1160 953 c 0,59,60
 1160 1185 1160 1185 1016 1327 c 0,61,62
 863 1478 863 1478 659 1478 c 0,47,48
EndSplineSet
Validated: 1
EndChar

StartChar: ordfeminine
Encoding: 170 170 106
Width: 581
GlyphClass: 2
Flags: W
HStem: 733 180<101 470> 969 66<217.386 348.74> 1239 106<216.474 348.247> 1486 84<207 345.125>
VStem: 50 150<1048.68 1228.68> 364 187<1053.51 1220.94 1335 1471.66>
LayerCount: 2
Fore
SplineSet
101 913 m 1,0,-1
 551 913 l 1,1,-1
 551 903 l 1,2,-1
 470 733 l 1,3,-1
 20 733 l 1,4,-1
 20 743 l 1,5,-1
 101 913 l 1,0,-1
200 1177 m 0,6,7
 200 1070 200 1070 222 1052 c 0,8,9
 243 1035 243 1035 282.5 1035 c 128,-1,10
 322 1035 322 1035 344 1053 c 0,11,12
 364 1069 364 1069 364 1136.5 c 128,-1,13
 364 1204 364 1204 340.5 1221.5 c 128,-1,14
 317 1239 317 1239 281 1239 c 0,15,16
 252 1239 252 1239 228 1225 c 0,17,18
 200 1208 200 1208 200 1177 c 0,6,7
371 969 m 1,19,-1
 361 969 l 1,20,-1
 361 983 l 1,21,22
 325 969 325 969 280 969 c 0,23,24
 189 969 189 969 119 1022 c 0,25,26
 50 1075 50 1075 50 1158 c 0,27,28
 50 1253 50 1253 131 1305 c 0,29,30
 193 1345 193 1345 273 1345 c 0,31,32
 320 1345 320 1345 362 1335 c 1,33,34
 362 1486 362 1486 294 1486 c 2,35,-1
 146 1486 l 1,36,-1
 146 1496 l 1,37,-1
 207 1570 l 1,38,-1
 294 1570 l 2,39,40
 400 1570 400 1570 476 1504 c 0,41,42
 551 1439 551 1439 551 1340 c 2,43,-1
 551 1040 l 1,44,-1
 371 969 l 1,19,-1
EndSplineSet
Validated: 1
EndChar

StartChar: guillemotleft
Encoding: 171 171 107
Width: 1292
GlyphClass: 2
Flags: W
DStem2: 348 881 110 755 0.506363 -0.862321<0 570.906> 110 755 348 881 0.507932 0.861397<229.424 718.6> 829 881 591 755 0.506363 -0.862321<0 570.906> 591 755 829 881 0.507932 0.861397<229.424 718.6>
LayerCount: 2
Fore
SplineSet
591 755 m 1,0,-1
 956 1374 l 1,1,-1
 966 1374 l 1,2,-1
 1085 1317 l 1,3,-1
 829 881 l 1,4,-1
 1132 365 l 1,5,-1
 897 253 l 1,6,-1
 887 253 l 1,7,-1
 591 755 l 1,0,-1
110 755 m 1,8,-1
 475 1374 l 1,9,-1
 485 1374 l 1,10,-1
 604 1317 l 1,11,-1
 348 881 l 1,12,-1
 651 365 l 1,13,-1
 416 253 l 1,14,-1
 406 253 l 1,15,-1
 110 755 l 1,8,-1
EndSplineSet
Validated: 1
EndChar

StartChar: logicalnot
Encoding: 172 172 108
Width: 1240
GlyphClass: 2
Flags: W
HStem: 620 270<235 759>
LayerCount: 2
Fore
SplineSet
235 890 m 1,0,-1
 1130 890 l 1,1,-1
 1130 880 l 1,2,-1
 879 358 l 1,3,-1
 633 358 l 1,4,-1
 759 620 l 1,5,-1
 110 620 l 1,6,-1
 110 630 l 1,7,-1
 235 890 l 1,0,-1
EndSplineSet
Validated: 1
EndChar

StartChar: uni00AD
Encoding: 173 173 109
Width: 1240
GlyphClass: 2
Flags: W
HStem: 620 270<235 1005>
LayerCount: 2
Fore
SplineSet
235 890 m 1,0,-1
 1130 890 l 1,1,-1
 1130 880 l 1,2,-1
 1005 620 l 1,3,-1
 110 620 l 1,4,-1
 110 630 l 1,5,-1
 235 890 l 1,0,-1
EndSplineSet
Validated: 1
EndChar

StartChar: registered
Encoding: 174 174 110
Width: 1321
GlyphClass: 2
Flags: W
HStem: 386 48<505.181 810.676> 778 97<588 662> 1259 96<588 725.153> 1478 52<504.168 816.773>
VStem: 110 50<794.694 1125.05> 388 200<623 778 875 1259> 763 204<912.846 1220.65> 1160 51<785.868 1126.58>
LayerCount: 2
Fore
SplineSet
398 548 m 1,0,-1
 388 548 l 1,1,-1
 388 1278 l 1,2,-1
 562 1355 l 1,3,-1
 671 1355 l 2,4,5
 799 1355 799 1355 883 1270 c 128,-1,6
 967 1185 967 1185 967 1066.5 c 128,-1,7
 967 948 967 948 883 863 c 0,8,9
 874 854 874 854 865 847 c 1,10,-1
 1027 624 l 1,11,-1
 835 548 l 1,12,-1
 825 548 l 1,13,-1
 662 778 l 1,14,-1
 588 778 l 1,15,-1
 588 623 l 1,16,-1
 398 548 l 1,0,-1
588 875 m 1,17,-1
 659 875 l 2,18,19
 699 875 699 875 726 904 c 0,20,21
 763 944 763 944 763 1067 c 128,-1,22
 763 1190 763 1190 726 1230 c 0,23,24
 699 1259 699 1259 659 1259 c 2,25,-1
 588 1259 l 1,26,-1
 588 875 l 1,17,-1
661 1530 m 0,27,28
 903 1530 903 1530 1059 1357 c 0,29,30
 1211 1188 1211 1188 1211 953 c 0,31,32
 1211 701 1211 701 1050 549 c 0,33,34
 879 386 879 386 659 386 c 0,35,36
 436 386 436 386 271 549 c 0,37,38
 110 708 110 708 110 953 c 0,39,40
 110 1197 110 1197 268 1362 c 0,41,42
 429 1530 429 1530 661 1530 c 0,27,28
659 1478 m 0,43,44
 459 1478 459 1478 310 1330 c 0,45,46
 160 1181 160 1181 160 953 c 0,47,48
 160 750 160 750 307 587 c 0,49,50
 445 434 445 434 661 434 c 0,51,52
 862 434 862 434 1014 587 c 0,53,54
 1160 734 1160 734 1160 953 c 0,55,56
 1160 1185 1160 1185 1016 1327 c 0,57,58
 863 1478 863 1478 659 1478 c 0,43,44
EndSplineSet
Validated: 1
EndChar

StartChar: macron
Encoding: 175 175 111
Width: 680
GlyphClass: 2
Flags: W
HStem: 1288 190<116 564>
VStem: 30 620
LayerCount: 2
Fore
SplineSet
116 1478 m 1,0,-1
 650 1478 l 1,1,-1
 650 1468 l 1,2,-1
 564 1288 l 1,3,-1
 30 1288 l 1,4,-1
 30 1298 l 1,5,-1
 116 1478 l 1,0,-1
EndSplineSet
Validated: 1
EndChar

StartChar: degree
Encoding: 176 176 112
Width: 730
GlyphClass: 2
Flags: W
HStem: 895 95<273.116 456.917> 1476 94<273.793 457.368>
VStem: 30 207<1064.08 1402.14> 493 207<1062.23 1401.64>
LayerCount: 2
Fore
SplineSet
366 1476 m 128,-1,1
 311 1476 311 1476 274 1433 c 128,-1,2
 237 1390 237 1390 237 1233 c 128,-1,3
 237 1076 237 1076 274 1033 c 128,-1,4
 311 990 311 990 366 990 c 128,-1,5
 421 990 421 990 457 1033 c 128,-1,6
 493 1076 493 1076 493 1233 c 128,-1,7
 493 1390 493 1390 457 1433 c 128,-1,0
 421 1476 421 1476 366 1476 c 128,-1,1
365 1570 m 0,8,9
 506 1570 506 1570 602 1471 c 0,10,11
 700 1371 700 1371 700 1232 c 0,12,13
 700 1092 700 1092 602 994 c 0,14,15
 504 895 504 895 365 895 c 0,16,17
 224 895 224 895 128 994 c 0,18,19
 30 1095 30 1095 30 1233 c 0,20,21
 30 1373 30 1373 128 1471 c 0,22,23
 227 1570 227 1570 365 1570 c 0,8,9
EndSplineSet
Validated: 1
EndChar

StartChar: plusminus
Encoding: 177 177 113
Width: 1240
GlyphClass: 2
Flags: W
HStem: 154 270<235 1005> 828 270<235 485 755 1005>
VStem: 485 270<578 828 1098 1348>
LayerCount: 2
Fore
SplineSet
235 424 m 1,0,-1
 1130 424 l 1,1,-1
 1130 414 l 1,2,-1
 1005 154 l 1,3,-1
 110 154 l 1,4,-1
 110 164 l 1,5,-1
 235 424 l 1,0,-1
745 1473 m 1,6,-1
 755 1473 l 1,7,-1
 755 1098 l 1,8,-1
 1130 1098 l 1,9,-1
 1130 1088 l 1,10,-1
 1005 828 l 1,11,-1
 755 828 l 1,12,-1
 755 578 l 1,13,-1
 495 453 l 1,14,-1
 485 453 l 1,15,-1
 485 828 l 1,16,-1
 110 828 l 1,17,-1
 110 838 l 1,18,-1
 235 1098 l 1,19,-1
 485 1098 l 1,20,-1
 485 1348 l 1,21,-1
 745 1473 l 1,6,-1
EndSplineSet
Validated: 1
EndChar

StartChar: uni00B2
Encoding: 178 178 114
Width: 671
GlyphClass: 2
Flags: W
HStem: 764 191<282 569> 1475 95<256.682 411.328>
VStem: 35 200<1221.43 1446.96> 437 203<1180.52 1448.51>
LayerCount: 2
Fore
SplineSet
338 1570 m 0,0,1
 476 1570 476 1570 563 1492 c 0,2,3
 640 1423 640 1423 640 1317 c 0,4,5
 640 1152 640 1152 464 1055 c 2,6,-1
 282 955 l 1,7,-1
 641 955 l 1,8,-1
 641 945 l 1,9,-1
 569 764 l 1,10,-1
 30 764 l 1,11,-1
 30 774 l 1,12,-1
 115 966 l 1,13,-1
 310 1100 l 2,14,15
 437 1187 437 1187 437 1328 c 0,16,17
 437 1406 437 1406 408 1443 c 0,18,19
 383 1475 383 1475 333 1475 c 0,20,21
 286 1475 286 1475 260 1443 c 0,22,23
 235 1412 235 1412 235 1339 c 0,24,25
 235 1279 235 1279 262 1234 c 1,26,-1
 88 1165 l 1,27,-1
 78 1165 l 1,28,29
 35 1229 35 1229 35 1318 c 0,30,31
 35 1423 35 1423 122 1495 c 0,32,33
 213 1570 213 1570 338 1570 c 0,0,1
EndSplineSet
Validated: 1
EndChar

StartChar: uni00B3
Encoding: 179 179 115
Width: 661
GlyphClass: 2
Flags: W
HStem: 753 96<256.994 399.428> 1464 96<126 355>
VStem: 30 196<879.516 990.32> 424 207<882.564 1174.25>
LayerCount: 2
Fore
SplineSet
126 1560 m 1,0,-1
 624 1560 l 1,1,-1
 432 1275 l 1,2,3
 510 1255 510 1255 557 1210 c 0,4,5
 631 1140 631 1140 631 1026 c 0,6,7
 631 914 631 914 547 833 c 0,8,9
 463 753 463 753 326 753 c 0,10,11
 187 753 187 753 115 829 c 0,12,13
 43 904 43 904 30 984 c 1,14,-1
 216 1066 l 1,15,-1
 226 1066 l 1,16,17
 226 849 226 849 330 849 c 0,18,19
 371 849 371 849 397 883 c 0,20,21
 424 918 424 918 424 1034 c 0,22,23
 424 1135 424 1135 398 1175 c 128,-1,24
 372 1215 372 1215 315 1215 c 0,25,26
 273 1215 273 1215 242 1195 c 1,27,-1
 212 1228 l 1,28,-1
 355 1464 l 1,29,-1
 85 1464 l 1,30,-1
 85 1474 l 1,31,-1
 126 1560 l 1,0,-1
EndSplineSet
Validated: 1
EndChar

StartChar: acute
Encoding: 180 180 116
Width: 405
GlyphClass: 2
Flags: W
HStem: 1160 410
VStem: 30 345
DStem2: 30 1244 218 1160 0.429396 0.903116<4.86464 360.972>
LayerCount: 2
Fore
SplineSet
195 1570 m 1,0,-1
 375 1485 l 1,1,-1
 218 1160 l 1,2,-1
 208 1160 l 1,3,-1
 30 1244 l 1,4,-1
 185 1570 l 1,5,-1
 195 1570 l 1,0,-1
EndSplineSet
Validated: 1
EndChar

StartChar: uni00B5
Encoding: 181 181 117
Width: 1230
GlyphClass: 2
Flags: W
HStem: -430 21G<140 192.029> -20 141<488.992 740.497> 1100 20G<387.971 440 1037.97 1090>
VStem: 140 300<-292 28 166.654 982> 790 300<218.359 982>
LayerCount: 2
Fore
SplineSet
150 -430 m 1,0,-1
 140 -430 l 1,1,-1
 140 982 l 1,2,-1
 430 1120 l 1,3,-1
 440 1120 l 1,4,-1
 440 266 l 2,5,6
 440 202 440 202 490.5 161.5 c 128,-1,7
 541 121 541 121 615.5 121 c 128,-1,8
 690 121 690 121 740 162 c 128,-1,9
 790 203 790 203 790 265 c 2,10,-1
 790 982 l 1,11,-1
 1080 1120 l 1,12,-1
 1090 1120 l 1,13,-1
 1090 403 l 2,14,15
 1090 222 1090 222 950 101 c 128,-1,16
 810 -20 810 -20 615 -20 c 0,17,18
 513 -20 513 -20 440 28 c 1,19,-1
 440 -292 l 1,20,-1
 150 -430 l 1,0,-1
EndSplineSet
Validated: 1
EndChar

StartChar: paragraph
Encoding: 182 182 118
Width: 1220
GlyphClass: 2
Flags: W
HStem: -20 21G<740 792.308> 428 1102<383.027 734.713>
VStem: 740 120<32 451> 944 116<127 1142.88>
LayerCount: 2
Fore
SplineSet
740 -20 m 1,0,-1
 740 451 l 1,1,2
 667 428 667 428 585 428 c 0,3,4
 390 428 390 428 250 562.5 c 128,-1,5
 110 697 110 697 110 896 c 2,6,-1
 110 1062 l 2,7,8
 110 1263 110 1263 250 1396 c 0,9,10
 391 1530 391 1530 586 1530 c 0,11,12
 780 1530 780 1530 920 1404 c 0,13,14
 1060 1277 1060 1277 1060 1092 c 2,15,-1
 1060 127 l 1,16,-1
 944 72 l 1,17,-1
 944 1144 l 1,18,-1
 860 1106 l 1,19,-1
 860 32 l 1,20,-1
 750 -20 l 1,21,-1
 740 -20 l 1,0,-1
EndSplineSet
Validated: 1
EndChar

StartChar: periodcentered
Encoding: 183 183 119
Width: 420
GlyphClass: 2
Flags: W
HStem: 573 365<92.1309 326.878>
VStem: 30 360<635.566 875.578>
LayerCount: 2
Fore
SplineSet
210 938 m 128,-1,1
 285 938 285 938 337.5 884.5 c 128,-1,2
 390 831 390 831 390 756 c 128,-1,3
 390 681 390 681 337 627 c 128,-1,4
 284 573 284 573 210 573 c 0,5,6
 134 573 134 573 82 627 c 128,-1,7
 30 681 30 681 30 755 c 0,8,9
 30 831 30 831 82 884 c 0,10,0
 135 938 135 938 210 938 c 128,-1,1
EndSplineSet
Validated: 1
EndChar

StartChar: cedilla
Encoding: 184 184 120
Width: 440
GlyphClass: 2
Flags: W
HStem: -410 410 -20 20G<136 299>
VStem: 136 163<-61.7314 0> 202 208<-207.507 -85.3716>
LayerCount: 2
Fore
SplineSet
30 -410 m 1,0,-1
 30 -400 l 1,1,-1
 116 -220 l 1,2,3
 202 -204 202 -204 202 -145 c 0,4,5
 202 -100 202 -100 136 -76 c 1,6,-1
 136 0 l 1,7,-1
 299 0 l 1,8,-1
 299 -40 l 1,9,10
 410 -83 410 -83 410 -187 c 0,11,12
 410 -410 410 -410 30 -410 c 1,0,-1
EndSplineSet
Validated: 1
EndChar

StartChar: uni00B9
Encoding: 185 185 121
Width: 412
GlyphClass: 2
Flags: W
VStem: 152 200<831 1389>
LayerCount: 2
Fore
SplineSet
342 1570 m 1,0,-1
 352 1570 l 1,1,-1
 352 831 l 1,2,-1
 162 756 l 1,3,-1
 152 756 l 1,4,-1
 152 1389 l 1,5,-1
 30 1337 l 1,6,-1
 30 1432 l 1,7,-1
 342 1570 l 1,0,-1
EndSplineSet
Validated: 1
EndChar

StartChar: ordmasculine
Encoding: 186 186 122
Width: 594
GlyphClass: 2
Flags: W
HStem: 733 180<101 483> 961 90<250.396 364.892> 1480 90<250.477 363.189>
VStem: 50 190<1065.95 1464.53> 374 190<1066.47 1465.05>
LayerCount: 2
Fore
SplineSet
101 913 m 1,0,-1
 564 913 l 1,1,-1
 564 903 l 1,2,-1
 483 733 l 1,3,-1
 20 733 l 1,4,-1
 20 743 l 1,5,-1
 101 913 l 1,0,-1
306.5 1480 m 128,-1,7
 276 1480 276 1480 258 1465 c 128,-1,8
 240 1450 240 1450 240 1431 c 2,9,-1
 240 1100 l 2,10,11
 240 1080 240 1080 258.5 1065.5 c 128,-1,12
 277 1051 277 1051 308 1051 c 0,13,14
 342 1051 342 1051 358 1066 c 128,-1,15
 374 1081 374 1081 374 1100 c 2,16,-1
 374 1431 l 2,17,18
 374 1451 374 1451 355.5 1465.5 c 128,-1,6
 337 1480 337 1480 306.5 1480 c 128,-1,7
308.5 1570 m 128,-1,20
 414 1570 414 1570 489 1503 c 128,-1,21
 564 1436 564 1436 564 1340 c 2,22,-1
 564 1191 l 2,23,24
 564 1091 564 1091 487.5 1026 c 128,-1,25
 411 961 411 961 307 961 c 128,-1,26
 203 961 203 961 126.5 1028 c 128,-1,27
 50 1095 50 1095 50 1191 c 2,28,-1
 50 1340 l 2,29,30
 50 1440 50 1440 126.5 1505 c 128,-1,19
 203 1570 203 1570 308.5 1570 c 128,-1,20
EndSplineSet
Validated: 1
EndChar

StartChar: guillemotright
Encoding: 187 187 123
Width: 1292
GlyphClass: 2
Flags: W
DStem2: 405 1257 160 1145 0.506363 -0.862321<0 570.906> 207 193 336 136 0.507932 0.861397<16.4236 505.6> 886 1257 641 1145 0.506363 -0.862321<0 570.906> 688 193 817 136 0.507932 0.861397<16.4236 505.6>
LayerCount: 2
Fore
SplineSet
701 755 m 1,0,-1
 336 136 l 1,1,-1
 326 136 l 1,2,-1
 207 193 l 1,3,-1
 463 629 l 1,4,-1
 160 1145 l 1,5,-1
 395 1257 l 1,6,-1
 405 1257 l 1,7,-1
 701 755 l 1,0,-1
1182 755 m 1,8,-1
 817 136 l 1,9,-1
 807 136 l 1,10,-1
 688 193 l 1,11,-1
 944 629 l 1,12,-1
 641 1145 l 1,13,-1
 876 1257 l 1,14,-1
 886 1257 l 1,15,-1
 1182 755 l 1,8,-1
EndSplineSet
Validated: 1
EndChar

StartChar: onequarter
Encoding: 188 188 124
Width: 1543
GlyphClass: 2
Flags: W
HStem: -20 21G<450.053 511.325 1158 1218.67> 142 96<947 1158 1358 1388> 1510 20G<376.783 432 916.661 977.77>
VStem: 232 200<791 1349> 1158 200<55 133 238 544>
DStem2: 255 93 502 -20 0.423093 0.906086<2.11609 1585.94> 770 152 947 238 0.567283 0.823523<171.232 542.927>
LayerCount: 2
Fore
SplineSet
422 1530 m 1,0,-1
 432 1530 l 1,1,-1
 432 791 l 1,2,-1
 242 716 l 1,3,-1
 232 716 l 1,4,-1
 232 1349 l 1,5,-1
 110 1297 l 1,6,-1
 110 1392 l 1,7,-1
 422 1530 l 1,0,-1
492 -20 m 1,8,-1
 255 93 l 1,9,-1
 926 1530 l 1,10,-1
 936 1530 l 1,11,-1
 1172 1417 l 1,12,-1
 502 -20 l 1,13,-1
 492 -20 l 1,8,-1
947 238 m 1,14,-1
 1158 238 l 1,15,-1
 1158 544 l 1,16,-1
 947 238 l 1,14,-1
1168 -20 m 1,17,-1
 1158 -20 l 1,18,-1
 1158 142 l 1,19,-1
 770 142 l 1,20,-1
 770 152 l 1,21,-1
 1153 708 l 1,22,-1
 1348 794 l 1,23,-1
 1358 794 l 1,24,-1
 1358 238 l 1,25,-1
 1433 238 l 1,26,-1
 1433 228 l 1,27,-1
 1388 133 l 1,28,-1
 1358 133 l 1,29,-1
 1358 55 l 1,30,-1
 1168 -20 l 1,17,-1
EndSplineSet
Validated: 1
EndChar

StartChar: onehalf
Encoding: 189 189 125
Width: 1677
GlyphClass: 2
Flags: W
HStem: -20 21G<450.053 511.325> 0 191<1208 1495> 711 95<1182.68 1337.33> 1510 20G<376.783 432 916.661 977.77>
VStem: 232 200<791 1349> 961 200<457.426 682.955> 1363 203<416.515 684.511>
DStem2: 255 93 502 -20 0.423093 0.906086<2.11609 1585.94>
LayerCount: 2
Fore
SplineSet
422 1530 m 1,0,-1
 432 1530 l 1,1,-1
 432 791 l 1,2,-1
 242 716 l 1,3,-1
 232 716 l 1,4,-1
 232 1349 l 1,5,-1
 110 1297 l 1,6,-1
 110 1392 l 1,7,-1
 422 1530 l 1,0,-1
1264 806 m 0,8,9
 1402 806 1402 806 1489 728 c 0,10,11
 1566 659 1566 659 1566 553 c 0,12,13
 1566 388 1566 388 1390 291 c 2,14,-1
 1208 191 l 1,15,-1
 1567 191 l 1,16,-1
 1567 181 l 1,17,-1
 1495 0 l 1,18,-1
 956 0 l 1,19,-1
 956 10 l 1,20,-1
 1041 202 l 1,21,-1
 1236 336 l 2,22,23
 1363 423 1363 423 1363 564 c 0,24,25
 1363 642 1363 642 1334 679 c 0,26,27
 1309 711 1309 711 1259 711 c 0,28,29
 1212 711 1212 711 1186 679 c 0,30,31
 1161 648 1161 648 1161 575 c 0,32,33
 1161 515 1161 515 1188 470 c 1,34,-1
 1014 401 l 1,35,-1
 1004 401 l 1,36,37
 961 465 961 465 961 554 c 0,38,39
 961 659 961 659 1048 731 c 0,40,41
 1139 806 1139 806 1264 806 c 0,8,9
492 -20 m 1,42,-1
 255 93 l 1,43,-1
 926 1530 l 1,44,-1
 936 1530 l 1,45,-1
 1172 1417 l 1,46,-1
 502 -20 l 1,47,-1
 492 -20 l 1,42,-1
EndSplineSet
Validated: 1
EndChar

StartChar: threequarters
Encoding: 190 190 126
Width: 1780
GlyphClass: 2
Flags: W
HStem: -20 21G<687.053 748.325 1395 1455.67> 142 96<1184 1395 1595 1625> 723 96<336.994 479.428> 1434 96<206 435>
VStem: 110 196<849.516 960.32> 504 207<852.564 1144.25> 1395 200<55 133 238 544>
DStem2: 492 93 739 -20 0.423093 0.906086<2.11609 1585.94> 1007 152 1184 238 0.567283 0.823523<171.232 542.927>
LayerCount: 2
Fore
SplineSet
206 1530 m 1,0,-1
 704 1530 l 1,1,-1
 512 1245 l 1,2,3
 590 1225 590 1225 637 1180 c 0,4,5
 711 1110 711 1110 711 996 c 0,6,7
 711 884 711 884 627 803 c 0,8,9
 543 723 543 723 406 723 c 0,10,11
 267 723 267 723 195 799 c 0,12,13
 123 874 123 874 110 954 c 1,14,-1
 296 1036 l 1,15,-1
 306 1036 l 1,16,17
 306 819 306 819 410 819 c 0,18,19
 451 819 451 819 477 853 c 0,20,21
 504 888 504 888 504 1004 c 0,22,23
 504 1105 504 1105 478 1145 c 128,-1,24
 452 1185 452 1185 395 1185 c 0,25,26
 353 1185 353 1185 322 1165 c 1,27,-1
 292 1198 l 1,28,-1
 435 1434 l 1,29,-1
 165 1434 l 1,30,-1
 165 1444 l 1,31,-1
 206 1530 l 1,0,-1
1184 238 m 1,32,-1
 1395 238 l 1,33,-1
 1395 544 l 1,34,-1
 1184 238 l 1,32,-1
1405 -20 m 1,35,-1
 1395 -20 l 1,36,-1
 1395 142 l 1,37,-1
 1007 142 l 1,38,-1
 1007 152 l 1,39,-1
 1390 708 l 1,40,-1
 1585 794 l 1,41,-1
 1595 794 l 1,42,-1
 1595 238 l 1,43,-1
 1670 238 l 1,44,-1
 1670 228 l 1,45,-1
 1625 133 l 1,46,-1
 1595 133 l 1,47,-1
 1595 55 l 1,48,-1
 1405 -20 l 1,35,-1
729 -20 m 1,49,-1
 492 93 l 1,50,-1
 1163 1530 l 1,51,-1
 1173 1530 l 1,52,-1
 1409 1417 l 1,53,-1
 739 -20 l 1,54,-1
 729 -20 l 1,49,-1
EndSplineSet
Validated: 1
EndChar

StartChar: questiondown
Encoding: 191 191 127
Width: 1340
GlyphClass: 2
Flags: W
HStem: -429 151<522.346 809.379> 755 365<578.122 812.869>
VStem: 110 321<-156.548 210.45> 515 360<817.422 1057.43> 910 320<-131.237 188.908>
LayerCount: 2
Fore
SplineSet
665 -429 m 0,0,1
 398 -429 398 -429 248 -282 c 0,2,3
 110 -147 110 -147 110 30 c 0,4,5
 110 321 110 321 472 454 c 0,6,7
 529 475 529 475 529 594 c 1,8,-1
 842 741 l 1,9,-1
 852 741 l 1,10,11
 852 483 852 483 609 379 c 0,12,13
 431 303 431 303 431 20 c 0,14,15
 431 -133 431 -133 484 -198 c 0,16,17
 551 -278 551 -278 668 -278 c 0,18,19
 770 -278 770 -278 840 -208 c 128,-1,20
 910 -138 910 -138 910 11 c 0,21,22
 910 103 910 103 881 174 c 1,23,-1
 1151 301 l 1,24,-1
 1161 301 l 1,25,26
 1230 189 1230 189 1230 53 c 0,27,28
 1230 -128 1230 -128 1076 -279 c 0,29,30
 922 -429 922 -429 665 -429 c 0,0,1
695 1120 m 0,31,32
 771 1120 771 1120 823 1066 c 128,-1,33
 875 1012 875 1012 875 938 c 0,34,35
 875 862 875 862 823 809 c 0,36,37
 770 755 770 755 695 755 c 128,-1,38
 620 755 620 755 567.5 808.5 c 128,-1,39
 515 862 515 862 515 937 c 128,-1,40
 515 1012 515 1012 568 1066 c 128,-1,41
 621 1120 621 1120 695 1120 c 0,31,32
EndSplineSet
Validated: 1
EndChar

StartChar: endash
Encoding: 8211 8211 128
Width: 1240
GlyphClass: 2
Flags: W
HStem: 620 270<235 1005>
LayerCount: 2
Fore
SplineSet
235 890 m 1,0,-1
 1130 890 l 1,1,-1
 1130 880 l 1,2,-1
 1005 620 l 1,3,-1
 110 620 l 1,4,-1
 110 630 l 1,5,-1
 235 890 l 1,0,-1
EndSplineSet
Validated: 1
EndChar

StartChar: emdash
Encoding: 8212 8212 129
Width: 1570
GlyphClass: 2
Flags: W
HStem: 620 270<235 1335>
LayerCount: 2
Fore
SplineSet
235 890 m 1,0,-1
 1460 890 l 1,1,-1
 1460 880 l 1,2,-1
 1335 620 l 1,3,-1
 110 620 l 1,4,-1
 110 630 l 1,5,-1
 235 890 l 1,0,-1
EndSplineSet
Validated: 1
EndChar

StartChar: afii00208
Encoding: 8213 8213 130
Width: 1570
GlyphClass: 2
Flags: W
HStem: 620 270<235 1335>
LayerCount: 2
Fore
SplineSet
235 890 m 1,0,-1
 1460 890 l 1,1,-1
 1460 880 l 1,2,-1
 1335 620 l 1,3,-1
 110 620 l 1,4,-1
 110 630 l 1,5,-1
 235 890 l 1,0,-1
EndSplineSet
Validated: 1
EndChar

StartChar: quoteleft
Encoding: 8216 8216 131
Width: 496
GlyphClass: 2
Flags: W
HStem: 934 666
VStem: 30 264<1158.4 1384.82>
LayerCount: 2
Fore
SplineSet
366 1600 m 1,0,-1
 373 1593 l 1,1,2
 294 1444 294 1444 294 1296 c 0,3,4
 294 1140 294 1140 466 1060 c 1,5,-1
 197 934 l 1,6,-1
 187 934 l 1,7,8
 30 1036 30 1036 30 1218 c 0,9,10
 30 1475 30 1475 366 1600 c 1,0,-1
EndSplineSet
Validated: 1
EndChar

StartChar: quoteright
Encoding: 8217 8217 132
Width: 496
GlyphClass: 2
Flags: W
HStem: 934 666
VStem: 202 264<1149.18 1375.6>
LayerCount: 2
Fore
SplineSet
30 1474 m 1,0,-1
 299 1600 l 1,1,-1
 309 1600 l 1,2,3
 466 1498 466 1498 466 1316 c 0,4,5
 466 1059 466 1059 130 934 c 1,6,-1
 123 941 l 1,7,8
 202 1090 202 1090 202 1238 c 0,9,10
 202 1394 202 1394 30 1474 c 1,0,-1
EndSplineSet
Validated: 1
EndChar

StartChar: quotesinglbase
Encoding: 8218 8218 133
Width: 496
GlyphClass: 2
Flags: W
HStem: -328 666
VStem: 202 264<-112.817 113.6>
LayerCount: 2
Fore
SplineSet
30 212 m 1,0,-1
 299 338 l 1,1,-1
 309 338 l 1,2,3
 466 236 466 236 466 54 c 0,4,5
 466 -203 466 -203 130 -328 c 1,6,-1
 123 -321 l 1,7,8
 202 -172 202 -172 202 -24 c 0,9,10
 202 132 202 132 30 212 c 1,0,-1
EndSplineSet
Validated: 1
EndChar

StartChar: quotereversed
Encoding: 8219 8219 134
Width: 496
GlyphClass: 2
Flags: W
HStem: 934 666
VStem: 30 264<1149.18 1375.6>
LayerCount: 2
Fore
SplineSet
466 1474 m 1,0,1
 294 1394 294 1394 294 1238 c 0,2,3
 294 1090 294 1090 373 941 c 1,4,-1
 366 934 l 1,5,6
 30 1059 30 1059 30 1316 c 0,7,8
 30 1498 30 1498 187 1600 c 1,9,-1
 197 1600 l 1,10,-1
 466 1474 l 1,0,1
EndSplineSet
Validated: 1
EndChar

StartChar: quotedblleft
Encoding: 8220 8220 135
Width: 914
GlyphClass: 2
Flags: W
HStem: 934 666
VStem: 30 264<1158.4 1384.82> 448 264<1158.4 1384.82>
LayerCount: 2
Fore
SplineSet
366 1600 m 1,0,-1
 373 1593 l 1,1,2
 294 1444 294 1444 294 1296 c 0,3,4
 294 1140 294 1140 466 1060 c 1,5,-1
 197 934 l 1,6,-1
 187 934 l 1,7,8
 30 1036 30 1036 30 1218 c 0,9,10
 30 1475 30 1475 366 1600 c 1,0,-1
784 1600 m 1,11,-1
 791 1593 l 1,12,13
 712 1444 712 1444 712 1296 c 0,14,15
 712 1140 712 1140 884 1060 c 1,16,-1
 615 934 l 1,17,-1
 605 934 l 1,18,19
 448 1036 448 1036 448 1218 c 0,20,21
 448 1475 448 1475 784 1600 c 1,11,-1
EndSplineSet
Validated: 1
EndChar

StartChar: quotedblright
Encoding: 8221 8221 136
Width: 914
GlyphClass: 2
Flags: W
HStem: 934 666
VStem: 202 264<1149.18 1375.6> 620 264<1149.18 1375.6>
LayerCount: 2
Fore
SplineSet
448 1474 m 1,0,-1
 717 1600 l 1,1,-1
 727 1600 l 1,2,3
 884 1498 884 1498 884 1316 c 0,4,5
 884 1059 884 1059 548 934 c 1,6,-1
 541 941 l 1,7,8
 620 1090 620 1090 620 1238 c 0,9,10
 620 1394 620 1394 448 1474 c 1,0,-1
30 1474 m 1,11,-1
 299 1600 l 1,12,-1
 309 1600 l 1,13,14
 466 1498 466 1498 466 1316 c 0,15,16
 466 1059 466 1059 130 934 c 1,17,-1
 123 941 l 1,18,19
 202 1090 202 1090 202 1238 c 0,20,21
 202 1394 202 1394 30 1474 c 1,11,-1
EndSplineSet
Validated: 1
EndChar

StartChar: quotedblbase
Encoding: 8222 8222 137
Width: 914
GlyphClass: 2
Flags: W
HStem: -328 666
VStem: 202 264<-112.817 113.6> 620 264<-112.817 113.6>
LayerCount: 2
Fore
SplineSet
448 212 m 1,0,-1
 717 338 l 1,1,-1
 727 338 l 1,2,3
 884 236 884 236 884 54 c 0,4,5
 884 -203 884 -203 548 -328 c 1,6,-1
 541 -321 l 1,7,8
 620 -172 620 -172 620 -24 c 0,9,10
 620 132 620 132 448 212 c 1,0,-1
30 212 m 1,11,-1
 299 338 l 1,12,-1
 309 338 l 1,13,14
 466 236 466 236 466 54 c 0,15,16
 466 -203 466 -203 130 -328 c 1,17,-1
 123 -321 l 1,18,19
 202 -172 202 -172 202 -24 c 0,20,21
 202 132 202 132 30 212 c 1,11,-1
EndSplineSet
Validated: 1
EndChar

StartChar: dagger
Encoding: 8224 8224 138
Width: 1254
GlyphClass: 2
Flags: W
HStem: -20 21G<467 519.177> 964 150<177 467 787 1077> 1510 20G<735.108 787>
VStem: 467 320<127 964 1114 1382>
LayerCount: 2
Fore
SplineSet
477 -20 m 1,0,-1
 467 -20 l 1,1,-1
 467 964 l 1,2,-1
 110 964 l 1,3,-1
 110 974 l 1,4,-1
 177 1114 l 1,5,-1
 467 1114 l 1,6,-1
 467 1382 l 1,7,-1
 777 1530 l 1,8,-1
 787 1530 l 1,9,-1
 787 1114 l 1,10,-1
 1144 1114 l 1,11,-1
 1144 1104 l 1,12,-1
 1077 964 l 1,13,-1
 787 964 l 1,14,-1
 787 127 l 1,15,-1
 477 -20 l 1,0,-1
EndSplineSet
Validated: 1
EndChar

StartChar: daggerdbl
Encoding: 8225 8225 139
Width: 1254
GlyphClass: 2
Flags: W
HStem: -20 21G<467 519.177> 396 150<177 467 787 1077> 964 150<177 467 787 1077> 1510 20G<734.823 787>
VStem: 467 320<127 396 546 964 1114 1383>
LayerCount: 2
Fore
SplineSet
477 -20 m 1,0,-1
 467 -20 l 1,1,-1
 467 396 l 1,2,-1
 110 396 l 1,3,-1
 110 406 l 1,4,-1
 177 546 l 1,5,-1
 467 546 l 1,6,-1
 467 964 l 1,7,-1
 110 964 l 1,8,-1
 110 974 l 1,9,-1
 177 1114 l 1,10,-1
 467 1114 l 1,11,-1
 467 1382 l 1,12,-1
 467 1383 l 1,13,-1
 777 1530 l 1,14,-1
 787 1530 l 1,15,-1
 787 1114 l 1,16,-1
 1144 1114 l 1,17,-1
 1144 1104 l 1,18,-1
 1077 964 l 1,19,-1
 787 964 l 1,20,-1
 787 546 l 1,21,-1
 1144 546 l 1,22,-1
 1144 536 l 1,23,-1
 1077 396 l 1,24,-1
 787 396 l 1,25,-1
 787 128 l 1,26,-1
 787 127 l 1,27,-1
 477 -20 l 1,0,-1
EndSplineSet
Validated: 1
EndChar

StartChar: bullet
Encoding: 8226 8226 140
Width: 950
GlyphClass: 2
Flags: W
HStem: 387 735<301.641 650.872>
VStem: 110 730<579.229 929.44>
LayerCount: 2
Fore
SplineSet
476 1122 m 0,0,1
 630 1122 630 1122 734 1014 c 0,2,3
 840 903 840 903 840 755 c 0,4,5
 840 602 840 602 733 494 c 0,6,7
 627 387 627 387 475 387 c 0,8,9
 321 387 321 387 216 495 c 0,10,11
 110 605 110 605 110 755 c 0,12,13
 110 906 110 906 217 1014 c 128,-1,14
 324 1122 324 1122 476 1122 c 0,0,1
EndSplineSet
Validated: 1
EndChar

StartChar: ellipsis
Encoding: 8230 8230 141
Width: 1292
GlyphClass: 2
Flags: W
HStem: -20 365<92.1309 326.878 528.131 762.878 964.131 1198.88>
VStem: 30 360<42.5657 282.578> 466 360<42.5657 282.578> 902 360<42.5657 282.578>
CounterMasks: 1 70
LayerCount: 2
Fore
SplineSet
1082 -20 m 0,0,1
 1006 -20 1006 -20 954 34 c 128,-1,2
 902 88 902 88 902 162 c 0,3,4
 902 238 902 238 954 291 c 0,5,6
 1007 345 1007 345 1082 345 c 128,-1,7
 1157 345 1157 345 1209.5 291.5 c 128,-1,8
 1262 238 1262 238 1262 163 c 128,-1,9
 1262 88 1262 88 1209 34 c 128,-1,10
 1156 -20 1156 -20 1082 -20 c 0,0,1
646 -20 m 0,11,12
 570 -20 570 -20 518 34 c 128,-1,13
 466 88 466 88 466 162 c 0,14,15
 466 238 466 238 518 291 c 0,16,17
 571 345 571 345 646 345 c 128,-1,18
 721 345 721 345 773.5 291.5 c 128,-1,19
 826 238 826 238 826 163 c 128,-1,20
 826 88 826 88 773 34 c 128,-1,21
 720 -20 720 -20 646 -20 c 0,11,12
210 -20 m 0,22,23
 134 -20 134 -20 82 34 c 128,-1,24
 30 88 30 88 30 162 c 0,25,26
 30 238 30 238 82 291 c 0,27,28
 135 345 135 345 210 345 c 128,-1,29
 285 345 285 345 337.5 291.5 c 128,-1,30
 390 238 390 238 390 163 c 128,-1,31
 390 88 390 88 337 34 c 128,-1,32
 284 -20 284 -20 210 -20 c 0,22,23
EndSplineSet
Validated: 1
EndChar

StartChar: perthousand
Encoding: 8240 8240 142
Width: 2624
GlyphClass: 2
Flags: W
HStem: -20 103<1274.5 1458.61 2052.5 2236.61> 618 104<1275.14 1459.26 2053.14 2237.26> 788 104<386.743 570.86> 1427 103<387.388 571.504>
VStem: 110 233<981.735 1337.81> 614 233<979.348 1336.99> 999 233<173.005 530.652> 1503 233<172.185 528.265> 1777 233<173.005 530.652> 2281 233<172.185 528.265>
DStem2: 464 93 711 -20 0.423093 0.906086<2.11609 1585.94>
LayerCount: 2
Fore
SplineSet
2144 83 m 128,-1,1
 2199 83 2199 83 2240 130.5 c 128,-1,2
 2281 178 2281 178 2281 350.5 c 128,-1,3
 2281 523 2281 523 2240 570.5 c 128,-1,4
 2199 618 2199 618 2144 618 c 128,-1,5
 2089 618 2089 618 2049.5 570.5 c 128,-1,6
 2010 523 2010 523 2010 350.5 c 128,-1,7
 2010 178 2010 178 2049.5 130.5 c 128,-1,0
 2089 83 2089 83 2144 83 c 128,-1,1
1366 83 m 128,-1,9
 1421 83 1421 83 1462 130.5 c 128,-1,10
 1503 178 1503 178 1503 350.5 c 128,-1,11
 1503 523 1503 523 1462 570.5 c 128,-1,12
 1421 618 1421 618 1366 618 c 128,-1,13
 1311 618 1311 618 1271.5 570.5 c 128,-1,14
 1232 523 1232 523 1232 350.5 c 128,-1,15
 1232 178 1232 178 1271.5 130.5 c 128,-1,8
 1311 83 1311 83 1366 83 c 128,-1,9
480 1427 m 128,-1,17
 425 1427 425 1427 384 1379.5 c 128,-1,18
 343 1332 343 1332 343 1159.5 c 128,-1,19
 343 987 343 987 384 939.5 c 128,-1,20
 425 892 425 892 480 892 c 128,-1,21
 535 892 535 892 574.5 939.5 c 128,-1,22
 614 987 614 987 614 1159.5 c 128,-1,23
 614 1332 614 1332 574.5 1379.5 c 128,-1,16
 535 1427 535 1427 480 1427 c 128,-1,17
2145 -20 m 0,24,25
 1990 -20 1990 -20 1885 89 c 0,26,27
 1777 199 1777 199 1777 352 c 0,28,29
 1777 506 1777 506 1885 613 c 0,30,31
 1993 722 1993 722 2145 722 c 0,32,33
 2300 722 2300 722 2406 613 c 0,34,35
 2514 502 2514 502 2514 350 c 0,36,37
 2514 196 2514 196 2406 89 c 0,38,39
 2297 -20 2297 -20 2145 -20 c 0,24,25
1367 -20 m 0,40,41
 1212 -20 1212 -20 1107 89 c 0,42,43
 999 199 999 199 999 352 c 0,44,45
 999 506 999 506 1107 613 c 0,46,47
 1215 722 1215 722 1367 722 c 0,48,49
 1522 722 1522 722 1628 613 c 0,50,51
 1736 502 1736 502 1736 350 c 0,52,53
 1736 196 1736 196 1628 89 c 0,54,55
 1519 -20 1519 -20 1367 -20 c 0,40,41
701 -20 m 1,56,-1
 464 93 l 1,57,-1
 1135 1530 l 1,58,-1
 1145 1530 l 1,59,-1
 1381 1417 l 1,60,-1
 711 -20 l 1,61,-1
 701 -20 l 1,56,-1
479 1530 m 0,62,63
 634 1530 634 1530 739 1421 c 0,64,65
 847 1311 847 1311 847 1158 c 0,66,67
 847 1004 847 1004 739 897 c 0,68,69
 631 788 631 788 479 788 c 0,70,71
 324 788 324 788 218 897 c 0,72,73
 110 1008 110 1008 110 1160 c 0,74,75
 110 1314 110 1314 218 1421 c 0,76,77
 327 1530 327 1530 479 1530 c 0,62,63
EndSplineSet
Validated: 1
EndChar

StartChar: minute
Encoding: 8242 8242 143
Width: 450
GlyphClass: 2
Flags: W
HStem: 1140 460
VStem: 30 390
LayerCount: 2
Fore
SplineSet
203 1600 m 1,0,-1
 213 1600 l 1,1,-1
 420 1501 l 1,2,-1
 188 1140 l 1,3,-1
 178 1140 l 1,4,-1
 30 1210 l 1,5,-1
 203 1600 l 1,0,-1
EndSplineSet
Validated: 1
EndChar

StartChar: second
Encoding: 8243 8243 144
Width: 770
GlyphClass: 2
Flags: W
HStem: 1140 460
LayerCount: 2
Fore
SplineSet
523 1600 m 1,0,-1
 533 1600 l 1,1,-1
 740 1501 l 1,2,-1
 508 1140 l 1,3,-1
 498 1140 l 1,4,-1
 350 1210 l 1,5,-1
 523 1600 l 1,0,-1
203 1600 m 1,6,-1
 213 1600 l 1,7,-1
 420 1501 l 1,8,-1
 188 1140 l 1,9,-1
 178 1140 l 1,10,-1
 30 1210 l 1,11,-1
 203 1600 l 1,6,-1
EndSplineSet
Validated: 1
EndChar

StartChar: guilsinglleft
Encoding: 8249 8249 145
Width: 811
GlyphClass: 2
Flags: W
VStem: 110 541
DStem2: 348 881 110 755 0.506363 -0.862321<0 570.906> 110 755 348 881 0.507932 0.861397<229.424 718.6>
LayerCount: 2
Fore
SplineSet
110 755 m 1,0,-1
 475 1374 l 1,1,-1
 485 1374 l 1,2,-1
 604 1317 l 1,3,-1
 348 881 l 1,4,-1
 651 365 l 1,5,-1
 416 253 l 1,6,-1
 406 253 l 1,7,-1
 110 755 l 1,0,-1
EndSplineSet
Validated: 1
EndChar

StartChar: guilsinglright
Encoding: 8250 8250 146
Width: 811
GlyphClass: 2
Flags: W
VStem: 160 541
DStem2: 405 1257 160 1145 0.506363 -0.862321<0 570.906> 207 193 336 136 0.507932 0.861397<16.4236 505.6>
LayerCount: 2
Fore
SplineSet
701 755 m 1,0,-1
 336 136 l 1,1,-1
 326 136 l 1,2,-1
 207 193 l 1,3,-1
 463 629 l 1,4,-1
 160 1145 l 1,5,-1
 395 1257 l 1,6,-1
 405 1257 l 1,7,-1
 701 755 l 1,0,-1
EndSplineSet
Validated: 1
EndChar

StartChar: fraction
Encoding: 8260 8260 147
Width: 937
GlyphClass: 2
Flags: W
HStem: -20 21G<205.053 266.325> 1510 20G<671.661 732.77>
DStem2: 10 93 257 -20 0.423093 0.906086<2.11609 1585.94>
LayerCount: 2
Fore
SplineSet
247 -20 m 1,0,-1
 10 93 l 1,1,-1
 681 1530 l 1,2,-1
 691 1530 l 1,3,-1
 927 1417 l 1,4,-1
 257 -20 l 1,5,-1
 247 -20 l 1,0,-1
EndSplineSet
Validated: 1
EndChar

StartChar: Euro
Encoding: 8364 8364 148
Width: 1440
GlyphClass: 2
Flags: W
HStem: -20 150<611.898 918.258> 586 140<101 200 530 909> 786 140<101 200 530 909> 1380 150<612.624 918.474>
VStem: 200 330<286.533 586 726 786 926 1224.73> 995 335<290.674 404 1109.43 1210.35>
LayerCount: 2
Fore
SplineSet
765 -20 m 128,-1,1
 530 -20 530 -20 365 127 c 128,-1,2
 200 274 200 274 200 494 c 2,3,-1
 200 586 l 1,4,-1
 40 586 l 1,5,-1
 40 596 l 1,6,-1
 101 726 l 1,7,-1
 200 726 l 1,8,-1
 200 786 l 1,9,-1
 40 786 l 1,10,-1
 40 796 l 1,11,-1
 101 926 l 1,12,-1
 200 926 l 1,13,-1
 200 1016 l 2,14,15
 200 1238 200 1238 366 1384 c 128,-1,16
 532 1530 532 1530 766 1530 c 128,-1,17
 1000 1530 1000 1530 1164 1378 c 0,18,19
 1285 1266 1285 1266 1318 1116 c 1,20,-1
 1005 967 l 1,21,-1
 995 967 l 1,22,-1
 995 1178 l 2,23,24
 995 1268 995 1268 932.5 1324 c 128,-1,25
 870 1380 870 1380 767 1380 c 128,-1,26
 664 1380 664 1380 597 1324 c 128,-1,27
 530 1268 530 1268 530 1178 c 2,28,-1
 530 926 l 1,29,-1
 970 926 l 1,30,-1
 970 916 l 1,31,-1
 909 786 l 1,32,-1
 530 786 l 1,33,-1
 530 726 l 1,34,-1
 970 726 l 1,35,-1
 970 716 l 1,36,-1
 909 586 l 1,37,-1
 530 586 l 1,38,-1
 530 332 l 2,39,40
 530 242 530 242 597 186 c 128,-1,41
 664 130 664 130 767 130 c 128,-1,42
 870 130 870 130 932.5 186 c 128,-1,43
 995 242 995 242 995 332 c 2,44,-1
 995 404 l 1,45,-1
 1320 558 l 1,46,-1
 1330 558 l 1,47,-1
 1330 502 l 2,48,49
 1330 278 1330 278 1164 128 c 0,50,0
 1000 -20 1000 -20 765 -20 c 128,-1,1
EndSplineSet
Validated: 1
EndChar

StartChar: afii61248
Encoding: 8453 8453 149
Width: 1714
GlyphClass: 2
Flags: W
HStem: -20 96<1214.68 1380.1> 698 97<1224.06 1388.57> 716 96<332.612 489.232> 1435 95<332.807 490.588>
VStem: 110 205<845.344 1401.41> 507 209<847.114 957> 998 205<110.008 668.092> 1399 205<108.432 665.239>
DStem2: 398 93 645 -20 0.423093 0.906086<2.11609 1585.94>
LayerCount: 2
Fore
SplineSet
413 1530 m 0,0,1
 541 1530 541 1530 626 1449 c 0,2,3
 690 1388 690 1388 714 1286 c 1,4,-1
 517 1208 l 1,5,-1
 507 1208 l 1,6,-1
 507 1355 l 2,7,8
 507 1391 507 1391 482.5 1413 c 128,-1,9
 458 1435 458 1435 412 1435 c 128,-1,10
 366 1435 366 1435 340.5 1413 c 128,-1,11
 315 1391 315 1391 315 1355 c 2,12,-1
 315 892 l 2,13,14
 315 856 315 856 340.5 834 c 128,-1,15
 366 812 366 812 412 812 c 128,-1,16
 458 812 458 812 482.5 834 c 128,-1,17
 507 856 507 856 507 892 c 2,18,-1
 507 957 l 1,19,-1
 706 1045 l 1,20,-1
 716 1045 l 1,21,-1
 716 997 l 2,22,23
 716 876 716 876 626 796 c 128,-1,24
 536 716 536 716 412 716 c 128,-1,25
 288 716 288 716 199 795 c 128,-1,26
 110 874 110 874 110 992 c 2,27,-1
 110 1255 l 2,28,29
 110 1373 110 1373 199 1451.5 c 128,-1,30
 288 1530 288 1530 413 1530 c 0,0,1
635 -20 m 1,31,-1
 398 93 l 1,32,-1
 1069 1530 l 1,33,-1
 1079 1530 l 1,34,-1
 1315 1417 l 1,35,-1
 645 -20 l 1,36,-1
 635 -20 l 1,31,-1
1302 76 m 0,37,38
 1344 76 1344 76 1372 100 c 0,39,40
 1399 123 1399 123 1399 156 c 2,41,-1
 1399 619 l 2,42,43
 1399 653 1399 653 1369.5 675.5 c 128,-1,44
 1340 698 1340 698 1301 698 c 0,45,46
 1260 698 1260 698 1232 675 c 0,47,48
 1203 651 1203 651 1203 619 c 2,49,-1
 1203 156 l 2,50,51
 1203 123 1203 123 1233 99.5 c 128,-1,52
 1263 76 1263 76 1302 76 c 0,37,38
1301 -20 m 128,-1,54
 1177 -20 1177 -20 1087.5 59.5 c 128,-1,55
 998 139 998 139 998 256 c 2,56,-1
 998 519 l 2,57,58
 998 641 998 641 1089 718 c 128,-1,59
 1180 795 1180 795 1303 795 c 0,60,61
 1427 795 1427 795 1515 716 c 0,62,63
 1603 636 1603 636 1604 519 c 2,64,-1
 1604 256 l 2,65,66
 1604 137 1604 137 1514 58 c 0,67,53
 1425 -20 1425 -20 1301 -20 c 128,-1,54
EndSplineSet
Validated: 1
EndChar

StartChar: afii61289
Encoding: 8467 8467 150
Width: 1147
GlyphClass: 2
Flags: W
HStem: 0 1G<110 486.273 636 745> 1510 20G<804.5 902>
LayerCount: 2
Fore
SplineSet
690 -20 m 0,0,1
 582 -20 582 -20 501 44 c 1,2,-1
 474 0 l 1,3,-1
 110 0 l 1,4,5
 272 162 272 162 375 325 c 1,6,7
 364 420 364 420 364 524 c 0,8,9
 364 686 364 686 411 865 c 0,10,11
 509 1240 509 1240 661 1423 c 0,12,13
 749 1530 749 1530 860 1530 c 0,14,15
 944 1530 944 1530 994 1480 c 0,16,17
 1058 1416 1058 1416 1058 1281 c 0,18,19
 1058 1186 1058 1186 1029 1041 c 0,20,21
 959 688 959 688 676 272 c 1,22,23
 678 216 678 216 699 216 c 128,-1,24
 720 216 720 216 745 260 c 0,25,26
 760 286 760 286 771 319 c 1,27,-1
 1087 319 l 1,28,29
 994 144 994 144 897 62 c 128,-1,30
 800 -20 800 -20 690 -20 c 0,0,1
EndSplineSet
Validated: 1
EndChar

StartChar: trademark
Encoding: 8482 8482 151
Width: 1791
GlyphClass: 2
Flags: W
HStem: 1443 94<101 273 473 645 892.49 1055.55 1297.45 1459.41>
VStem: 273 200<798 1434> 671 200<798 1409.74> 1076 200<798 1417.22> 1481 200<798 1410.56>
LayerCount: 2
Fore
SplineSet
1491 723 m 1,0,-1
 1481 723 l 1,1,-1
 1481 1358 l 2,2,3
 1481 1396 1481 1396 1452 1419 c 0,4,5
 1422 1443 1422 1443 1379 1443 c 128,-1,6
 1336 1443 1336 1443 1306 1418 c 128,-1,7
 1276 1393 1276 1393 1276 1358 c 2,8,-1
 1276 798 l 1,9,-1
 1086 723 l 1,10,-1
 1076 723 l 1,11,-1
 1076 1358 l 2,12,13
 1076 1396 1076 1396 1047 1419 c 0,14,15
 1017 1443 1017 1443 973.5 1443 c 128,-1,16
 930 1443 930 1443 900.5 1418.5 c 128,-1,17
 871 1394 871 1394 871 1358 c 2,18,-1
 871 798 l 1,19,-1
 681 723 l 1,20,-1
 671 723 l 1,21,-1
 671 1262 l 2,22,23
 671 1382 671 1382 760 1459.5 c 128,-1,24
 849 1537 849 1537 969.5 1537 c 128,-1,25
 1090 1537 1090 1537 1176 1469 c 1,26,27
 1263 1537 1263 1537 1384 1537 c 0,28,29
 1507 1537 1507 1537 1594 1458 c 128,-1,30
 1681 1379 1681 1379 1681 1262 c 2,31,-1
 1681 798 l 1,32,-1
 1491 723 l 1,0,-1
101 1530 m 1,33,-1
 686 1530 l 1,34,-1
 686 1520 l 1,35,-1
 645 1434 l 1,36,-1
 473 1434 l 1,37,-1
 473 798 l 1,38,-1
 283 723 l 1,39,-1
 273 723 l 1,40,-1
 273 1434 l 1,41,-1
 60 1434 l 1,42,-1
 60 1444 l 1,43,-1
 101 1530 l 1,33,-1
EndSplineSet
Validated: 1
EndChar

StartChar: uni2126
Encoding: 8486 8486 152
Width: 1450
GlyphClass: 2
Flags: W
HStem: 0 293<573.895 688 762 876.105> 0 150<227 452 997 1223> 1380 150<566.123 881.43>
VStem: 160 320<453.307 1229.87> 452 236<150 263.921> 762 235<150 265.505> 970 320<457.27 1230.83>
LayerCount: 2
Fore
SplineSet
688 0 m 1,0,-1
 160 0 l 1,1,-1
 160 10 l 1,2,-1
 227 150 l 1,3,-1
 452 150 l 1,4,-1
 452 250 l 1,5,6
 160 328 160 328 160 690 c 2,7,-1
 160 1025 l 2,8,9
 160 1243 160 1243 325 1386 c 0,10,11
 491 1530 491 1530 724 1530 c 0,12,13
 954 1530 954 1530 1124 1386 c 0,14,15
 1290 1245 1290 1245 1290 1025 c 2,16,-1
 1290 690 l 2,17,18
 1290 339 1290 339 997 250 c 1,19,-1
 997 150 l 1,20,-1
 1290 150 l 1,21,-1
 1290 140 l 1,22,-1
 1223 0 l 1,23,-1
 762 0 l 1,24,-1
 762 292 l 1,25,26
 970 341 970 341 970 506 c 2,27,-1
 970 1178 l 2,28,29
 970 1268 970 1268 900 1323 c 0,30,31
 827 1380 827 1380 725 1380 c 0,32,33
 619 1380 619 1380 549 1323 c 0,34,35
 480 1267 480 1267 480 1178 c 2,36,-1
 480 506 l 2,37,38
 480 343 480 343 688 293 c 1,39,-1
 688 0 l 1,0,-1
EndSplineSet
Validated: 1
EndChar

StartChar: estimated
Encoding: 8494 8494 153
Width: 1241
GlyphClass: 2
Flags: W
HStem: -20 183<441.95 798.867> 491 189<393 845> 935 185<439.039 799.176>
VStem: 60 333<316.826 491 680 791.88>
LayerCount: 2
Fore
SplineSet
619 -20 m 0,0,1
 368 -20 368 -20 214 145 c 128,-1,2
 60 310 60 310 60 553 c 0,3,4
 60 802 60 802 216 960 c 0,5,6
 374 1120 374 1120 616 1120 c 0,7,8
 859 1120 859 1120 1007 974 c 0,9,10
 1181 802 1181 802 1181 491 c 1,11,-1
 393 491 l 1,12,-1
 393 239 l 1,13,14
 488 163 488 163 619 163 c 0,15,16
 827 163 827 163 945 351 c 1,17,-1
 1109 255 l 1,18,19
 985 85 985 85 866 32.5 c 128,-1,20
 747 -20 747 -20 619 -20 c 0,0,1
845 680 m 1,21,-1
 845 862 l 1,22,23
 747 935 747 935 617 935 c 0,24,25
 485 935 485 935 393 861 c 1,26,-1
 393 680 l 1,27,-1
 845 680 l 1,21,-1
EndSplineSet
Validated: 1
EndChar

StartChar: partialdiff
Encoding: 8706 8706 154
Width: 1325
GlyphClass: 2
Flags: W
HStem: -20 273<452.903 666.396> 823 260<577.1 826.76> 1257 273<502.596 826.913>
VStem: 110 305<291.814 617.824> 906 309<1024 1178.17>
LayerCount: 2
Fore
SplineSet
532 -20 m 0,0,1
 262 -20 262 -20 163 171 c 0,2,3
 110 273 110 273 110 416 c 0,4,5
 110 673 110 673 264 878 c 128,-1,6
 418 1083 418 1083 690 1083 c 0,7,8
 809 1083 809 1083 906 1024 c 1,9,10
 903 1115 903 1115 865 1173 c 0,11,12
 808 1257 808 1257 686 1257 c 0,13,14
 531 1257 531 1257 380 1132 c 1,15,-1
 380 1443 l 1,16,17
 526 1530 526 1530 723 1530 c 0,18,19
 1040 1530 1040 1530 1156 1271 c 0,20,21
 1215 1139 1215 1139 1215 950 c 0,22,23
 1215 563 1215 563 1032 272 c 0,24,25
 851 -20 851 -20 532 -20 c 0,0,1
879 699 m 1,26,27
 858 756 858 756 815 788 c 0,28,29
 768 823 768 823 700 823 c 0,30,31
 591 823 591 823 510 706 c 0,32,33
 415 567 415 567 415 431 c 0,34,35
 415 344 415 344 453 295 c 0,36,37
 485 253 485 253 545 253 c 0,38,39
 652 253 652 253 747 376 c 128,-1,40
 842 499 842 499 879 699 c 1,26,27
EndSplineSet
Validated: 1
EndChar

StartChar: uni2206
Encoding: 8710 8710 155
Width: 1505
GlyphClass: 2
Flags: W
HStem: 0 150<231 1118> 1510 20G<822.846 883.17>
DStem2: 5 0 231 150 0.386112 0.922452<225.629 1388.4> 875 1530 679 1223 0.378162 -0.92574<210.082 1369.41>
LayerCount: 2
Fore
SplineSet
5 0 m 1,0,-1
 591 1400 l 1,1,-1
 865 1530 l 1,2,-1
 875 1530 l 1,3,-1
 1500 0 l 1,4,-1
 5 0 l 1,0,-1
231 150 m 1,5,-1
 1118 150 l 1,6,-1
 679 1223 l 1,7,-1
 231 150 l 1,5,-1
EndSplineSet
Validated: 1
EndChar

StartChar: product
Encoding: 8719 8719 156
Width: 1440
GlyphClass: 2
Flags: W
HStem: -430 21G<160 212.177 960 1012.18> 1360 150<480 960>
VStem: 160 320<-283 1360> 960 320<-283 1360>
LayerCount: 2
Fore
SplineSet
170 -430 m 1,0,-1
 160 -430 l 1,1,-1
 160 1384 l 1,2,-1
 428 1510 l 1,3,-1
 1280 1510 l 1,4,-1
 1280 -283 l 1,5,-1
 970 -430 l 1,6,-1
 960 -430 l 1,7,-1
 960 1360 l 1,8,-1
 480 1360 l 1,9,-1
 480 -283 l 1,10,-1
 170 -430 l 1,0,-1
EndSplineSet
Validated: 1
EndChar

StartChar: summation
Encoding: 8721 8721 157
Width: 1284
GlyphClass: 2
Flags: W
HStem: -410 150<496 1107> 1360 150<488 1101>
DStem2: 60 -410 496 -260 0.462139 0.886807<334.514 1120.87> 488 1360 74 1427 0.513148 -0.8583<0 712.224>
LayerCount: 2
Fore
SplineSet
60 -410 m 1,0,-1
 578 584 l 1,1,-1
 74 1427 l 1,2,-1
 250 1510 l 1,3,-1
 1168 1510 l 1,4,-1
 1168 1500 l 1,5,-1
 1101 1360 l 1,6,-1
 488 1360 l 1,7,-1
 944 598 l 1,8,-1
 496 -260 l 1,9,-1
 1174 -260 l 1,10,-1
 1174 -270 l 1,11,-1
 1107 -410 l 1,12,-1
 60 -410 l 1,0,-1
EndSplineSet
Validated: 1
EndChar

StartChar: minus
Encoding: 8722 8722 158
Width: 1240
GlyphClass: 2
Flags: W
HStem: 620 270<235 1005>
LayerCount: 2
Fore
SplineSet
235 890 m 1,0,-1
 1130 890 l 1,1,-1
 1130 880 l 1,2,-1
 1005 620 l 1,3,-1
 110 620 l 1,4,-1
 110 630 l 1,5,-1
 235 890 l 1,0,-1
EndSplineSet
Validated: 1
EndChar

StartChar: uni2215
Encoding: 8725 8725 159
Width: 937
GlyphClass: 2
Flags: W
HStem: -20 21G<205.053 266.325> 1510 20G<671.661 732.77>
DStem2: 10 93 257 -20 0.423093 0.906086<2.11609 1585.94>
LayerCount: 2
Fore
SplineSet
247 -20 m 1,0,-1
 10 93 l 1,1,-1
 681 1530 l 1,2,-1
 691 1530 l 1,3,-1
 927 1417 l 1,4,-1
 257 -20 l 1,5,-1
 247 -20 l 1,0,-1
EndSplineSet
Validated: 1
EndChar

StartChar: uni2219
Encoding: 8729 8729 160
Width: 420
GlyphClass: 2
Flags: W
HStem: 573 365<92.1309 326.878>
VStem: 30 360<635.566 875.578>
LayerCount: 2
Fore
SplineSet
210 938 m 128,-1,1
 285 938 285 938 337.5 884.5 c 128,-1,2
 390 831 390 831 390 756 c 128,-1,3
 390 681 390 681 337 627 c 128,-1,4
 284 573 284 573 210 573 c 0,5,6
 134 573 134 573 82 627 c 128,-1,7
 30 681 30 681 30 755 c 0,8,9
 30 831 30 831 82 884 c 0,10,0
 135 938 135 938 210 938 c 128,-1,1
EndSplineSet
Validated: 1
EndChar

StartChar: radical
Encoding: 8730 8730 161
Width: 1177
GlyphClass: 2
Flags: W
HStem: -20 21G<294.255 354.222> 1510 20G<1025.38 1086.41>
DStem2: 283 858 10 734 0.361133 -0.932514<17.0425 598.649> 505 302 578 106 0.395947 0.918274<0 1336.5>
LayerCount: 2
Fore
SplineSet
312 -20 m 1,0,-1
 302 -20 l 1,1,-1
 10 734 l 1,2,-1
 273 858 l 1,3,-1
 283 858 l 1,4,-1
 505 302 l 1,5,-1
 1034 1530 l 1,6,-1
 1044 1530 l 1,7,-1
 1167 1472 l 1,8,-1
 578 106 l 1,9,-1
 312 -20 l 1,0,-1
EndSplineSet
Validated: 1
EndChar

StartChar: infinity
Encoding: 8734 8734 162
Width: 1476
GlyphClass: 2
Flags: W
HStem: 384 101<382.238 565.466 910.238 1093.47> 1020 104<382.238 565.466 910.238 1093.47>
VStem: 110 229<574.98 932.857> 610 257<528.151 976.849> 1138 228<574.98 932.857>
LayerCount: 2
Fore
SplineSet
1001 485 m 128,-1,1
 1056 485 1056 485 1097 532.5 c 128,-1,2
 1138 580 1138 580 1138 752.5 c 128,-1,3
 1138 925 1138 925 1097 972.5 c 128,-1,4
 1056 1020 1056 1020 1001 1020 c 128,-1,5
 946 1020 946 1020 906.5 972.5 c 128,-1,6
 867 925 867 925 867 752.5 c 128,-1,7
 867 580 867 580 906.5 532.5 c 128,-1,0
 946 485 946 485 1001 485 c 128,-1,1
473 485 m 128,-1,9
 528 485 528 485 569 532.5 c 128,-1,10
 610 580 610 580 610 752.5 c 128,-1,11
 610 925 610 925 569 972.5 c 128,-1,12
 528 1020 528 1020 473 1020 c 128,-1,13
 418 1020 418 1020 378.5 972.5 c 128,-1,14
 339 925 339 925 339 752.5 c 128,-1,15
 339 580 339 580 378.5 532.5 c 128,-1,8
 418 485 418 485 473 485 c 128,-1,9
474 1124 m 128,-1,17
 626 1124 626 1124 732 1016 c 0,18,19
 735 1013 735 1013 738 1010 c 1,20,21
 741 1013 741 1013 744 1016 c 0,22,23
 850 1124 850 1124 1002 1124 c 128,-1,24
 1154 1124 1154 1124 1260 1016 c 128,-1,25
 1366 908 1366 908 1366 754 c 128,-1,26
 1366 600 1366 600 1260 492 c 128,-1,27
 1154 384 1154 384 1002 384 c 128,-1,28
 850 384 850 384 744 492 c 0,29,30
 741 495 741 495 738 498 c 1,31,32
 735 495 735 495 732 492 c 0,33,34
 626 384 626 384 474 384 c 128,-1,35
 322 384 322 384 216 492 c 128,-1,36
 110 600 110 600 110 754 c 128,-1,37
 110 908 110 908 216 1016 c 128,-1,16
 322 1124 322 1124 474 1124 c 128,-1,17
EndSplineSet
Validated: 1
EndChar

StartChar: approxequal
Encoding: 8776 8776 163
Width: 1178
GlyphClass: 2
Flags: W
HStem: 265 212<729.113 890.449> 535 212<287.551 448.887> 765 212<729.113 890.449> 1035 212<287.551 448.887>
VStem: 110 148<330 508.707 830 1008.71> 920 148<503.293 682 1003.29 1182>
LayerCount: 2
Fore
SplineSet
426 747 m 0,0,1
 607 747 607 747 686 594 c 0,2,3
 717 533 717 533 736 513 c 0,4,5
 768 477 768 477 816 477 c 0,6,7
 920 477 920 477 920 682 c 1,8,-1
 1058 747 l 1,9,-1
 1068 747 l 1,10,11
 1068 265 1068 265 752 265 c 0,12,13
 571 265 571 265 492 418 c 0,14,15
 461 479 461 479 442 499 c 0,16,17
 410 535 410 535 362 535 c 0,18,19
 258 535 258 535 258 330 c 1,20,-1
 120 265 l 1,21,-1
 110 265 l 1,22,23
 110 747 110 747 426 747 c 0,0,1
426 1247 m 0,24,25
 607 1247 607 1247 686 1094 c 0,26,27
 717 1033 717 1033 736 1013 c 0,28,29
 768 977 768 977 816 977 c 0,30,31
 920 977 920 977 920 1182 c 1,32,-1
 1058 1247 l 1,33,-1
 1068 1247 l 1,34,35
 1068 765 1068 765 752 765 c 0,36,37
 571 765 571 765 492 918 c 0,38,39
 461 979 461 979 442 999 c 0,40,41
 410 1035 410 1035 362 1035 c 0,42,43
 258 1035 258 1035 258 830 c 1,44,-1
 120 765 l 1,45,-1
 110 765 l 1,46,47
 110 1247 110 1247 426 1247 c 0,24,25
EndSplineSet
Validated: 1
EndChar

StartChar: notequal
Encoding: 8800 8800 164
Width: 1240
GlyphClass: 2
Flags: W
HStem: 390 270<235 365 660 1005> 850 270<235 579 875 1005>
DStem2: 262 170 430 166 0.422674 0.906282<67.3842 242.917 612.302 750.259 1120.07 1296.51>
LayerCount: 2
Fore
SplineSet
235 1120 m 1,0,-1
 705 1120 l 1,1,-1
 810 1345 l 1,2,-1
 969 1345 l 1,3,-1
 978 1341 l 1,4,-1
 875 1120 l 1,5,-1
 1130 1120 l 1,6,-1
 1130 1110 l 1,7,-1
 1005 850 l 1,8,-1
 749 850 l 1,9,-1
 660 660 l 1,10,-1
 1130 660 l 1,11,-1
 1130 650 l 1,12,-1
 1005 390 l 1,13,-1
 534 390 l 1,14,-1
 430 166 l 1,15,-1
 271 166 l 1,16,-1
 262 170 l 1,17,-1
 365 390 l 1,18,-1
 110 390 l 1,19,-1
 110 400 l 1,20,-1
 235 660 l 1,21,-1
 491 660 l 1,22,-1
 579 850 l 1,23,-1
 110 850 l 1,24,-1
 110 860 l 1,25,-1
 235 1120 l 1,0,-1
EndSplineSet
Validated: 1
EndChar

StartChar: lessequal
Encoding: 8804 8804 165
Width: 1355
GlyphClass: 2
Flags: W
HStem: 154 270<235 1070>
DStem2: 408 980 110 806 0.942398 -0.334493<0 808.778> 227 1059 408 980 0.937798 0.347181<142.314 973.557>
LayerCount: 2
Fore
SplineSet
227 1059 m 1,0,-1
 1140 1397 l 1,1,-1
 1195 1284 l 1,2,-1
 1195 1274 l 1,3,-1
 408 980 l 1,4,-1
 1195 707 l 1,5,-1
 1195 697 l 1,6,-1
 1082 461 l 1,7,-1
 110 806 l 1,8,-1
 110 816 l 1,9,-1
 227 1059 l 1,0,-1
235 424 m 1,10,-1
 1195 424 l 1,11,-1
 1195 414 l 1,12,-1
 1070 154 l 1,13,-1
 110 154 l 1,14,-1
 110 164 l 1,15,-1
 235 424 l 1,10,-1
EndSplineSet
Validated: 1
EndChar

StartChar: greaterequal
Encoding: 8805 8805 166
Width: 1355
GlyphClass: 2
Flags: W
HStem: 154 270<285 1120>
DStem2: 273 1377 160 1131 0.942398 -0.334493<0 808.778> 160 564 215 441 0.937798 0.347181<8.8757 840.118>
LayerCount: 2
Fore
SplineSet
1128 779 m 1,0,-1
 215 441 l 1,1,-1
 160 554 l 1,2,-1
 160 564 l 1,3,-1
 947 858 l 1,4,-1
 160 1131 l 1,5,-1
 160 1141 l 1,6,-1
 273 1377 l 1,7,-1
 1245 1032 l 1,8,-1
 1245 1022 l 1,9,-1
 1128 779 l 1,0,-1
285 424 m 1,10,-1
 1245 424 l 1,11,-1
 1245 414 l 1,12,-1
 1120 154 l 1,13,-1
 160 154 l 1,14,-1
 160 164 l 1,15,-1
 285 424 l 1,10,-1
EndSplineSet
Validated: 1
EndChar

StartChar: lozenge
Encoding: 9674 9674 167
Width: 1178
GlyphClass: 2
Flags: W
HStem: -20 21G<575.042 602.903> 1510 20G<575.641 602.409>
DStem2: 60 738 299 850 0.555427 0.831565<225.882 602.247> 299 850 60 738 0.5723 -0.820044<0 652.516> 589 1530 508 1163 0.556885 -0.83059<259.719 915.398> 674 316 589 -20 0.57078 0.821103<0 369.659>
LayerCount: 2
Fore
SplineSet
674 316 m 1,0,-1
 880 623 l 1,1,-1
 508 1163 l 1,2,-1
 299 850 l 1,3,-1
 674 316 l 1,0,-1
589 -20 m 1,4,-1
 60 738 l 1,5,-1
 589 1530 l 1,6,-1
 1118 741 l 1,7,-1
 589 -20 l 1,4,-1
EndSplineSet
Validated: 1
EndChar

StartChar: Oslash
Encoding: 216 216 168
Width: 1370
Flags: W
HStem: -20 150<527.982 840.349> 1379 151<532.029 840.85>
VStem: 120 320<376.024 1224.73> 930 320<285.269 1133.98>
DStem2: 250 -36 380 -40 0.422823 0.906212<51.3421 139.441 449.165 1352.32 1662.94 1750.14>
LayerCount: 2
Fore
SplineSet
686 -20 m 0,0,1
 538 -20 538 -20 417 39 c 1,2,-1
 380 -40 l 1,3,-1
 259 -40 l 1,4,-1
 250 -36 l 1,5,-1
 315 103 l 1,6,7
 300 114 300 114 286 127 c 0,8,9
 120 274 120 274 120 494 c 2,10,-1
 120 1016 l 2,11,12
 120 1238 120 1238 286 1384 c 0,13,14
 453 1530 453 1530 687 1530 c 0,15,16
 834 1530 834 1530 953 1472 c 1,17,-1
 990 1550 l 1,18,-1
 1111 1550 l 1,19,-1
 1120 1546 l 1,20,-1
 1055 1408 l 1,21,22
 1070 1396 1070 1396 1085 1383 c 0,23,24
 1250 1236 1250 1236 1250 1016 c 2,25,-1
 1250 494 l 2,26,27
 1250 272 1250 272 1085 126 c 128,-1,28
 920 -20 920 -20 686 -20 c 0,0,1
686.5 130 m 128,-1,30
 790 130 790 130 860 187 c 128,-1,31
 930 244 930 244 930 332 c 2,32,-1
 930 1139 l 1,33,-1
 493 203 l 1,34,35
 502 194 502 194 512 186 c 0,36,29
 583 130 583 130 686.5 130 c 128,-1,30
440 371 m 1,37,-1
 877 1307 l 1,38,39
 868 1315 868 1315 858 1323 c 0,40,41
 788 1379 788 1379 685 1379 c 0,42,43
 582 1378 582 1378 512 1322 c 0,44,45
 440 1264 440 1264 440 1178 c 2,46,-1
 440 371 l 1,37,-1
EndSplineSet
Validated: 1
EndChar

StartChar: oslash
Encoding: 248 248 169
Width: 1190
Flags: W
HStem: -20 140<478.301 723.522> 980 140<466.709 711.461>
VStem: 120 300<317.438 882.133> 770 300<218.852 782.562>
DStem2: 255 -36 386 -40 0.423012 0.906124<51.7901 114.541 389.659 959.967 1235.92 1297.84>
LayerCount: 2
Fore
SplineSet
594 -20 m 0,0,1
 494 -20 494 -20 410 12 c 1,2,-1
 386 -40 l 1,3,-1
 265 -40 l 1,4,-1
 255 -36 l 1,5,-1
 303 68 l 1,6,7
 281 84 281 84 260 102 c 0,8,9
 120 225 120 225 120 403 c 2,10,-1
 120 697 l 2,11,12
 120 879 120 879 260 999 c 0,13,14
 401 1120 401 1120 596 1120 c 0,15,16
 695 1120 695 1120 780 1089 c 1,17,-1
 804 1140 l 1,18,-1
 925 1140 l 1,19,-1
 935 1136 l 1,20,-1
 887 1032 l 1,21,22
 909 1016 909 1016 930 998 c 0,23,24
 1070 875 1070 875 1070 697 c 2,25,-1
 1070 403 l 2,26,27
 1070 223 1070 223 930 101 c 0,28,29
 790 -20 790 -20 594 -20 c 0,0,1
596 120 m 0,30,31
 670 120 670 120 721 159 c 0,32,33
 770 198 770 198 770 258 c 2,34,-1
 770 783 l 1,35,-1
 477 154 l 1,36,37
 526 120 526 120 596 120 c 0,30,31
420 317 m 1,38,-1
 713 946 l 1,39,40
 664 980 664 980 594 980 c 0,41,42
 520 980 520 980 469 941 c 0,43,44
 420 902 420 902 420 842 c 2,45,-1
 420 317 l 1,38,-1
EndSplineSet
Validated: 1
EndChar

StartChar: multiply
Encoding: 215 215 170
Width: 1232
Flags: W
DStem2: 439 1123 160 1020 0.707107 -0.707107<0 250.316 520.431 770.746> 160 490 439 387 0.707107 0.707107<124.451 374.767 644.881 895.197>
LayerCount: 2
Fore
SplineSet
1065 1027 m 1,0,-1
 1072 1020 l 1,1,-1
 807 755 l 1,2,-1
 1072 490 l 1,3,-1
 1065 483 l 1,4,-1
 793 387 l 1,5,-1
 616 564 l 1,6,-1
 439 387 l 1,7,-1
 167 483 l 1,8,-1
 160 490 l 1,9,-1
 425 755 l 1,10,-1
 160 1020 l 1,11,-1
 167 1027 l 1,12,-1
 439 1123 l 1,13,-1
 616 946 l 1,14,-1
 793 1123 l 1,15,-1
 1065 1027 l 1,0,-1
EndSplineSet
Validated: 1
EndChar

StartChar: divide
Encoding: 247 247 171
Width: 1240
Flags: W
HStem: 155 365<502.131 736.878> 620 270<235 1005> 990 365<502.131 736.878>
VStem: 440 360<217.566 457.578 1052.57 1292.58>
CounterMasks: 1 e0
LayerCount: 2
Fore
SplineSet
235 890 m 1,0,-1
 1130 890 l 1,1,-1
 1130 880 l 1,2,-1
 1005 620 l 1,3,-1
 110 620 l 1,4,-1
 110 630 l 1,5,-1
 235 890 l 1,0,-1
620 1355 m 128,-1,7
 695 1355 695 1355 747.5 1301.5 c 128,-1,8
 800 1248 800 1248 800 1173 c 128,-1,9
 800 1098 800 1098 747 1044 c 128,-1,10
 694 990 694 990 620 990 c 0,11,12
 544 990 544 990 492 1044 c 128,-1,13
 440 1098 440 1098 440 1172 c 0,14,15
 440 1248 440 1248 492 1301 c 0,16,6
 545 1355 545 1355 620 1355 c 128,-1,7
620 155 m 0,17,18
 544 155 544 155 492 209 c 128,-1,19
 440 263 440 263 440 337 c 0,20,21
 440 413 440 413 492 466 c 0,22,23
 545 520 545 520 620 520 c 128,-1,24
 695 520 695 520 747.5 466.5 c 128,-1,25
 800 413 800 413 800 338 c 128,-1,26
 800 263 800 263 747 209 c 128,-1,27
 694 155 694 155 620 155 c 0,17,18
EndSplineSet
Validated: 1
EndChar

StartChar: uni1E02
Encoding: 7682 7682 172
Width: 1300
Flags: W
HStem: 0 150<480 838.328> 751 150<480 811.884> 1360 150<480 811.253> 1590 364<533.131 767.338>
VStem: 160 320<150 751 901 1360> 471 360<1654.3 1891.73> 859 300<947.886 1289.98> 915 335<278.768 666.211>
LayerCount: 2
Fore
SplineSet
480 1360 m 1,0,-1
 480 901 l 1,1,-1
 695 901 l 2,2,3
 762 901 762 901 807 940 c 0,4,5
 859 985 859 985 859 1123 c 0,6,7
 859 1271 859 1271 807 1321 c 0,8,9
 766 1360 766 1360 695 1360 c 2,10,-1
 480 1360 l 1,0,-1
480 150 m 1,11,-1
 670 150 l 2,12,13
 793 150 793 150 852 206 c 0,14,15
 915 266 915 266 915 449.5 c 128,-1,16
 915 633 915 633 847 697 c 0,17,18
 789 751 789 751 670 751 c 2,19,-1
 480 751 l 1,20,-1
 480 150 l 1,11,-1
160 0 m 1,21,-1
 160 1384 l 1,22,-1
 428 1510 l 1,23,-1
 685 1510 l 2,24,25
 870 1510 870 1510 1003 1413 c 0,26,27
 1159 1299 1159 1299 1159 1112 c 0,28,29
 1159 966 1159 966 1050 858 c 1,30,31
 1070 845 1070 845 1086 831 c 0,32,33
 1250 691 1250 691 1250 485 c 0,34,35
 1250 278 1250 278 1100 139 c 0,36,37
 949 0 949 0 685 0 c 2,38,-1
 160 0 l 1,21,-1
651 1954 m 0,39,40
 727 1954 727 1954 779 1901 c 128,-1,41
 831 1848 831 1848 831 1773 c 0,42,43
 831 1699 831 1699 778 1644 c 0,44,45
 726 1590 726 1590 651 1590 c 0,46,47
 574 1590 574 1590 522.5 1644 c 128,-1,48
 471 1698 471 1698 471 1772 c 0,49,50
 471 1848 471 1848 523 1900 c 0,51,52
 576 1954 576 1954 651 1954 c 0,39,40
EndSplineSet
Validated: 1
EndChar

StartChar: uni1E03
Encoding: 7683 7683 173
Width: 1210
Flags: W
HStem: -20 140<489.169 730.958> 980 140<489.569 731.77> 1180 364<574.131 808.338> 1510 20G<387.971 440>
VStem: 140 300<220.152 933.793 1072 1392> 512 360<1244.3 1481.73> 775 315<218.852 880.148>
LayerCount: 2
Fore
SplineSet
440 264 m 2,0,1
 440 202 440 202 490 161 c 128,-1,2
 540 120 540 120 614.5 120 c 128,-1,3
 689 120 689 120 732 160.5 c 128,-1,4
 775 201 775 201 775 265 c 2,5,-1
 775 835 l 2,6,7
 775 899 775 899 732 939.5 c 128,-1,8
 689 980 689 980 614.5 980 c 128,-1,9
 540 980 540 980 490 939 c 128,-1,10
 440 898 440 898 440 836 c 2,11,-1
 440 264 l 2,0,1
614.5 -20 m 128,-1,13
 419 -20 419 -20 280 102 c 0,14,15
 140 225 140 225 140 403 c 2,16,-1
 140 1392 l 1,17,-1
 430 1530 l 1,18,-1
 440 1530 l 1,19,-1
 440 1072 l 1,20,21
 517 1120 517 1120 615 1120 c 0,22,23
 813 1120 813 1120 951 998 c 0,24,25
 1090 876 1090 876 1090 696 c 2,26,-1
 1090 403 l 2,27,28
 1090 223 1090 223 950 101 c 0,29,12
 810 -20 810 -20 614.5 -20 c 128,-1,13
692 1544 m 0,30,31
 768 1544 768 1544 820 1491 c 128,-1,32
 872 1438 872 1438 872 1363 c 0,33,34
 872 1289 872 1289 819 1234 c 0,35,36
 767 1180 767 1180 692 1180 c 0,37,38
 615 1180 615 1180 563.5 1234 c 128,-1,39
 512 1288 512 1288 512 1362 c 0,40,41
 512 1438 512 1438 564 1490 c 0,42,43
 617 1544 617 1544 692 1544 c 0,30,31
EndSplineSet
Validated: 1
EndChar

StartChar: uni1E0A
Encoding: 7690 7690 174
Width: 1390
Flags: W
HStem: 0 150<480 851.516> 1360 150<480 849.547> 1590 364<568.131 802.338>
VStem: 160 320<150 1360> 506 360<1654.3 1891.73> 940 330<307.564 1203.44>
LayerCount: 2
Fore
SplineSet
480 150 m 1,0,-1
 695 150 l 2,1,2
 798 150 798 150 870 207 c 0,3,4
 940 263 940 263 940 351 c 2,5,-1
 940 1159 l 2,6,7
 940 1247 940 1247 868 1303 c 0,8,9
 796 1360 796 1360 695 1360 c 2,10,-1
 480 1360 l 1,11,-1
 480 150 l 1,0,-1
160 0 m 1,12,-1
 160 1383 l 1,13,-1
 428 1510 l 1,14,-1
 705 1510 l 2,15,16
 939 1510 939 1510 1105 1362 c 0,17,18
 1270 1216 1270 1216 1270 997 c 2,19,-1
 1270 513 l 2,20,21
 1270 296 1270 296 1105 148 c 128,-1,22
 940 0 940 0 705 0 c 2,23,-1
 160 0 l 1,12,-1
686 1954 m 0,24,25
 762 1954 762 1954 814 1901 c 128,-1,26
 866 1848 866 1848 866 1773 c 0,27,28
 866 1699 866 1699 813 1644 c 0,29,30
 761 1590 761 1590 686 1590 c 0,31,32
 609 1590 609 1590 557.5 1644 c 128,-1,33
 506 1698 506 1698 506 1772 c 0,34,35
 506 1848 506 1848 558 1900 c 0,36,37
 611 1954 611 1954 686 1954 c 0,24,25
EndSplineSet
Validated: 1
EndChar

StartChar: uni1E0B
Encoding: 7691 7691 175
Width: 1210
Flags: W
HStem: -20 140<479.042 720.831> 980 140<478.23 720.431> 1180 364<390.131 624.338>
VStem: 120 315<218.852 880.148> 328 360<1244.3 1481.73> 770 300<220.645 933.793 1072 1392>
LayerCount: 2
Fore
SplineSet
770 836 m 2,0,1
 770 898 770 898 720 939 c 128,-1,2
 670 980 670 980 595.5 980 c 128,-1,3
 521 980 521 980 478 939.5 c 128,-1,4
 435 899 435 899 435 835 c 2,5,-1
 435 265 l 2,6,7
 435 201 435 201 478 160.5 c 128,-1,8
 521 120 521 120 595.5 120 c 128,-1,9
 670 120 670 120 720 161 c 128,-1,10
 770 202 770 202 770 264 c 2,11,-1
 770 836 l 2,0,1
595.5 -20 m 128,-1,13
 400 -20 400 -20 260 101 c 0,14,15
 120 223 120 223 120 403 c 2,16,-1
 120 696 l 2,17,18
 120 876 120 876 259 998 c 0,19,20
 397 1120 397 1120 595 1120 c 0,21,22
 693 1120 693 1120 770 1072 c 1,23,-1
 770 1392 l 1,24,-1
 1060 1530 l 1,25,-1
 1070 1530 l 1,26,-1
 1070 403 l 2,27,28
 1070 226 1070 226 930 102 c 0,29,12
 791 -20 791 -20 595.5 -20 c 128,-1,13
508 1544 m 0,30,31
 584 1544 584 1544 636 1491 c 128,-1,32
 688 1438 688 1438 688 1363 c 0,33,34
 688 1289 688 1289 635 1234 c 0,35,36
 583 1180 583 1180 508 1180 c 0,37,38
 431 1180 431 1180 379.5 1234 c 128,-1,39
 328 1288 328 1288 328 1362 c 0,40,41
 328 1438 328 1438 380 1490 c 0,42,43
 433 1544 433 1544 508 1544 c 0,30,31
EndSplineSet
Validated: 1
EndChar

StartChar: uni1E1E
Encoding: 7710 7710 176
Width: 1050
Flags: W
HStem: -20 21G<160 212.177> 680 150<480 973> 1360 150<480 973> 1590 364<491.131 725.338>
VStem: 160 320<127 680 830 1360> 429 360<1654.3 1891.73>
LayerCount: 2
Fore
SplineSet
170 -20 m 1,0,-1
 160 -20 l 1,1,-1
 160 1384 l 1,2,-1
 428 1510 l 1,3,-1
 1040 1510 l 1,4,-1
 1040 1500 l 1,5,-1
 973 1360 l 1,6,-1
 480 1360 l 1,7,-1
 480 830 l 1,8,-1
 1040 830 l 1,9,-1
 1040 820 l 1,10,-1
 973 680 l 1,11,-1
 480 680 l 1,12,-1
 480 127 l 1,13,-1
 170 -20 l 1,0,-1
609 1954 m 0,14,15
 685 1954 685 1954 737 1901 c 128,-1,16
 789 1848 789 1848 789 1773 c 0,17,18
 789 1699 789 1699 736 1644 c 0,19,20
 684 1590 684 1590 609 1590 c 0,21,22
 532 1590 532 1590 480.5 1644 c 128,-1,23
 429 1698 429 1698 429 1772 c 0,24,25
 429 1848 429 1848 481 1900 c 0,26,27
 534 1954 534 1954 609 1954 c 0,14,15
EndSplineSet
Validated: 1
EndChar

StartChar: uni1E1F
Encoding: 7711 7711 177
Width: 860
Flags: W
HStem: -20 21G<140 192.029> 732 140<440 749> 1370 140<490.569 788> 1590 364<348.131 582.338>
VStem: 140 300<118 732 872 1265.14> 286 360<1654.3 1891.73>
LayerCount: 2
Fore
SplineSet
150 -20 m 1,0,-1
 140 -20 l 1,1,-1
 140 1076 l 2,2,3
 140 1261 140 1261 280 1386 c 0,4,5
 420 1510 420 1510 615 1510 c 2,6,-1
 850 1510 l 1,7,-1
 850 1500 l 1,8,-1
 788 1370 l 1,9,-1
 615 1370 l 2,10,11
 539 1370 539 1370 489 1329 c 0,12,13
 440 1288 440 1288 440 1225 c 2,14,-1
 440 872 l 1,15,-1
 811 872 l 1,16,-1
 811 862 l 1,17,-1
 749 732 l 1,18,-1
 440 732 l 1,19,-1
 440 118 l 1,20,-1
 150 -20 l 1,0,-1
466 1954 m 0,21,22
 542 1954 542 1954 594 1901 c 128,-1,23
 646 1848 646 1848 646 1773 c 0,24,25
 646 1699 646 1699 593 1644 c 0,26,27
 541 1590 541 1590 466 1590 c 0,28,29
 389 1590 389 1590 337.5 1644 c 128,-1,30
 286 1698 286 1698 286 1772 c 0,31,32
 286 1848 286 1848 338 1900 c 0,33,34
 391 1954 391 1954 466 1954 c 0,21,22
EndSplineSet
Validated: 1
EndChar

StartChar: uni1E40
Encoding: 7744 7744 178
Width: 2220
Flags: W
HStem: -20 21G<140 192.177 950 1002.18 1760 1812.18> 1380 150<552.691 860.104 1362.54 1670.3> 1590 364<986.131 1220.34>
VStem: 140 320<127 1224.73> 924 360<1654.3 1891.73> 950 320<127 1293.7> 1760 320<127 1223.47>
LayerCount: 2
Fore
SplineSet
150 -20 m 1,0,-1
 140 -20 l 1,1,-1
 140 1016 l 2,2,3
 140 1238 140 1238 306 1384 c 128,-1,4
 472 1530 472 1530 706 1530 c 0,5,6
 942 1530 942 1530 1110 1379 c 1,7,8
 1281 1530 1281 1530 1518 1530 c 0,9,10
 1752 1530 1752 1530 1916 1383 c 128,-1,11
 2080 1236 2080 1236 2080 1016 c 2,12,-1
 2080 127 l 1,13,-1
 1770 -20 l 1,14,-1
 1760 -20 l 1,15,-1
 1760 1172 l 2,16,17
 1760 1263 1760 1263 1688 1322 c 0,18,19
 1618 1380 1618 1380 1515.5 1380 c 128,-1,20
 1413 1380 1413 1380 1341.5 1321 c 128,-1,21
 1270 1262 1270 1262 1270 1172 c 2,22,-1
 1270 127 l 1,23,-1
 960 -20 l 1,24,-1
 950 -20 l 1,25,-1
 950 1172 l 2,26,27
 950 1263 950 1263 878 1322 c 0,28,29
 808 1380 808 1380 705.5 1380 c 128,-1,30
 603 1380 603 1380 531.5 1321 c 128,-1,31
 460 1262 460 1262 460 1172 c 2,32,-1
 460 127 l 1,33,-1
 150 -20 l 1,0,-1
1104 1954 m 0,34,35
 1180 1954 1180 1954 1232 1901 c 128,-1,36
 1284 1848 1284 1848 1284 1773 c 0,37,38
 1284 1699 1284 1699 1231 1644 c 0,39,40
 1179 1590 1179 1590 1104 1590 c 0,41,42
 1027 1590 1027 1590 975.5 1644 c 128,-1,43
 924 1698 924 1698 924 1772 c 0,44,45
 924 1848 924 1848 976 1900 c 0,46,47
 1029 1954 1029 1954 1104 1954 c 0,34,35
EndSplineSet
Validated: 1
EndChar

StartChar: uni1E41
Encoding: 7745 7745 179
Width: 1880
Flags: W
HStem: -20 21G<140 192.029 790 842.029 1440 1492.03> 979 141<489.503 741.123 1138.72 1390.98> 1180 364<814.131 1048.34>
VStem: 140 300<118 881.641> 752 360<1244.3 1481.73> 790 300<118 932.793> 1440 300<118 880.148>
LayerCount: 2
Fore
SplineSet
150 -20 m 1,0,-1
 140 -20 l 1,1,-1
 140 697 l 2,2,3
 140 878 140 878 280 999 c 128,-1,4
 420 1120 420 1120 615 1120 c 0,5,6
 805 1120 805 1120 939 1007 c 1,7,8
 1076 1120 1076 1120 1265 1120 c 0,9,10
 1463 1120 1463 1120 1601 998 c 0,11,12
 1740 876 1740 876 1740 696 c 2,13,-1
 1740 118 l 1,14,-1
 1450 -20 l 1,15,-1
 1440 -20 l 1,16,-1
 1440 834 l 2,17,18
 1440 898 1440 898 1389.5 938.5 c 128,-1,19
 1339 979 1339 979 1264.5 979 c 128,-1,20
 1190 979 1190 979 1140 938 c 128,-1,21
 1090 897 1090 897 1090 835 c 2,22,-1
 1090 118 l 1,23,-1
 800 -20 l 1,24,-1
 790 -20 l 1,25,-1
 790 834 l 2,26,27
 790 898 790 898 739.5 938.5 c 128,-1,28
 689 979 689 979 614.5 979 c 128,-1,29
 540 979 540 979 490 938 c 128,-1,30
 440 897 440 897 440 835 c 2,31,-1
 440 118 l 1,32,-1
 150 -20 l 1,0,-1
932 1544 m 0,33,34
 1008 1544 1008 1544 1060 1491 c 128,-1,35
 1112 1438 1112 1438 1112 1363 c 0,36,37
 1112 1289 1112 1289 1059 1234 c 0,38,39
 1007 1180 1007 1180 932 1180 c 0,40,41
 855 1180 855 1180 803.5 1234 c 128,-1,42
 752 1288 752 1288 752 1362 c 0,43,44
 752 1438 752 1438 804 1490 c 0,45,46
 857 1544 857 1544 932 1544 c 0,33,34
EndSplineSet
Validated: 1
EndChar

StartChar: uni1E56
Encoding: 7766 7766 180
Width: 1270
Flags: W
HStem: -20 21G<160 212.177> 440 151<480 805.942> 1360 150<480 807.573> 1590 364<524.131 758.338>
VStem: 160 320<127 440 591 1360> 462 360<1654.3 1891.73> 905 335<759.852 1190.22>
LayerCount: 2
Fore
SplineSet
480 591 m 1,0,-1
 677 591 l 2,1,2
 775 591 775 591 840 662 c 128,-1,3
 905 733 905 733 905 975 c 128,-1,4
 905 1217 905 1217 840 1288.5 c 128,-1,5
 775 1360 775 1360 677 1360 c 2,6,-1
 480 1360 l 1,7,-1
 480 591 l 1,0,-1
170 -20 m 1,8,-1
 160 -20 l 1,9,-1
 160 1383 l 1,10,-1
 428 1510 l 1,11,-1
 686 1510 l 2,12,13
 926 1510 926 1510 1082 1353 c 0,14,15
 1240 1196 1240 1196 1240 975 c 128,-1,16
 1240 754 1240 754 1081 597 c 128,-1,17
 922 440 922 440 686 440 c 2,18,-1
 480 440 l 1,19,-1
 480 127 l 1,20,-1
 170 -20 l 1,8,-1
642 1954 m 0,21,22
 718 1954 718 1954 770 1901 c 128,-1,23
 822 1848 822 1848 822 1773 c 0,24,25
 822 1699 822 1699 769 1644 c 0,26,27
 717 1590 717 1590 642 1590 c 0,28,29
 565 1590 565 1590 513.5 1644 c 128,-1,30
 462 1698 462 1698 462 1772 c 0,31,32
 462 1848 462 1848 514 1900 c 0,33,34
 567 1954 567 1954 642 1954 c 0,21,22
EndSplineSet
Validated: 1
EndChar

StartChar: uni1E57
Encoding: 7767 7767 181
Width: 1210
Flags: W
HStem: -430 21G<140 192.029> -20 140<489.569 731.77> 980 140<489.169 730.958> 1180 364<495.131 729.338>
VStem: 140 300<-292 28 166.207 879.355> 433 360<1244.3 1481.73> 775 315<219.852 881.148>
LayerCount: 2
Fore
SplineSet
440 264 m 2,0,1
 440 202 440 202 490 161 c 128,-1,2
 540 120 540 120 614.5 120 c 128,-1,3
 689 120 689 120 732 160.5 c 128,-1,4
 775 201 775 201 775 265 c 2,5,-1
 775 835 l 2,6,7
 775 899 775 899 732 939.5 c 128,-1,8
 689 980 689 980 614.5 980 c 128,-1,9
 540 980 540 980 490 939 c 128,-1,10
 440 898 440 898 440 836 c 2,11,-1
 440 264 l 2,0,1
150 -430 m 1,12,-1
 140 -430 l 1,13,-1
 140 697 l 2,14,15
 140 874 140 874 280 998 c 0,16,17
 419 1120 419 1120 614.5 1120 c 128,-1,18
 810 1120 810 1120 950 999 c 0,19,20
 1090 877 1090 877 1090 697 c 2,21,-1
 1090 404 l 2,22,23
 1090 224 1090 224 951 102 c 0,24,25
 813 -20 813 -20 615 -20 c 0,26,27
 517 -20 517 -20 440 28 c 1,28,-1
 440 -292 l 1,29,-1
 150 -430 l 1,12,-1
613 1544 m 0,30,31
 689 1544 689 1544 741 1491 c 128,-1,32
 793 1438 793 1438 793 1363 c 0,33,34
 793 1289 793 1289 740 1234 c 0,35,36
 688 1180 688 1180 613 1180 c 0,37,38
 536 1180 536 1180 484.5 1234 c 128,-1,39
 433 1288 433 1288 433 1362 c 0,40,41
 433 1438 433 1438 485 1490 c 0,42,43
 538 1544 538 1544 613 1544 c 0,30,31
EndSplineSet
Validated: 1
EndChar

StartChar: uni1E6A
Encoding: 7786 7786 182
Width: 1190
Flags: W
HStem: -20 21G<435 487.466> 1360 150<77 435 755 1113> 1590 364<471.131 705.338>
VStem: 409 360<1654.3 1891.73> 435 320<126 1360>
LayerCount: 2
Fore
SplineSet
445 -20 m 1,0,-1
 435 -20 l 1,1,-1
 435 1360 l 1,2,-1
 10 1360 l 1,3,-1
 10 1370 l 1,4,-1
 77 1510 l 1,5,-1
 1180 1510 l 1,6,-1
 1180 1500 l 1,7,-1
 1113 1360 l 1,8,-1
 755 1360 l 1,9,-1
 755 126 l 1,10,-1
 445 -20 l 1,0,-1
589 1954 m 0,11,12
 665 1954 665 1954 717 1901 c 128,-1,13
 769 1848 769 1848 769 1773 c 0,14,15
 769 1699 769 1699 716 1644 c 0,16,17
 664 1590 664 1590 589 1590 c 0,18,19
 512 1590 512 1590 460.5 1644 c 128,-1,20
 409 1698 409 1698 409 1772 c 0,21,22
 409 1848 409 1848 461 1900 c 0,23,24
 514 1954 514 1954 589 1954 c 0,11,12
EndSplineSet
Validated: 1
EndChar

StartChar: uni1E6B
Encoding: 7787 7787 183
Width: 890
Flags: W
HStem: -20 21G<300 351.985> 960 140<72 300 585 818> 1510 20G<533.015 585> 1590 364<327.131 561.338>
VStem: 265 360<1654.3 1891.73> 300 285<111 960 1100 1399>
LayerCount: 2
Fore
SplineSet
310 -20 m 1,0,-1
 300 -20 l 1,1,-1
 300 960 l 1,2,-1
 10 960 l 1,3,-1
 10 970 l 1,4,-1
 72 1100 l 1,5,-1
 300 1100 l 1,6,-1
 300 1399 l 1,7,-1
 575 1530 l 1,8,-1
 585 1530 l 1,9,-1
 585 1100 l 1,10,-1
 880 1100 l 1,11,-1
 880 1090 l 1,12,-1
 818 960 l 1,13,-1
 585 960 l 1,14,-1
 585 111 l 1,15,-1
 310 -20 l 1,0,-1
445 1954 m 0,16,17
 521 1954 521 1954 573 1901 c 128,-1,18
 625 1848 625 1848 625 1773 c 0,19,20
 625 1699 625 1699 572 1644 c 0,21,22
 520 1590 520 1590 445 1590 c 0,23,24
 368 1590 368 1590 316.5 1644 c 128,-1,25
 265 1698 265 1698 265 1772 c 0,26,27
 265 1848 265 1848 317 1900 c 0,28,29
 370 1954 370 1954 445 1954 c 0,16,17
EndSplineSet
Validated: 1
EndChar

StartChar: uni1E60
Encoding: 7776 7776 184
Width: 1199
Flags: W
HStem: -20 150<441.616 696.43> 1380 150<496.032 687.89> 1590 364<471.131 705.338>
VStem: 122 325<961.937 1299.52> 409 360<1654.3 1891.73> 798 351<283.923 636.887>
LayerCount: 2
Fore
SplineSet
583.5 -20 m 128,-1,1
 349 -20 349 -20 184 131 c 0,2,3
 66 239 66 239 30 395 c 1,4,-1
 343 543 l 1,5,-1
 353 543 l 1,6,-1
 353 384 l 2,7,8
 353 241 353 241 424 185 c 0,9,10
 495 130 495 130 564 130 c 0,11,12
 648 130 648 130 713 187 c 0,13,14
 798 263 798 263 798 426 c 0,15,16
 798 602 798 602 727 674 c 0,17,18
 668 734 668 734 574 743 c 0,19,20
 362 764 362 764 247 857 c 0,21,22
 122 959 122 959 122 1123 c 0,23,24
 122 1294 122 1294 259 1412 c 128,-1,25
 396 1530 396 1530 593 1530 c 0,26,27
 787 1530 787 1530 919 1404 c 0,28,29
 1019 1309 1019 1309 1046 1194 c 1,30,-1
 738 1048 l 1,31,-1
 728 1048 l 1,32,-1
 728 1155 l 2,33,34
 728 1281 728 1281 697 1326 c 0,35,36
 659 1380 659 1380 596 1380 c 0,37,38
 545 1380 545 1380 504 1345 c 0,39,40
 447 1296 447 1296 447 1155 c 0,41,42
 447 962 447 962 536 927 c 0,43,44
 587 907 587 907 634 902 c 0,45,46
 913 876 913 876 1032 761 c 0,47,48
 1149 648 1149 648 1149 488 c 0,49,50
 1149 271 1149 271 983 125 c 0,51,0
 818 -20 818 -20 583.5 -20 c 128,-1,1
589 1954 m 0,52,53
 665 1954 665 1954 717 1901 c 128,-1,54
 769 1848 769 1848 769 1773 c 0,55,56
 769 1699 769 1699 716 1644 c 0,57,58
 664 1590 664 1590 589 1590 c 0,59,60
 512 1590 512 1590 460.5 1644 c 128,-1,61
 409 1698 409 1698 409 1772 c 0,62,63
 409 1848 409 1848 461 1900 c 0,64,65
 514 1954 514 1954 589 1954 c 0,52,53
EndSplineSet
Validated: 1
EndChar

StartChar: uni1E61
Encoding: 7777 7777 185
Width: 967
Flags: W
HStem: -20 140<360.099 575.991> 980 140<398.909 550.924> 1180 364<352.131 586.338>
VStem: 86 284<681.063 949.922> 290 360<1244.3 1481.73> 619 308<185.362 456.591>
LayerCount: 2
Fore
SplineSet
467 -20 m 0,0,1
 267 -20 267 -20 142 92 c 0,2,3
 47 177 47 177 20 300 c 1,4,-1
 296 430 l 1,5,-1
 306 430 l 1,6,-1
 306 314 l 2,7,8
 306 221 306 221 352 172 c 0,9,10
 401 120 401 120 468 120 c 0,11,12
 532 120 532 120 577 164 c 0,13,14
 619 205 619 205 619 312 c 0,15,16
 619 424 619 424 558 472 c 0,17,18
 516 506 516 506 447 511 c 0,19,20
 290 524 290 524 200 585 c 0,21,22
 86 661 86 661 86 809 c 0,23,24
 86 952 86 952 198.5 1036 c 128,-1,25
 311 1120 311 1120 478 1120 c 0,26,27
 640 1120 640 1120 746 1023 c 0,28,29
 825 951 825 951 852 854 c 1,30,-1
 590 729 l 1,31,-1
 580 729 l 1,32,-1
 580 826 l 2,33,34
 580 894 580 894 553 933 c 0,35,36
 521 980 521 980 476 980 c 0,37,38
 428 980 428 980 399 943 c 128,-1,39
 370 906 370 906 370 819 c 0,40,41
 370 717 370 717 412 682 c 0,42,43
 443 656 443 656 523 651 c 0,44,45
 730 637 730 637 826 563 c 0,46,47
 927 484 927 484 927 358 c 0,48,49
 927 191 927 191 794 86 c 0,50,51
 660 -20 660 -20 467 -20 c 0,0,1
470 1544 m 0,52,53
 546 1544 546 1544 598 1491 c 128,-1,54
 650 1438 650 1438 650 1363 c 0,55,56
 650 1289 650 1289 597 1234 c 0,57,58
 545 1180 545 1180 470 1180 c 0,59,60
 393 1180 393 1180 341.5 1234 c 128,-1,61
 290 1288 290 1288 290 1362 c 0,62,63
 290 1438 290 1438 342 1490 c 0,64,65
 395 1544 395 1544 470 1544 c 0,52,53
EndSplineSet
Validated: 1
EndChar

StartChar: Wgrave
Encoding: 7808 7808 186
Width: 2220
Flags: W
HStem: -20 150<549.702 857.458 1359.9 1667.31> 1510 20G<407.823 460 1217.82 1270 2027.82 2080>
VStem: 140 320<286.533 1383> 950 320<216.296 1383> 1760 320<285.269 1383>
DStem2: 1090 1980 900 1895 0.429396 -0.903116<0 356.108>
CounterMasks: 1 38
LayerCount: 2
Fore
SplineSet
702 -20 m 0,0,1
 468 -20 468 -20 304 127 c 128,-1,2
 140 274 140 274 140 494 c 2,3,-1
 140 1383 l 1,4,-1
 450 1530 l 1,5,-1
 460 1530 l 1,6,-1
 460 338 l 2,7,8
 460 247 460 247 532 188 c 0,9,10
 602 130 602 130 704.5 130 c 128,-1,11
 807 130 807 130 878.5 189 c 128,-1,12
 950 248 950 248 950 338 c 2,13,-1
 950 1383 l 1,14,-1
 1260 1530 l 1,15,-1
 1270 1530 l 1,16,-1
 1270 338 l 2,17,18
 1270 247 1270 247 1342 188 c 0,19,20
 1412 130 1412 130 1514.5 130 c 128,-1,21
 1617 130 1617 130 1688.5 189 c 128,-1,22
 1760 248 1760 248 1760 338 c 2,23,-1
 1760 1383 l 1,24,-1
 2070 1530 l 1,25,-1
 2080 1530 l 1,26,-1
 2080 494 l 2,27,28
 2080 272 2080 272 1914 126 c 128,-1,29
 1748 -20 1748 -20 1514 -20 c 0,30,31
 1278 -20 1278 -20 1110 131 c 1,32,33
 939 -20 939 -20 702 -20 c 0,0,1
1080 1980 m 1,34,-1
 1090 1980 l 1,35,-1
 1245 1654 l 1,36,-1
 1067 1570 l 1,37,-1
 1057 1570 l 1,38,-1
 900 1895 l 1,39,-1
 1080 1980 l 1,34,-1
EndSplineSet
Validated: 1
EndChar

StartChar: wgrave
Encoding: 7809 7809 187
Width: 1880
Flags: W
HStem: -20 141<489.024 741.28 1138.88 1390.5> 1100 20G<387.971 440 1037.97 1090 1687.97 1740>
VStem: 140 300<219.852 982> 790 300<167.207 982> 1440 300<218.359 982>
DStem2: 909 1570 719 1485 0.429396 -0.903116<0 356.108>
CounterMasks: 1 38
LayerCount: 2
Fore
SplineSet
615 -20 m 0,0,1
 417 -20 417 -20 279 102 c 0,2,3
 140 224 140 224 140 404 c 2,4,-1
 140 982 l 1,5,-1
 430 1120 l 1,6,-1
 440 1120 l 1,7,-1
 440 266 l 2,8,9
 440 202 440 202 490.5 161.5 c 128,-1,10
 541 121 541 121 615.5 121 c 128,-1,11
 690 121 690 121 740 162 c 128,-1,12
 790 203 790 203 790 265 c 2,13,-1
 790 982 l 1,14,-1
 1080 1120 l 1,15,-1
 1090 1120 l 1,16,-1
 1090 266 l 2,17,18
 1090 202 1090 202 1140.5 161.5 c 128,-1,19
 1191 121 1191 121 1265.5 121 c 128,-1,20
 1340 121 1340 121 1390 162 c 128,-1,21
 1440 203 1440 203 1440 265 c 2,22,-1
 1440 982 l 1,23,-1
 1730 1120 l 1,24,-1
 1740 1120 l 1,25,-1
 1740 403 l 2,26,27
 1740 222 1740 222 1600 101 c 128,-1,28
 1460 -20 1460 -20 1265 -20 c 0,29,30
 1075 -20 1075 -20 941 93 c 1,31,32
 804 -20 804 -20 615 -20 c 0,0,1
899 1570 m 1,33,-1
 909 1570 l 1,34,-1
 1064 1244 l 1,35,-1
 886 1160 l 1,36,-1
 876 1160 l 1,37,-1
 719 1485 l 1,38,-1
 899 1570 l 1,33,-1
EndSplineSet
Validated: 1
EndChar

StartChar: Wacute
Encoding: 7810 7810 188
Width: 2220
Flags: W
HStem: -20 150<549.702 857.458 1359.9 1667.31> 1510 20G<407.823 460 1217.82 1270 2027.82 2080>
VStem: 140 320<286.533 1383> 950 320<216.296 1383> 1760 320<285.269 1383>
DStem2: 946 1654 1134 1570 0.429396 0.903116<4.86464 360.972>
CounterMasks: 1 38
LayerCount: 2
Fore
SplineSet
702 -20 m 0,0,1
 468 -20 468 -20 304 127 c 128,-1,2
 140 274 140 274 140 494 c 2,3,-1
 140 1383 l 1,4,-1
 450 1530 l 1,5,-1
 460 1530 l 1,6,-1
 460 338 l 2,7,8
 460 247 460 247 532 188 c 0,9,10
 602 130 602 130 704.5 130 c 128,-1,11
 807 130 807 130 878.5 189 c 128,-1,12
 950 248 950 248 950 338 c 2,13,-1
 950 1383 l 1,14,-1
 1260 1530 l 1,15,-1
 1270 1530 l 1,16,-1
 1270 338 l 2,17,18
 1270 247 1270 247 1342 188 c 0,19,20
 1412 130 1412 130 1514.5 130 c 128,-1,21
 1617 130 1617 130 1688.5 189 c 128,-1,22
 1760 248 1760 248 1760 338 c 2,23,-1
 1760 1383 l 1,24,-1
 2070 1530 l 1,25,-1
 2080 1530 l 1,26,-1
 2080 494 l 2,27,28
 2080 272 2080 272 1914 126 c 128,-1,29
 1748 -20 1748 -20 1514 -20 c 0,30,31
 1278 -20 1278 -20 1110 131 c 1,32,33
 939 -20 939 -20 702 -20 c 0,0,1
1111 1980 m 1,34,-1
 1291 1895 l 1,35,-1
 1134 1570 l 1,36,-1
 1124 1570 l 1,37,-1
 946 1654 l 1,38,-1
 1101 1980 l 1,39,-1
 1111 1980 l 1,34,-1
EndSplineSet
Validated: 1
EndChar

StartChar: wacute
Encoding: 7811 7811 189
Width: 1880
Flags: W
HStem: -20 141<489.024 741.28 1138.88 1390.5> 1100 20G<387.971 440 1037.97 1090 1687.97 1740>
VStem: 140 300<219.852 982> 790 300<167.207 982> 1440 300<218.359 982>
DStem2: 766 1244 954 1160 0.429396 0.903116<4.86464 360.972>
CounterMasks: 1 38
LayerCount: 2
Fore
SplineSet
615 -20 m 0,0,1
 417 -20 417 -20 279 102 c 0,2,3
 140 224 140 224 140 404 c 2,4,-1
 140 982 l 1,5,-1
 430 1120 l 1,6,-1
 440 1120 l 1,7,-1
 440 266 l 2,8,9
 440 202 440 202 490.5 161.5 c 128,-1,10
 541 121 541 121 615.5 121 c 128,-1,11
 690 121 690 121 740 162 c 128,-1,12
 790 203 790 203 790 265 c 2,13,-1
 790 982 l 1,14,-1
 1080 1120 l 1,15,-1
 1090 1120 l 1,16,-1
 1090 266 l 2,17,18
 1090 202 1090 202 1140.5 161.5 c 128,-1,19
 1191 121 1191 121 1265.5 121 c 128,-1,20
 1340 121 1340 121 1390 162 c 128,-1,21
 1440 203 1440 203 1440 265 c 2,22,-1
 1440 982 l 1,23,-1
 1730 1120 l 1,24,-1
 1740 1120 l 1,25,-1
 1740 403 l 2,26,27
 1740 222 1740 222 1600 101 c 128,-1,28
 1460 -20 1460 -20 1265 -20 c 0,29,30
 1075 -20 1075 -20 941 93 c 1,31,32
 804 -20 804 -20 615 -20 c 0,0,1
931 1570 m 1,33,-1
 1111 1485 l 1,34,-1
 954 1160 l 1,35,-1
 944 1160 l 1,36,-1
 766 1244 l 1,37,-1
 921 1570 l 1,38,-1
 931 1570 l 1,33,-1
EndSplineSet
Validated: 1
EndChar

StartChar: Wdieresis
Encoding: 7812 7812 190
Width: 2220
Flags: W
HStem: -20 150<549.702 857.458 1359.9 1667.31> 1510 20G<407.823 460 1217.82 1270 2027.82 2080> 1620 297<821.833 1025.65 1159.83 1364.17>
VStem: 140 320<286.533 1383> 778 292<1665.38 1871.62> 950 320<216.296 1383> 1116 292<1665.38 1871.62> 1760 320<285.269 1383>
LayerCount: 2
Fore
SplineSet
702 -20 m 0,0,1
 468 -20 468 -20 304 127 c 128,-1,2
 140 274 140 274 140 494 c 2,3,-1
 140 1383 l 1,4,-1
 450 1530 l 1,5,-1
 460 1530 l 1,6,-1
 460 338 l 2,7,8
 460 247 460 247 532 188 c 0,9,10
 602 130 602 130 704.5 130 c 128,-1,11
 807 130 807 130 878.5 189 c 128,-1,12
 950 248 950 248 950 338 c 2,13,-1
 950 1383 l 1,14,-1
 1260 1530 l 1,15,-1
 1270 1530 l 1,16,-1
 1270 338 l 2,17,18
 1270 247 1270 247 1342 188 c 0,19,20
 1412 130 1412 130 1514.5 130 c 128,-1,21
 1617 130 1617 130 1688.5 189 c 128,-1,22
 1760 248 1760 248 1760 338 c 2,23,-1
 1760 1383 l 1,24,-1
 2070 1530 l 1,25,-1
 2080 1530 l 1,26,-1
 2080 494 l 2,27,28
 2080 272 2080 272 1914 126 c 128,-1,29
 1748 -20 1748 -20 1514 -20 c 0,30,31
 1278 -20 1278 -20 1110 131 c 1,32,33
 939 -20 939 -20 702 -20 c 0,0,1
1262.5 1917 m 128,-1,35
 1323 1917 1323 1917 1365.5 1873 c 128,-1,36
 1408 1829 1408 1829 1408 1768.5 c 128,-1,37
 1408 1708 1408 1708 1365.5 1664 c 128,-1,38
 1323 1620 1323 1620 1262 1620 c 128,-1,39
 1201 1620 1201 1620 1158.5 1664 c 128,-1,40
 1116 1708 1116 1708 1116 1768 c 0,41,42
 1116 1829 1116 1829 1159 1872 c 0,43,34
 1202 1917 1202 1917 1262.5 1917 c 128,-1,35
923.5 1917 m 128,-1,45
 984 1917 984 1917 1027 1873 c 128,-1,46
 1070 1829 1070 1829 1070 1768.5 c 128,-1,47
 1070 1708 1070 1708 1027 1664 c 128,-1,48
 984 1620 984 1620 924 1620 c 0,49,50
 863 1620 863 1620 820.5 1664 c 128,-1,51
 778 1708 778 1708 778 1768 c 0,52,53
 778 1829 778 1829 820 1872 c 0,54,44
 863 1917 863 1917 923.5 1917 c 128,-1,45
EndSplineSet
Validated: 1
EndChar

StartChar: wdieresis
Encoding: 7813 7813 191
Width: 1880
Flags: W
HStem: -20 141<489.024 741.28 1138.88 1390.5> 1100 20G<387.971 440 1037.97 1090 1687.97 1740> 1210 297<657.833 861.652 995.833 1200.17>
VStem: 140 300<219.852 982> 614 292<1255.38 1461.62> 790 300<167.207 982> 952 292<1255.38 1461.62> 1440 300<218.359 982>
LayerCount: 2
Fore
SplineSet
615 -20 m 0,0,1
 417 -20 417 -20 279 102 c 0,2,3
 140 224 140 224 140 404 c 2,4,-1
 140 982 l 1,5,-1
 430 1120 l 1,6,-1
 440 1120 l 1,7,-1
 440 266 l 2,8,9
 440 202 440 202 490.5 161.5 c 128,-1,10
 541 121 541 121 615.5 121 c 128,-1,11
 690 121 690 121 740 162 c 128,-1,12
 790 203 790 203 790 265 c 2,13,-1
 790 982 l 1,14,-1
 1080 1120 l 1,15,-1
 1090 1120 l 1,16,-1
 1090 266 l 2,17,18
 1090 202 1090 202 1140.5 161.5 c 128,-1,19
 1191 121 1191 121 1265.5 121 c 128,-1,20
 1340 121 1340 121 1390 162 c 128,-1,21
 1440 203 1440 203 1440 265 c 2,22,-1
 1440 982 l 1,23,-1
 1730 1120 l 1,24,-1
 1740 1120 l 1,25,-1
 1740 403 l 2,26,27
 1740 222 1740 222 1600 101 c 128,-1,28
 1460 -20 1460 -20 1265 -20 c 0,29,30
 1075 -20 1075 -20 941 93 c 1,31,32
 804 -20 804 -20 615 -20 c 0,0,1
1098.5 1507 m 128,-1,34
 1159 1507 1159 1507 1201.5 1463 c 128,-1,35
 1244 1419 1244 1419 1244 1358.5 c 128,-1,36
 1244 1298 1244 1298 1201.5 1254 c 128,-1,37
 1159 1210 1159 1210 1098 1210 c 128,-1,38
 1037 1210 1037 1210 994.5 1254 c 128,-1,39
 952 1298 952 1298 952 1358 c 0,40,41
 952 1419 952 1419 995 1462 c 0,42,33
 1038 1507 1038 1507 1098.5 1507 c 128,-1,34
759.5 1507 m 128,-1,44
 820 1507 820 1507 863 1463 c 128,-1,45
 906 1419 906 1419 906 1358.5 c 128,-1,46
 906 1298 906 1298 863 1254 c 128,-1,47
 820 1210 820 1210 760 1210 c 0,48,49
 699 1210 699 1210 656.5 1254 c 128,-1,50
 614 1298 614 1298 614 1358 c 0,51,52
 614 1419 614 1419 656 1462 c 0,53,43
 699 1507 699 1507 759.5 1507 c 128,-1,44
EndSplineSet
Validated: 1
EndChar

StartChar: Ygrave
Encoding: 7922 7922 192
Width: 1270
Flags: W
HStem: -20 21G<475 527.177> 1510 20G<347.823 400 1137.82 1190>
VStem: 80 320<683.533 1383> 475 320<127 410.017> 870 320<682.269 1383>
DStem2: 688 1980 498 1895 0.429396 -0.903116<0 356.108>
CounterMasks: 1 38
LayerCount: 2
Fore
SplineSet
485 -20 m 1,0,-1
 475 -20 l 1,1,-1
 475 397 l 1,2,3
 348 431 348 431 244 524 c 0,4,5
 80 671 80 671 80 891 c 2,6,-1
 80 1383 l 1,7,-1
 390 1530 l 1,8,-1
 400 1530 l 1,9,-1
 400 735 l 2,10,11
 400 652 400 652 472 585 c 0,12,13
 534 527 534 527 635 527 c 128,-1,14
 736 527 736 527 803 586 c 128,-1,15
 870 645 870 645 870 735 c 2,16,-1
 870 1383 l 1,17,-1
 1180 1530 l 1,18,-1
 1190 1530 l 1,19,-1
 1190 891 l 2,20,21
 1190 669 1190 669 1024 523 c 0,22,23
 921 432 921 432 795 398 c 1,24,-1
 795 127 l 1,25,-1
 485 -20 l 1,0,-1
678 1980 m 1,26,-1
 688 1980 l 1,27,-1
 843 1654 l 1,28,-1
 665 1570 l 1,29,-1
 655 1570 l 1,30,-1
 498 1895 l 1,31,-1
 678 1980 l 1,26,-1
EndSplineSet
Validated: 1
EndChar

StartChar: ygrave
Encoding: 7923 7923 193
Width: 1250
Flags: W
HStem: -410 140<342 739.462> -20 140<489.562 742.578> 1100 20G<387.971 440 1037.97 1090>
VStem: 140 300<220.152 982> 790 300<-169.535 28 162.702 982>
DStem2: 649 1570 459 1485 0.429396 -0.903116<0 356.108>
LayerCount: 2
Fore
SplineSet
614 -20 m 0,0,1
 419 -20 419 -20 280 102 c 0,2,3
 140 225 140 225 140 403 c 2,4,-1
 140 982 l 1,5,-1
 430 1120 l 1,6,-1
 440 1120 l 1,7,-1
 440 258 l 2,8,9
 440 198 440 198 491 158 c 0,10,11
 541 120 541 120 615.5 120 c 128,-1,12
 690 120 690 120 741 159 c 0,13,14
 790 198 790 198 790 258 c 2,15,-1
 790 982 l 1,16,-1
 1080 1120 l 1,17,-1
 1090 1120 l 1,18,-1
 1090 24 l 2,19,20
 1090 -168 1090 -168 950 -289 c 0,21,22
 809 -410 809 -410 615 -410 c 2,23,-1
 280 -410 l 1,24,-1
 280 -400 l 1,25,-1
 342 -270 l 1,26,-1
 615 -270 l 2,27,28
 692 -270 692 -270 741 -229 c 128,-1,29
 790 -188 790 -188 790 -125 c 2,30,-1
 790 28 l 1,31,32
 715 -20 715 -20 614 -20 c 0,0,1
639 1570 m 1,33,-1
 649 1570 l 1,34,-1
 804 1244 l 1,35,-1
 626 1160 l 1,36,-1
 616 1160 l 1,37,-1
 459 1485 l 1,38,-1
 639 1570 l 1,33,-1
EndSplineSet
Validated: 1
EndChar

StartChar: AE
Encoding: 198 198 194
Width: 1728
Flags: W
HStem: -20 21G<140 192.177> 0 150<1108 1651> 680 150<460 788 1108 1601> 1360 150<1108 1601> 1380 150<546.442 786.765>
VStem: 140 320<127 680 830 1223.47> 788 320<150 680 830 1360>
LayerCount: 2
Fore
SplineSet
1651 0 m 1,0,-1
 788 0 l 1,1,-1
 788 680 l 1,2,-1
 460 680 l 1,3,-1
 460 127 l 1,4,-1
 150 -20 l 1,5,-1
 140 -20 l 1,6,-1
 140 1016 l 2,7,8
 140 1236 140 1236 306.5 1383 c 128,-1,9
 473 1530 473 1530 706 1530 c 0,10,11
 789 1530 789 1530 863 1510 c 1,12,-1
 1668 1510 l 1,13,-1
 1668 1500 l 1,14,-1
 1601 1360 l 1,15,-1
 1108 1360 l 1,16,-1
 1108 830 l 1,17,-1
 1668 830 l 1,18,-1
 1668 820 l 1,19,-1
 1601 680 l 1,20,-1
 1108 680 l 1,21,-1
 1108 150 l 1,22,-1
 1718 150 l 1,23,-1
 1718 140 l 1,24,-1
 1651 0 l 1,0,-1
788 1368 m 1,25,26
 749 1380 749 1380 706 1380 c 0,27,28
 604 1380 604 1380 532 1326 c 0,29,30
 460 1270 460 1270 460 1188 c 2,31,-1
 460 830 l 1,32,-1
 788 830 l 1,33,-1
 788 1368 l 1,25,26
EndSplineSet
Validated: 1
EndChar

StartChar: Eth
Encoding: 208 208 195
Width: 1390
Flags: W
HStem: 0 150<480 851.516> 680 150<67 160 480 738> 1360 150<480 849.547>
VStem: 160 320<150 680 830 1360> 940 330<307.564 1203.44>
CounterMasks: 1 e0
LayerCount: 2
Fore
SplineSet
480 150 m 1,0,-1
 695 150 l 2,1,2
 798 150 798 150 870 207 c 0,3,4
 940 263 940 263 940 351 c 2,5,-1
 940 1159 l 2,6,7
 940 1247 940 1247 868 1303 c 0,8,9
 796 1360 796 1360 695 1360 c 2,10,-1
 480 1360 l 1,11,-1
 480 830 l 1,12,-1
 805 830 l 1,13,-1
 805 820 l 1,14,-1
 738 680 l 1,15,-1
 480 680 l 1,16,-1
 480 150 l 1,0,-1
160 0 m 1,17,-1
 160 680 l 1,18,-1
 0 680 l 1,19,-1
 0 690 l 1,20,-1
 67 830 l 1,21,-1
 160 830 l 1,22,-1
 160 1383 l 1,23,-1
 428 1510 l 1,24,-1
 705 1510 l 2,25,26
 939 1510 939 1510 1105 1362 c 0,27,28
 1270 1216 1270 1216 1270 997 c 2,29,-1
 1270 513 l 2,30,31
 1270 296 1270 296 1105 148 c 128,-1,32
 940 0 940 0 705 0 c 2,33,-1
 160 0 l 1,17,-1
EndSplineSet
Validated: 1
EndChar

StartChar: Dcroat
Encoding: 272 272 196
Width: 1390
Flags: W
HStem: 0 150<480 851.516> 680 150<67 160 480 738> 1360 150<480 849.547>
VStem: 160 320<150 680 830 1360> 940 330<307.564 1203.44>
CounterMasks: 1 e0
LayerCount: 2
Fore
SplineSet
480 150 m 1,0,-1
 695 150 l 2,1,2
 798 150 798 150 870 207 c 0,3,4
 940 263 940 263 940 351 c 2,5,-1
 940 1159 l 2,6,7
 940 1247 940 1247 868 1303 c 0,8,9
 796 1360 796 1360 695 1360 c 2,10,-1
 480 1360 l 1,11,-1
 480 830 l 1,12,-1
 805 830 l 1,13,-1
 805 820 l 1,14,-1
 738 680 l 1,15,-1
 480 680 l 1,16,-1
 480 150 l 1,0,-1
160 0 m 1,17,-1
 160 680 l 1,18,-1
 0 680 l 1,19,-1
 0 690 l 1,20,-1
 67 830 l 1,21,-1
 160 830 l 1,22,-1
 160 1383 l 1,23,-1
 428 1510 l 1,24,-1
 705 1510 l 2,25,26
 939 1510 939 1510 1105 1362 c 0,27,28
 1270 1216 1270 1216 1270 997 c 2,29,-1
 1270 513 l 2,30,31
 1270 296 1270 296 1105 148 c 128,-1,32
 940 0 940 0 705 0 c 2,33,-1
 160 0 l 1,17,-1
EndSplineSet
Validated: 1
EndChar

StartChar: Hbar
Encoding: 294 294 197
Width: 1440
Flags: W
HStem: -20 21G<160 212.177 960 1012.18> 680 150<480 960> 1212 150<97 160 480 960 1280 1343> 1510 20G<427.823 480 1227.82 1280>
VStem: 160 320<127 680 830 1212 1362 1383> 960 320<127 680 830 1212 1362 1383>
LayerCount: 2
Fore
SplineSet
170 -20 m 1,0,-1
 160 -20 l 1,1,-1
 160 1212 l 1,2,-1
 30 1212 l 1,3,-1
 30 1222 l 1,4,-1
 97 1362 l 1,5,-1
 160 1362 l 1,6,-1
 160 1383 l 1,7,-1
 470 1530 l 1,8,-1
 480 1530 l 1,9,-1
 480 1362 l 1,10,-1
 960 1362 l 1,11,-1
 960 1383 l 1,12,-1
 1270 1530 l 1,13,-1
 1280 1530 l 1,14,-1
 1280 1362 l 1,15,-1
 1410 1362 l 1,16,-1
 1410 1352 l 1,17,-1
 1343 1212 l 1,18,-1
 1280 1212 l 1,19,-1
 1280 127 l 1,20,-1
 970 -20 l 1,21,-1
 960 -20 l 1,22,-1
 960 680 l 1,23,-1
 480 680 l 1,24,-1
 480 127 l 1,25,-1
 170 -20 l 1,0,-1
480 1212 m 1,26,-1
 480 830 l 1,27,-1
 960 830 l 1,28,-1
 960 1212 l 1,29,-1
 480 1212 l 1,26,-1
EndSplineSet
Validated: 1
EndChar

StartChar: IJ
Encoding: 306 306 198
Width: 1831
Flags: W
HStem: -20 150<1013.77 1308.47> 1360 150<793 1391> 1510 20G<427.823 480>
VStem: 160 320<127 1383> 1391 320<286.533 1360>
LayerCount: 2
Fore
SplineSet
1160 -20 m 0,0,1
 927 -20 927 -20 765 131 c 0,2,3
 650 238 650 238 617 397 c 1,4,-1
 925 542 l 1,5,-1
 935 542 l 1,6,-1
 935 332 l 2,7,8
 935 243 935 243 998.5 186.5 c 128,-1,9
 1062 130 1062 130 1160 130 c 0,10,11
 1257 130 1257 130 1325 187 c 0,12,13
 1391 243 1391 243 1391 332 c 2,14,-1
 1391 1360 l 1,15,-1
 726 1360 l 1,16,-1
 726 1370 l 1,17,-1
 793 1510 l 1,18,-1
 1711 1510 l 1,19,-1
 1711 494 l 2,20,21
 1711 274 1711 274 1550 127 c 128,-1,22
 1389 -20 1389 -20 1160 -20 c 0,0,1
170 -20 m 1,23,-1
 160 -20 l 1,24,-1
 160 1383 l 1,25,-1
 470 1530 l 1,26,-1
 480 1530 l 1,27,-1
 480 127 l 1,28,-1
 170 -20 l 1,23,-1
EndSplineSet
Validated: 1
EndChar

StartChar: lslash
Encoding: 322 322 199
Width: 766
Flags: W
HStem: -20 21G<233 285.029> 1510 20G<480.971 533>
VStem: 233 300<118 629 926 1392>
DStem2: 50 701 54 546 0.906672 0.421835<0 135.549 532.836 668.385>
LayerCount: 2
Fore
SplineSet
243 -20 m 1,0,-1
 233 -20 l 1,1,-1
 233 629 l 1,2,-1
 54 546 l 1,3,-1
 50 555 l 1,4,-1
 50 701 l 1,5,-1
 233 786 l 1,6,-1
 233 1392 l 1,7,-1
 523 1530 l 1,8,-1
 533 1530 l 1,9,-1
 533 926 l 1,10,-1
 712 1009 l 1,11,-1
 716 1000 l 1,12,-1
 716 854 l 1,13,-1
 533 769 l 1,14,-1
 533 118 l 1,15,-1
 243 -20 l 1,0,-1
EndSplineSet
Validated: 1
EndChar

StartChar: Lslash
Encoding: 321 321 200
Width: 1100
Flags: W
HStem: 0 150<480 1023> 1510 20G<427.534 480>
VStem: 160 320<150 573 887 1384>
DStem2: 80 701 160 573 0.906672 0.421835<0 18.5388 441.13 665.01>
LayerCount: 2
Fore
SplineSet
160 0 m 1,0,-1
 160 573 l 1,1,-1
 84 538 l 1,2,-1
 80 547 l 1,3,-1
 80 701 l 1,4,-1
 160 738 l 1,5,-1
 160 1384 l 1,6,-1
 470 1530 l 1,7,-1
 480 1530 l 1,8,-1
 480 887 l 1,9,-1
 742 1009 l 1,10,-1
 746 1000 l 1,11,-1
 746 846 l 1,12,-1
 480 722 l 1,13,-1
 480 150 l 1,14,-1
 1090 150 l 1,15,-1
 1090 140 l 1,16,-1
 1023 0 l 1,17,-1
 160 0 l 1,0,-1
EndSplineSet
Validated: 1
EndChar

StartChar: Eng
Encoding: 330 330 201
Width: 1410
Flags: W
HStem: -410 21G<646 823> -20 21G<140 192.177> 1380 150<552.799 859.72>
VStem: 140 320<127 1224.73> 950 320<-104.731 1223.47>
LayerCount: 2
Fore
SplineSet
150 -20 m 1,0,-1
 140 -20 l 1,1,-1
 140 1016 l 2,2,3
 140 1238 140 1238 306 1384 c 128,-1,4
 472 1530 472 1530 706.5 1530 c 128,-1,5
 941 1530 941 1530 1105.5 1383 c 128,-1,6
 1270 1236 1270 1236 1270 1016 c 2,7,-1
 1270 104 l 2,8,9
 1270 -118 1270 -118 1105 -264 c 128,-1,10
 940 -410 940 -410 706 -410 c 2,11,-1
 646 -410 l 1,12,-1
 646 -400 l 1,13,-1
 708 -271 l 1,14,15
 826 -247 826 -247 880 -203 c 0,16,17
 950 -146 950 -146 950 -58 c 2,18,-1
 950 1172 l 2,19,20
 950 1263 950 1263 878 1322 c 0,21,22
 808 1380 808 1380 705.5 1380 c 128,-1,23
 603 1380 603 1380 531.5 1321 c 128,-1,24
 460 1262 460 1262 460 1172 c 2,25,-1
 460 127 l 1,26,-1
 150 -20 l 1,0,-1
EndSplineSet
Validated: 1
EndChar

StartChar: OE
Encoding: 338 338 202
Width: 1714
Flags: W
HStem: -20 150<532.902 773.171> 0 150<1094 1637> 680 150<1094 1587> 1360 150<1094 1587> 1380 150<534.314 772.182>
VStem: 120 330<287.033 1223.73> 774 320<150 680 830 1360>
LayerCount: 2
Fore
SplineSet
1637 0 m 1,0,-1
 843 0 l 1,1,2
 768 -20 768 -20 686 -20 c 0,3,4
 453 -20 453 -20 287 127 c 0,5,6
 120 275 120 275 120 494 c 2,7,-1
 120 1016 l 2,8,9
 120 1236 120 1236 287 1384 c 0,10,11
 453 1530 453 1530 686 1530 c 0,12,13
 769 1530 769 1530 843 1510 c 1,14,-1
 1654 1510 l 1,15,-1
 1654 1500 l 1,16,-1
 1587 1360 l 1,17,-1
 1094 1360 l 1,18,-1
 1094 830 l 1,19,-1
 1654 830 l 1,20,-1
 1654 820 l 1,21,-1
 1587 680 l 1,22,-1
 1094 680 l 1,23,-1
 1094 150 l 1,24,-1
 1704 150 l 1,25,-1
 1704 140 l 1,26,-1
 1637 0 l 1,0,-1
774 144 m 1,27,-1
 774 1366 l 1,28,29
 733 1380 733 1380 686 1380 c 0,30,31
 585 1380 585 1380 517.5 1323 c 128,-1,32
 450 1266 450 1266 450 1178 c 2,33,-1
 450 332 l 2,34,35
 450 243 450 243 517 186.5 c 128,-1,36
 584 130 584 130 686 130 c 0,37,38
 734 130 734 130 774 144 c 1,27,-1
EndSplineSet
Validated: 1
EndChar

StartChar: Thorn
Encoding: 222 222 203
Width: 1270
Flags: W
HStem: -20 21G<160 212.177> 220 151<480 805.942> 1140 150<480 807.573> 1510 20G<427.823 480>
VStem: 160 320<127 220 371 1140 1290 1383> 905 335<539.852 970.223>
LayerCount: 2
Fore
SplineSet
480 371 m 1,0,-1
 677 371 l 2,1,2
 775 371 775 371 840 442 c 128,-1,3
 905 513 905 513 905 755 c 128,-1,4
 905 997 905 997 840 1068.5 c 128,-1,5
 775 1140 775 1140 677 1140 c 2,6,-1
 480 1140 l 1,7,-1
 480 371 l 1,0,-1
170 -20 m 1,8,-1
 160 -20 l 1,9,-1
 160 1383 l 1,10,-1
 470 1530 l 1,11,-1
 480 1530 l 1,12,-1
 480 1290 l 1,13,-1
 686 1290 l 2,14,15
 926 1290 926 1290 1082 1133 c 0,16,17
 1240 976 1240 976 1240 755 c 128,-1,18
 1240 534 1240 534 1081 377 c 128,-1,19
 922 220 922 220 686 220 c 2,20,-1
 480 220 l 1,21,-1
 480 127 l 1,22,-1
 170 -20 l 1,8,-1
EndSplineSet
Validated: 1
EndChar

StartChar: Tbar
Encoding: 358 358 204
Width: 1190
Flags: W
HStem: -20 21G<435 487.466> 431 150<307 435 755 883> 1360 150<77 435 755 1113>
VStem: 435 320<126 431 581 1360>
LayerCount: 2
Fore
SplineSet
445 -20 m 1,0,-1
 435 -20 l 1,1,-1
 435 431 l 1,2,-1
 240 431 l 1,3,-1
 240 441 l 1,4,-1
 307 581 l 1,5,-1
 435 581 l 1,6,-1
 435 1360 l 1,7,-1
 10 1360 l 1,8,-1
 10 1370 l 1,9,-1
 77 1510 l 1,10,-1
 1180 1510 l 1,11,-1
 1180 1500 l 1,12,-1
 1113 1360 l 1,13,-1
 755 1360 l 1,14,-1
 755 581 l 1,15,-1
 950 581 l 1,16,-1
 950 571 l 1,17,-1
 883 431 l 1,18,-1
 755 431 l 1,19,-1
 755 126 l 1,20,-1
 445 -20 l 1,0,-1
EndSplineSet
Validated: 1
EndChar

StartChar: tbar
Encoding: 359 359 205
Width: 890
Flags: W
HStem: -20 21G<300 351.985> 436 140<157 300 585 733> 960 140<72 300 585 818> 1510 20G<533.015 585>
VStem: 300 285<111 436 576 960 1100 1399>
LayerCount: 2
Fore
SplineSet
310 -20 m 1,0,-1
 300 -20 l 1,1,-1
 300 436 l 1,2,-1
 95 436 l 1,3,-1
 95 446 l 1,4,-1
 157 576 l 1,5,-1
 300 576 l 1,6,-1
 300 960 l 1,7,-1
 10 960 l 1,8,-1
 10 970 l 1,9,-1
 72 1100 l 1,10,-1
 300 1100 l 1,11,-1
 300 1399 l 1,12,-1
 575 1530 l 1,13,-1
 585 1530 l 1,14,-1
 585 1100 l 1,15,-1
 880 1100 l 1,16,-1
 880 1090 l 1,17,-1
 818 960 l 1,18,-1
 585 960 l 1,19,-1
 585 576 l 1,20,-1
 795 576 l 1,21,-1
 795 566 l 1,22,-1
 733 436 l 1,23,-1
 585 436 l 1,24,-1
 585 111 l 1,25,-1
 310 -20 l 1,0,-1
EndSplineSet
Validated: 1
EndChar

StartChar: thorn
Encoding: 254 254 206
Width: 1230
Flags: W
HStem: -430 21G<160 212.029> -20 140<509.569 751.77> 980 140<509.569 751.77> 1510 20G<407.971 460>
VStem: 160 300<-292 28 166.207 933.793 1072 1392> 795 315<219.852 879.848>
LayerCount: 2
Fore
SplineSet
460 264 m 2,0,1
 460 202 460 202 510 161 c 128,-1,2
 560 120 560 120 634.5 120 c 128,-1,3
 709 120 709 120 752 160.5 c 128,-1,4
 795 201 795 201 795 265 c 2,5,-1
 795 835 l 2,6,7
 795 899 795 899 752 939.5 c 128,-1,8
 709 980 709 980 634.5 980 c 128,-1,9
 560 980 560 980 510 939 c 128,-1,10
 460 898 460 898 460 836 c 2,11,-1
 460 264 l 2,0,1
160 -430 m 1,12,-1
 160 1392 l 1,13,-1
 450 1530 l 1,14,-1
 460 1530 l 1,15,-1
 460 1072 l 1,16,17
 537 1120 537 1120 635 1120 c 0,18,19
 833 1120 833 1120 971 998 c 0,20,21
 1110 875 1110 875 1110 697 c 2,22,-1
 1110 404 l 2,23,24
 1110 224 1110 224 971 102 c 0,25,26
 833 -20 833 -20 635 -20 c 0,27,28
 537 -20 537 -20 460 28 c 1,29,-1
 460 -292 l 1,30,-1
 170 -430 l 1,31,-1
 160 -430 l 1,12,-1
EndSplineSet
Validated: 1
EndChar

StartChar: eth
Encoding: 240 240 207
Width: 1190
Flags: W
HStem: -20 140<475.26 718.483> 980 140<475.598 590> 1510 20G<424.955 495.351 731.907 779>
VStem: 120 310<227.352 904.177> 760 310<224.559 907.781>
DStem2: 276 1298 280 1143 0.906786 0.421592<0 109.165 365.093 488.576>
LayerCount: 2
Fore
SplineSet
595.5 120 m 128,-1,1
 665 120 665 120 716 159 c 0,2,3
 760 194 760 194 760 258 c 2,4,-1
 760 842 l 2,5,6
 760 906 760 906 714 942 c 0,7,8
 664 980 664 980 594.5 980 c 128,-1,9
 525 980 525 980 474 941 c 0,10,11
 430 906 430 906 430 842 c 2,12,-1
 430 258 l 2,13,14
 430 194 430 194 476 158 c 0,15,0
 526 120 526 120 595.5 120 c 128,-1,1
590 1120 m 1,16,-1
 479 1236 l 1,17,-1
 280 1143 l 1,18,-1
 276 1152 l 1,19,-1
 276 1298 l 1,20,-1
 375 1344 l 1,21,-1
 282 1442 l 1,22,-1
 467 1530 l 1,23,-1
 477 1530 l 1,24,-1
 566 1433 l 1,25,-1
 775 1530 l 1,26,-1
 779 1521 l 1,27,-1
 779 1375 l 1,28,-1
 667 1323 l 1,29,-1
 959 1005 l 2,30,31
 1070 884 1070 884 1070 717 c 2,32,-1
 1070 415 l 2,33,34
 1070 228 1070 228 930 104 c 128,-1,35
 790 -20 790 -20 595 -20 c 128,-1,36
 400 -20 400 -20 260 106 c 128,-1,37
 120 232 120 232 120 416 c 2,38,-1
 120 718 l 2,39,40
 120 909 120 909 265 1024 c 0,41,42
 386 1120 386 1120 590 1120 c 1,16,-1
EndSplineSet
Validated: 1
EndChar

StartChar: oe
Encoding: 339 339 208
Width: 1777
Flags: W
HStem: -20 140<474.593 716.698 1056.49 1300.22> 980 140<471.958 716.246 1056.2 1298.97>
VStem: 120 310<220.152 882.133> 760 310<218.766 382 541 879.67> 1342 315<222.556 320 671 868.256>
DStem2: 1070 541 1070 382 0.903487 0.428616<0 301.468>
LayerCount: 2
Fore
SplineSet
595.5 120 m 128,-1,1
 665 120 665 120 716 159 c 0,2,3
 760 194 760 194 760 258 c 2,4,-1
 760 842 l 2,5,6
 760 906 760 906 714 942 c 0,7,8
 664 980 664 980 594.5 980 c 128,-1,9
 525 980 525 980 474 941 c 0,10,11
 430 906 430 906 430 842 c 2,12,-1
 430 258 l 2,13,14
 430 194 430 194 476 158 c 0,15,0
 526 120 526 120 595.5 120 c 128,-1,1
594 -20 m 0,16,17
 398 -20 398 -20 260 102 c 0,18,19
 120 225 120 225 120 403 c 2,20,-1
 120 697 l 2,21,22
 120 879 120 879 260 999 c 0,23,24
 401 1120 401 1120 596 1120 c 0,25,26
 763 1120 763 1120 888 1031 c 1,27,28
 1016 1120 1016 1120 1182 1120 c 0,29,30
 1376 1120 1376 1120 1516 993 c 128,-1,31
 1656 866 1656 866 1656 692 c 2,32,-1
 1656 660 l 1,33,-1
 1070 382 l 1,34,35
 1066 290 1066 290 1023 214 c 1,36,37
 1034 180 1034 180 1063 158 c 0,38,39
 1113 120 1113 120 1180 120 c 128,-1,40
 1247 120 1247 120 1298 159 c 0,41,42
 1342 194 1342 194 1342 258 c 2,43,-1
 1342 320 l 1,44,-1
 1647 465 l 1,45,-1
 1657 465 l 1,46,-1
 1657 410 l 2,47,48
 1657 226 1657 226 1517 103 c 128,-1,49
 1377 -20 1377 -20 1182 -20 c 0,50,51
 1015 -20 1015 -20 889 69 c 1,52,53
 762 -20 762 -20 594 -20 c 0,16,17
1070 541 m 1,54,-1
 1342 671 l 1,55,-1
 1342 842 l 2,56,57
 1342 906 1342 906 1296 942 c 0,58,59
 1246 980 1246 980 1179 980 c 128,-1,60
 1112 980 1112 980 1061 941 c 0,61,62
 1033 919 1033 919 1023 885 c 1,63,64
 1070 800 1070 800 1070 697 c 2,65,-1
 1070 541 l 1,54,-1
EndSplineSet
Validated: 1
EndChar

StartChar: eng
Encoding: 331 331 209
Width: 1230
Flags: W
HStem: -410 21G<555 699.5> -20 21G<140 192.029> 979 141<489.503 740.976>
VStem: 140 300<118 881.641> 790 300<-151.418 879.656>
LayerCount: 2
Fore
SplineSet
150 -20 m 1,0,-1
 140 -20 l 1,1,-1
 140 697 l 2,2,3
 140 878 140 878 280 999 c 128,-1,4
 420 1120 420 1120 615 1120 c 0,5,6
 813 1120 813 1120 951 998 c 0,7,8
 1090 875 1090 875 1090 696 c 2,9,-1
 1090 41 l 2,10,11
 1090 -177 1090 -177 909 -315 c 0,12,13
 784 -410 784 -410 615 -410 c 2,14,-1
 555 -410 l 1,15,-1
 555 -400 l 1,16,-1
 612 -282 l 1,17,18
 697 -271 697 -271 743.5 -229.5 c 128,-1,19
 790 -188 790 -188 790 -120 c 2,20,-1
 790 834 l 2,21,22
 790 898 790 898 739.5 938.5 c 128,-1,23
 689 979 689 979 614.5 979 c 128,-1,24
 540 979 540 979 490 938 c 128,-1,25
 440 897 440 897 440 835 c 2,26,-1
 440 118 l 1,27,-1
 150 -20 l 1,0,-1
EndSplineSet
Validated: 1
EndChar

StartChar: kgreenlandic
Encoding: 312 312 210
Width: 1210
Flags: W
HStem: -20 21G<160 212.029 790 842.029> 1100 20G<407.971 460 902.4 986.319>
VStem: 160 300<118 638.712 820 982> 790 300<118 594.293>
DStem2: 460 820 700 807 0.84498 0.534798<195.843 560.96>
LayerCount: 2
Fore
SplineSet
170 -20 m 1,0,-1
 160 -20 l 1,1,-1
 160 982 l 1,2,-1
 450 1120 l 1,3,-1
 460 1120 l 1,4,-1
 460 820 l 1,5,-1
 934 1120 l 1,6,-1
 944 1120 l 1,7,-1
 1090 1051 l 1,8,-1
 700 807 l 1,9,10
 856 788 856 788 950 709 c 0,11,12
 1090 593 1090 593 1090 408 c 2,13,-1
 1090 118 l 1,14,-1
 800 -20 l 1,15,-1
 790 -20 l 1,16,-1
 790 532 l 2,17,18
 790 597 790 597 739 640 c 0,19,20
 688 682 688 682 621 682 c 0,21,22
 553 682 553 682 506 640 c 0,23,24
 460 599 460 599 460 532 c 2,25,-1
 460 118 l 1,26,-1
 170 -20 l 1,0,-1
EndSplineSet
Validated: 1
EndChar

StartChar: ij
Encoding: 307 307 211
Width: 1220
Flags: W
HStem: -410 21G<525 669.5> -20 21G<160 212.029> 1100 20G<407.971 460 1007.97 1060> 1180 364<192.131 426.338 792.131 1026.34>
VStem: 130 360<1244.3 1481.73> 160 300<118 982> 730 360<1244.3 1481.73> 760 300<-151.418 982>
LayerCount: 2
Fore
SplineSet
525 -410 m 1,0,-1
 525 -400 l 1,1,-1
 583 -280 l 1,2,3
 665 -275 665 -275 712.5 -231.5 c 128,-1,4
 760 -188 760 -188 760 -120 c 2,5,-1
 760 982 l 1,6,-1
 1050 1120 l 1,7,-1
 1060 1120 l 1,8,-1
 1060 41 l 2,9,10
 1060 -177 1060 -177 879 -315 c 0,11,12
 754 -410 754 -410 585 -410 c 2,13,-1
 525 -410 l 1,0,-1
910 1544 m 0,14,15
 986 1544 986 1544 1038 1491 c 128,-1,16
 1090 1438 1090 1438 1090 1363 c 0,17,18
 1090 1289 1090 1289 1037 1234 c 0,19,20
 985 1180 985 1180 910 1180 c 0,21,22
 833 1180 833 1180 781.5 1234 c 128,-1,23
 730 1288 730 1288 730 1362 c 0,24,25
 730 1438 730 1438 782 1490 c 0,26,27
 835 1544 835 1544 910 1544 c 0,14,15
170 -20 m 1,28,-1
 160 -20 l 1,29,-1
 160 982 l 1,30,-1
 450 1120 l 1,31,-1
 460 1120 l 1,32,-1
 460 118 l 1,33,-1
 170 -20 l 1,28,-1
310 1544 m 0,34,35
 386 1544 386 1544 438 1491 c 128,-1,36
 490 1438 490 1438 490 1363 c 0,37,38
 490 1289 490 1289 437 1234 c 0,39,40
 385 1180 385 1180 310 1180 c 0,41,42
 233 1180 233 1180 181.5 1234 c 128,-1,43
 130 1288 130 1288 130 1362 c 0,44,45
 130 1438 130 1438 182 1490 c 0,46,47
 235 1544 235 1544 310 1544 c 0,34,35
EndSplineSet
Validated: 1
EndChar

StartChar: hbar
Encoding: 295 295 212
Width: 1250
Flags: W
HStem: -20 21G<160 212.029 810 862.029> 979 141<509.569 760.976> 1217 140<92 160 460 628> 1510 20G<407.971 460>
VStem: 160 300<118 932.793 1072 1217 1357 1392> 810 300<118 880.148>
LayerCount: 2
Fore
SplineSet
170 -20 m 1,0,-1
 160 -20 l 1,1,-1
 160 1217 l 1,2,-1
 30 1217 l 1,3,-1
 30 1227 l 1,4,-1
 92 1357 l 1,5,-1
 160 1357 l 1,6,-1
 160 1392 l 1,7,-1
 450 1530 l 1,8,-1
 460 1530 l 1,9,-1
 460 1357 l 1,10,-1
 690 1357 l 1,11,-1
 690 1347 l 1,12,-1
 628 1217 l 1,13,-1
 460 1217 l 1,14,-1
 460 1072 l 1,15,16
 537 1120 537 1120 635 1120 c 0,17,18
 833 1120 833 1120 971 998 c 0,19,20
 1110 876 1110 876 1110 696 c 2,21,-1
 1110 118 l 1,22,-1
 820 -20 l 1,23,-1
 810 -20 l 1,24,-1
 810 834 l 2,25,26
 810 898 810 898 759.5 938.5 c 128,-1,27
 709 979 709 979 634.5 979 c 128,-1,28
 560 979 560 979 510 938 c 128,-1,29
 460 897 460 897 460 835 c 2,30,-1
 460 118 l 1,31,-1
 170 -20 l 1,0,-1
EndSplineSet
Validated: 1
EndChar

StartChar: longs
Encoding: 383 383 213
Width: 940
Flags: W
HStem: -20 21G<220 272.029> 732 140<72 220> 1370 140<570.569 868>
VStem: 220 300<118 732 872 1265.14>
LayerCount: 2
Fore
SplineSet
230 -20 m 1,0,-1
 220 -20 l 1,1,-1
 220 732 l 1,2,-1
 10 732 l 1,3,-1
 10 742 l 1,4,-1
 72 872 l 1,5,-1
 220 872 l 1,6,-1
 220 1076 l 2,7,8
 220 1261 220 1261 360 1386 c 0,9,10
 500 1510 500 1510 695 1510 c 2,11,-1
 930 1510 l 1,12,-1
 930 1500 l 1,13,-1
 868 1370 l 1,14,-1
 695 1370 l 2,15,16
 619 1370 619 1370 569 1329 c 0,17,18
 520 1288 520 1288 520 1225 c 2,19,-1
 520 118 l 1,20,-1
 230 -20 l 1,0,-1
EndSplineSet
Validated: 1
EndChar

StartChar: florin
Encoding: 402 402 214
Width: 880
Flags: W
HStem: -410 21G<-75 69.5> 732 140<460 769> 1370 140<510.569 808>
VStem: 160 300<-151.418 732 872 1265.14>
LayerCount: 2
Fore
SplineSet
-75 -410 m 1,0,-1
 -75 -400 l 1,1,-1
 -17 -280 l 1,2,3
 65 -275 65 -275 112.5 -231.5 c 128,-1,4
 160 -188 160 -188 160 -120 c 2,5,-1
 160 1076 l 2,6,7
 160 1261 160 1261 300 1386 c 0,8,9
 440 1510 440 1510 635 1510 c 2,10,-1
 870 1510 l 1,11,-1
 870 1500 l 1,12,-1
 808 1370 l 1,13,-1
 635 1370 l 2,14,15
 559 1370 559 1370 509 1329 c 0,16,17
 460 1288 460 1288 460 1225 c 2,18,-1
 460 872 l 1,19,-1
 831 872 l 1,20,-1
 831 862 l 1,21,-1
 769 732 l 1,22,-1
 460 732 l 1,23,-1
 460 41 l 2,24,25
 460 -177 460 -177 279 -315 c 0,26,27
 154 -410 154 -410 -15 -410 c 2,28,-1
 -75 -410 l 1,0,-1
EndSplineSet
Validated: 1
EndChar

StartChar: dcroat
Encoding: 273 273 215
Width: 1210
Flags: W
HStem: -20 140<479.042 720.831> 980 140<478.23 720.431> 1217 140<602 770 1070 1108> 1510 20G<1017.97 1070>
VStem: 120 315<218.852 880.148> 770 300<220.645 933.793 1072 1217 1357 1392>
LayerCount: 2
Fore
SplineSet
595.5 -20 m 128,-1,1
 400 -20 400 -20 260 101 c 0,2,3
 120 223 120 223 120 403 c 2,4,-1
 120 696 l 2,5,6
 120 876 120 876 259 998 c 0,7,8
 397 1120 397 1120 595 1120 c 0,9,10
 693 1120 693 1120 770 1072 c 1,11,-1
 770 1217 l 1,12,-1
 540 1217 l 1,13,-1
 540 1227 l 1,14,-1
 602 1357 l 1,15,-1
 770 1357 l 1,16,-1
 770 1392 l 1,17,-1
 1060 1530 l 1,18,-1
 1070 1530 l 1,19,-1
 1070 1357 l 1,20,-1
 1170 1357 l 1,21,-1
 1170 1347 l 1,22,-1
 1108 1217 l 1,23,-1
 1070 1217 l 1,24,-1
 1070 403 l 2,25,26
 1070 226 1070 226 930 102 c 0,27,0
 791 -20 791 -20 595.5 -20 c 128,-1,1
770 836 m 2,28,29
 770 898 770 898 720 939 c 128,-1,30
 670 980 670 980 595.5 980 c 128,-1,31
 521 980 521 980 478 939.5 c 128,-1,32
 435 899 435 899 435 835 c 2,33,-1
 435 265 l 2,34,35
 435 201 435 201 478 160.5 c 128,-1,36
 521 120 521 120 595.5 120 c 128,-1,37
 670 120 670 120 720 161 c 128,-1,38
 770 202 770 202 770 264 c 2,39,-1
 770 836 l 2,28,29
EndSplineSet
Validated: 1
EndChar

StartChar: germandbls
Encoding: 223 223 216
Width: 1219
Flags: W
HStem: -20 140<604 758.933> 761 140<603 731.148> 1402 128<488.969 727.125>
VStem: 140 300<118 1309.39> 789 301<961.808 1317.65> 865 314<283.285 665.042>
LayerCount: 2
Fore
SplineSet
150 -20 m 1,0,-1
 140 -20 l 1,1,-1
 140 1105 l 2,2,3
 140 1317 140 1317 281 1424 c 0,4,5
 420 1530 420 1530 615 1530 c 128,-1,6
 810 1530 810 1530 950 1424 c 0,7,8
 1090 1317 1090 1317 1090 1144 c 128,-1,9
 1090 971 1090 971 967 866 c 1,10,11
 997 849 997 849 1023 828 c 0,12,13
 1179 700 1179 700 1179 491 c 0,14,15
 1179 281 1179 281 1026 130 c 0,16,17
 873 -20 873 -20 615 -20 c 2,18,-1
 541 -20 l 1,19,-1
 541 -10 l 1,20,-1
 604 120 l 1,21,22
 726 121 726 121 790 192 c 0,23,24
 865 275 865 275 865 449 c 0,25,26
 865 633 865 633 793 702 c 0,27,28
 732 761 732 761 639 761 c 2,29,-1
 540 761 l 1,30,-1
 540 771 l 1,31,-1
 603 901 l 1,32,33
 688 901 688 901 735 948 c 0,34,35
 789 1002 789 1002 789 1162 c 0,36,37
 789 1290 789 1290 736 1349 c 0,38,39
 688 1402 688 1402 610 1402 c 0,40,41
 533 1402 533 1402 489 1359 c 0,42,43
 440 1311 440 1311 440 1242 c 2,44,-1
 440 118 l 1,45,-1
 150 -20 l 1,0,-1
EndSplineSet
Validated: 1
EndChar

StartChar: ae
Encoding: 230 230 217
Width: 1671
Flags: W
HStem: -20 140<380.927 632.963 966.4 1194.22> 577 140<378.488 631.447> 960 140<297 608.771> 980 140<950.085 1192.97>
VStem: 40 300<180.383 519.032> 678 286<160.465 382 664 869.793> 1236 315<222.556 320 671 868.256>
DStem2: 964 541 964 382 0.903487 0.428616<0 301.468>
LayerCount: 2
Fore
SplineSet
462 -20 m 0,0,1
 296 -20 296 -20 175 75 c 0,2,3
 40 181 40 181 40 353 c 0,4,5
 40 526 40 526 198 636 c 0,6,7
 314 717 314 717 462 717 c 0,8,9
 575 717 575 717 664 664 c 1,10,-1
 664 804 l 2,11,12
 664 880 664 880 610 926 c 0,13,14
 571 960 571 960 489 960 c 2,15,-1
 234 960 l 1,16,-1
 234 970 l 1,17,-1
 297 1100 l 1,18,-1
 489 1100 l 2,19,20
 652 1100 652 1100 772 1024 c 1,21,22
 902 1120 902 1120 1076 1120 c 0,23,24
 1270 1120 1270 1120 1410 993 c 128,-1,25
 1550 866 1550 866 1550 692 c 2,26,-1
 1550 660 l 1,27,-1
 964 382 l 1,28,-1
 964 153 l 1,29,30
 1012 120 1012 120 1074 120 c 0,31,32
 1141 120 1141 120 1192 159 c 0,33,34
 1236 194 1236 194 1236 258 c 2,35,-1
 1236 320 l 1,36,-1
 1541 465 l 1,37,-1
 1551 465 l 1,38,-1
 1551 410 l 2,39,40
 1551 226 1551 226 1411 103 c 128,-1,41
 1271 -20 1271 -20 1076 -20 c 0,42,43
 931 -20 931 -20 816 48 c 1,44,-1
 674 -20 l 1,45,-1
 664 -20 l 1,46,-1
 664 35 l 1,47,48
 590 -20 590 -20 462 -20 c 0,0,1
340 248 m 2,49,50
 340 190 340 190 383.5 155 c 128,-1,51
 427 120 427 120 501.5 120 c 128,-1,52
 576 120 576 120 628 156 c 0,53,54
 678 191 678 191 678 249 c 2,55,-1
 678 448 l 2,56,57
 678 507 678 507 626 542 c 0,58,59
 575 577 575 577 500.5 577 c 128,-1,60
 426 577 426 577 383 541.5 c 128,-1,61
 340 506 340 506 340 448 c 2,62,-1
 340 248 l 2,49,50
964 541 m 1,63,-1
 1236 671 l 1,64,-1
 1236 842 l 2,65,66
 1236 906 1236 906 1190 942 c 0,67,68
 1140 980 1140 980 1073 980 c 128,-1,69
 1006 980 1006 980 955 941 c 0,70,71
 924 917 924 917 915 878 c 1,72,73
 964 791 964 791 964 681 c 2,74,-1
 964 541 l 1,63,-1
EndSplineSet
Validated: 1
EndChar

StartChar: S
Encoding: 83 83 218
Width: 1199
Flags: W
HStem: -20 150<441.616 696.43> 1380 150<496.032 687.89>
VStem: 122 325<961.937 1299.52> 798 351<283.923 636.887>
LayerCount: 2
Fore
SplineSet
583.5 -20 m 128,-1,1
 349 -20 349 -20 184 131 c 0,2,3
 66 239 66 239 30 395 c 1,4,-1
 343 543 l 1,5,-1
 353 543 l 1,6,-1
 353 384 l 2,7,8
 353 241 353 241 424 185 c 0,9,10
 495 130 495 130 564 130 c 0,11,12
 648 130 648 130 713 187 c 0,13,14
 798 263 798 263 798 426 c 0,15,16
 798 602 798 602 727 674 c 0,17,18
 668 734 668 734 574 743 c 0,19,20
 362 764 362 764 247 857 c 0,21,22
 122 959 122 959 122 1123 c 0,23,24
 122 1294 122 1294 259 1412 c 128,-1,25
 396 1530 396 1530 593 1530 c 0,26,27
 787 1530 787 1530 919 1404 c 0,28,29
 1019 1309 1019 1309 1046 1194 c 1,30,-1
 738 1048 l 1,31,-1
 728 1048 l 1,32,-1
 728 1155 l 2,33,34
 728 1281 728 1281 697 1326 c 0,35,36
 659 1380 659 1380 596 1380 c 0,37,38
 545 1380 545 1380 504 1345 c 0,39,40
 447 1296 447 1296 447 1155 c 0,41,42
 447 962 447 962 536 927 c 0,43,44
 587 907 587 907 634 902 c 0,45,46
 913 876 913 876 1032 761 c 0,47,48
 1149 648 1149 648 1149 488 c 0,49,50
 1149 271 1149 271 983 125 c 0,51,0
 818 -20 818 -20 583.5 -20 c 128,-1,1
EndSplineSet
Validated: 1
EndChar

StartChar: s
Encoding: 115 115 219
Width: 967
Flags: W
HStem: -20 140<360.099 575.991> 980 140<398.909 550.924>
VStem: 86 284<681.063 949.922> 619 308<185.362 456.591>
LayerCount: 2
Fore
SplineSet
467 -20 m 0,0,1
 267 -20 267 -20 142 92 c 0,2,3
 47 177 47 177 20 300 c 1,4,-1
 296 430 l 1,5,-1
 306 430 l 1,6,-1
 306 314 l 2,7,8
 306 221 306 221 352 172 c 0,9,10
 401 120 401 120 468 120 c 0,11,12
 532 120 532 120 577 164 c 0,13,14
 619 205 619 205 619 312 c 0,15,16
 619 424 619 424 558 472 c 0,17,18
 516 506 516 506 447 511 c 0,19,20
 290 524 290 524 200 585 c 0,21,22
 86 661 86 661 86 809 c 0,23,24
 86 952 86 952 198.5 1036 c 128,-1,25
 311 1120 311 1120 478 1120 c 0,26,27
 640 1120 640 1120 746 1023 c 0,28,29
 825 951 825 951 852 854 c 1,30,-1
 590 729 l 1,31,-1
 580 729 l 1,32,-1
 580 826 l 2,33,34
 580 894 580 894 553 933 c 0,35,36
 521 980 521 980 476 980 c 0,37,38
 428 980 428 980 399 943 c 128,-1,39
 370 906 370 906 370 819 c 0,40,41
 370 717 370 717 412 682 c 0,42,43
 443 656 443 656 523 651 c 0,44,45
 730 637 730 637 826 563 c 0,46,47
 927 484 927 484 927 358 c 0,48,49
 927 191 927 191 794 86 c 0,50,51
 660 -20 660 -20 467 -20 c 0,0,1
EndSplineSet
Validated: 1
EndChar

StartChar: circumflex
Encoding: 710 710 220
Width: 642
Flags: W
HStem: 1160 410
VStem: 30 582
LayerCount: 2
Fore
SplineSet
386 1570 m 1,0,-1
 396 1570 l 1,1,-1
 612 1245 l 1,2,-1
 434 1160 l 1,3,-1
 424 1160 l 1,4,-1
 323 1322 l 1,5,-1
 218 1160 l 1,6,-1
 208 1160 l 1,7,-1
 30 1245 l 1,8,-1
 206 1484 l 1,9,-1
 386 1570 l 1,0,-1
EndSplineSet
Validated: 1
EndChar

StartChar: caron
Encoding: 711 711 221
Width: 642
Flags: W
HStem: 1160 410
VStem: 30 582
LayerCount: 2
Fore
SplineSet
208 1570 m 1,0,-1
 218 1570 l 1,1,-1
 319 1408 l 1,2,-1
 424 1570 l 1,3,-1
 434 1570 l 1,4,-1
 612 1485 l 1,5,-1
 436 1246 l 1,6,-1
 256 1160 l 1,7,-1
 246 1160 l 1,8,-1
 30 1485 l 1,9,-1
 208 1570 l 1,0,-1
EndSplineSet
Validated: 1
EndChar

StartChar: uni02C9
Encoding: 713 713 222
Width: 680
Flags: W
HStem: 1270 190<116 564>
VStem: 30 620
LayerCount: 2
Fore
SplineSet
116 1460 m 1,0,-1
 650 1460 l 1,1,-1
 650 1450 l 1,2,-1
 564 1270 l 1,3,-1
 30 1270 l 1,4,-1
 30 1280 l 1,5,-1
 116 1460 l 1,0,-1
EndSplineSet
Validated: 1
EndChar

StartChar: breve
Encoding: 728 728 223
Width: 680
Flags: W
HStem: 1240 200<172.531 507.469>
VStem: 30 620<1308.34 1346>
LayerCount: 2
Fore
SplineSet
120 1535 m 1,0,1
 190 1440 190 1440 340 1440 c 128,-1,2
 490 1440 490 1440 560 1535 c 1,3,-1
 650 1346 l 1,4,-1
 650 1336 l 1,5,6
 518 1240 518 1240 340 1240 c 128,-1,7
 162 1240 162 1240 30 1336 c 1,8,-1
 30 1346 l 1,9,-1
 120 1535 l 1,0,1
EndSplineSet
Validated: 1
EndChar

StartChar: dotaccent
Encoding: 729 729 224
Width: 420
Flags: W
HStem: 1180 364<92.1309 326.338>
VStem: 30 360<1244.3 1481.73>
LayerCount: 2
Fore
SplineSet
210 1544 m 0,0,1
 286 1544 286 1544 338 1491 c 128,-1,2
 390 1438 390 1438 390 1363 c 0,3,4
 390 1289 390 1289 337 1234 c 0,5,6
 285 1180 285 1180 210 1180 c 0,7,8
 133 1180 133 1180 81.5 1234 c 128,-1,9
 30 1288 30 1288 30 1362 c 0,10,11
 30 1438 30 1438 82 1490 c 0,12,13
 135 1544 135 1544 210 1544 c 0,0,1
EndSplineSet
Validated: 1
EndChar

StartChar: ring
Encoding: 730 730 225
Width: 456
Flags: W
HStem: 1160 112<160.15 297.342> 1448 112<159.9 297.373>
VStem: 30 111<1291.16 1428.97> 315 111<1292.14 1428.97>
LayerCount: 2
Fore
SplineSet
229.5 1448 m 128,-1,1
 192 1448 192 1448 166.5 1422 c 128,-1,2
 141 1396 141 1396 141 1360 c 128,-1,3
 141 1324 141 1324 166.5 1298 c 128,-1,4
 192 1272 192 1272 228 1272 c 256,5,6
 266 1272 266 1272 292 1300 c 0,7,8
 315 1325 315 1325 315 1360 c 0,9,10
 315 1396 315 1396 291 1422 c 128,-1,0
 267 1448 267 1448 229.5 1448 c 128,-1,1
230 1560 m 0,11,12
 310 1560 310 1560 368 1502 c 0,13,14
 426 1442 426 1442 426 1361 c 0,15,16
 426 1277 426 1277 368 1219 c 0,17,18
 309 1160 309 1160 228 1160 c 256,19,20
 148 1160 148 1160 88 1219 c 0,21,22
 30 1277 30 1277 30 1361 c 0,23,24
 30 1442 30 1442 88 1502 c 0,25,26
 146 1560 146 1560 230 1560 c 0,11,12
EndSplineSet
Validated: 1
EndChar

StartChar: ogonek
Encoding: 731 731 226
Width: 399
Flags: W
HStem: -430 430 -20 20G<191 274>
VStem: 30 207<-275.73 -100.771>
LayerCount: 2
Fore
SplineSet
191 0 m 1,0,-1
 311 0 l 1,1,2
 237 -75 237 -75 237 -164 c 0,3,4
 237 -287 237 -287 369 -320 c 1,5,-1
 139 -430 l 1,6,-1
 129 -430 l 1,7,8
 30 -354 30 -354 30 -236 c 0,9,10
 30 -94 30 -94 191 0 c 1,0,-1
EndSplineSet
Validated: 1
EndChar

StartChar: tilde
Encoding: 732 732 227
Width: 680
Flags: W
HStem: 1210 182<400.253 463.619> 1339 182<216.381 279.747>
VStem: 30 620
LayerCount: 2
Fore
SplineSet
640 1521 m 1,0,-1
 650 1521 l 1,1,2
 650 1210 650 1210 451 1210 c 0,3,4
 353 1210 353 1210 272 1305 c 0,5,6
 243 1339 243 1339 234 1339 c 0,7,8
 216 1339 216 1339 216 1294 c 1,9,-1
 40 1210 l 1,10,-1
 30 1210 l 1,11,12
 30 1521 30 1521 229 1521 c 0,13,14
 327 1521 327 1521 408 1426 c 0,15,16
 437 1392 437 1392 446 1392 c 0,17,18
 464 1392 464 1392 464 1437 c 1,19,-1
 640 1521 l 1,0,-1
EndSplineSet
Validated: 1
EndChar

StartChar: hungarumlaut
Encoding: 733 733 228
Width: 668
Flags: W
HStem: 1170 390
VStem: 30 608
DStem2: 30 1246 199 1170 0.426352 0.904557<3.30711 347.131> 319 1246 488 1170 0.426352 0.904557<3.30711 347.131>
LayerCount: 2
Fore
SplineSet
477 1560 m 1,0,-1
 638 1483 l 1,1,-1
 488 1170 l 1,2,-1
 478 1170 l 1,3,-1
 319 1246 l 1,4,-1
 467 1560 l 1,5,-1
 477 1560 l 1,0,-1
188 1560 m 1,6,-1
 349 1483 l 1,7,-1
 199 1170 l 1,8,-1
 189 1170 l 1,9,-1
 30 1246 l 1,10,-1
 178 1560 l 1,11,-1
 188 1560 l 1,6,-1
EndSplineSet
Validated: 1
EndChar

StartChar: uni1E9E
Encoding: 7838 7838 229
Width: 1290
Flags: W
HStem: -20 150<681 835.502> 1360 150<480 811.006>
VStem: 160 320<127 1360> 915 335<252.201 683.31>
LayerCount: 2
Fore
SplineSet
170 -20 m 1,0,-1
 160 -20 l 1,1,-1
 160 1383 l 1,2,-1
 428 1510 l 1,3,-1
 685 1510 l 2,4,5
 881 1510 881 1510 1003 1405 c 0,6,7
 1065 1351 1065 1351 1107 1285 c 1,8,-1
 931 910 l 1,9,10
 1017 889 1017 889 1089 830 c 0,11,12
 1250 697 1250 697 1250 481 c 0,13,14
 1250 237 1250 237 1100 117 c 0,15,16
 925 -20 925 -20 685 -20 c 2,17,-1
 614 -20 l 1,18,-1
 614 -10 l 1,19,-1
 681 130 l 1,20,21
 789 130 789 130 852 188 c 128,-1,22
 915 246 915 246 915 486 c 0,23,24
 915 716 915 716 847 785 c 0,25,26
 790 844 790 844 685 844 c 2,27,-1
 612 844 l 1,28,-1
 612 854 l 1,29,-1
 815 1327 l 1,30,31
 766 1360 766 1360 685 1360 c 2,32,-1
 480 1360 l 1,33,-1
 480 127 l 1,34,-1
 170 -20 l 1,0,-1
EndSplineSet
Validated: 1
EndChar

StartChar: uni203D
Encoding: 8253 8253 230
Width: 1340
Flags: W
HStem: -20 365<527.131 761.878> 1378 151<530.621 817.654>
VStem: 110 320<911.092 1231.24> 465 360<42.5657 282.578> 541 230<742 963> 909 321<887.901 1256.55>
LayerCount: 2
Fore
SplineSet
645 -20 m 0,0,1
 569 -20 569 -20 517 34 c 128,-1,2
 465 88 465 88 465 162 c 0,3,4
 465 238 465 238 517 291 c 0,5,6
 570 345 570 345 645 345 c 128,-1,7
 720 345 720 345 772.5 291.5 c 128,-1,8
 825 238 825 238 825 163 c 128,-1,9
 825 88 825 88 772 34 c 128,-1,10
 719 -20 719 -20 645 -20 c 0,0,1
675 1529 m 0,11,12
 942 1529 942 1529 1092 1382 c 0,13,14
 1230 1247 1230 1247 1230 1070 c 0,15,16
 1230 779 1230 779 868 646 c 0,17,18
 811 625 811 625 811 506 c 1,19,-1
 498 359 l 1,20,-1
 488 359 l 1,21,22
 488 479 488 479 541 566 c 1,23,-1
 541 963 l 1,24,-1
 761 1068 l 1,25,-1
 771 1068 l 1,26,-1
 771 742 l 1,27,28
 909 831 909 831 909 1080 c 0,29,30
 909 1233 909 1233 856 1298 c 0,31,32
 789 1378 789 1378 672 1378 c 0,33,34
 570 1378 570 1378 500 1308 c 128,-1,35
 430 1238 430 1238 430 1089 c 0,36,37
 430 997 430 997 459 926 c 1,38,-1
 189 799 l 1,39,-1
 179 799 l 1,40,41
 110 911 110 911 110 1047 c 0,42,43
 110 1228 110 1228 264 1379 c 0,44,45
 418 1529 418 1529 675 1529 c 0,11,12
EndSplineSet
Validated: 1
EndChar

StartChar: afii61352
Encoding: 8470 8470 231
Width: 2010
Flags: W
HStem: -20 21G<140 192.177 950 1002.18> 0 180<1437 1819> 228 90<1586.4 1700.89> 747 90<1586.48 1699.19> 1380 150<552.799 859.72>
VStem: 140 320<127 1224.73> 950 320<127 1223.47> 1386 190<332.954 731.53> 1710 190<333.47 732.046>
LayerCount: 2
Fore
SplineSet
1642.5 747 m 128,-1,1
 1612 747 1612 747 1594 732 c 128,-1,2
 1576 717 1576 717 1576 698 c 2,3,-1
 1576 367 l 2,4,5
 1576 347 1576 347 1594.5 332.5 c 128,-1,6
 1613 318 1613 318 1644 318 c 0,7,8
 1678 318 1678 318 1694 333 c 128,-1,9
 1710 348 1710 348 1710 367 c 2,10,-1
 1710 698 l 2,11,12
 1710 718 1710 718 1691.5 732.5 c 128,-1,0
 1673 747 1673 747 1642.5 747 c 128,-1,1
150 -20 m 1,13,-1
 140 -20 l 1,14,-1
 140 1016 l 2,15,16
 140 1238 140 1238 306 1384 c 128,-1,17
 472 1530 472 1530 706.5 1530 c 128,-1,18
 941 1530 941 1530 1105.5 1383 c 128,-1,19
 1270 1236 1270 1236 1270 1016 c 2,20,-1
 1270 127 l 1,21,-1
 960 -20 l 1,22,-1
 950 -20 l 1,23,-1
 950 1172 l 2,24,25
 950 1263 950 1263 878 1322 c 0,26,27
 808 1380 808 1380 705.5 1380 c 128,-1,28
 603 1380 603 1380 531.5 1321 c 128,-1,29
 460 1262 460 1262 460 1172 c 2,30,-1
 460 127 l 1,31,-1
 150 -20 l 1,13,-1
1819 0 m 1,32,-1
 1356 0 l 1,33,-1
 1356 10 l 1,34,-1
 1437 180 l 1,35,-1
 1900 180 l 1,36,-1
 1900 170 l 1,37,-1
 1819 0 l 1,32,-1
1644.5 837 m 128,-1,39
 1750 837 1750 837 1825 770 c 128,-1,40
 1900 703 1900 703 1900 607 c 2,41,-1
 1900 458 l 2,42,43
 1900 358 1900 358 1823.5 293 c 128,-1,44
 1747 228 1747 228 1643 228 c 128,-1,45
 1539 228 1539 228 1462.5 295 c 128,-1,46
 1386 362 1386 362 1386 458 c 2,47,-1
 1386 607 l 2,48,49
 1386 707 1386 707 1462.5 772 c 128,-1,38
 1539 837 1539 837 1644.5 837 c 128,-1,39
EndSplineSet
Validated: 1
EndChar

StartChar: uni2117
Encoding: 8471 8471 232
Width: 1321
Flags: W
HStem: 386 48<505.181 810.676> 757 97<611 748.153> 1238 96<611 748.153> 1478 52<504.168 816.773>
VStem: 110 50<794.694 1125.05> 411 200<602 757 854 1238> 786 204<887.458 1202.09> 1160 51<785.868 1126.58>
LayerCount: 2
Fore
SplineSet
611 854 m 1,0,-1
 682 854 l 2,1,2
 722 854 722 854 749 883 c 0,3,4
 786 923 786 923 786 1046 c 128,-1,5
 786 1169 786 1169 749 1209 c 0,6,7
 722 1238 722 1238 682 1238 c 2,8,-1
 611 1238 l 1,9,-1
 611 854 l 1,0,-1
421 527 m 1,10,-1
 411 527 l 1,11,-1
 411 1257 l 1,12,-1
 585 1334 l 1,13,-1
 694 1334 l 2,14,15
 823 1334 823 1334 908 1248 c 0,16,17
 990 1165 990 1165 990 1054 c 0,18,19
 990 929 990 929 918 852 c 0,20,21
 829 757 829 757 685 757 c 2,22,-1
 611 757 l 1,23,-1
 611 602 l 1,24,-1
 421 527 l 1,10,-1
661 1530 m 0,25,26
 903 1530 903 1530 1059 1357 c 0,27,28
 1211 1188 1211 1188 1211 953 c 0,29,30
 1211 701 1211 701 1050 549 c 0,31,32
 879 386 879 386 659 386 c 0,33,34
 436 386 436 386 271 549 c 0,35,36
 110 708 110 708 110 953 c 0,37,38
 110 1197 110 1197 268 1362 c 0,39,40
 429 1530 429 1530 661 1530 c 0,25,26
659 1478 m 0,41,42
 459 1478 459 1478 310 1330 c 0,43,44
 160 1181 160 1181 160 953 c 0,45,46
 160 750 160 750 307 587 c 0,47,48
 445 434 445 434 661 434 c 0,49,50
 862 434 862 434 1014 587 c 0,51,52
 1160 734 1160 734 1160 953 c 0,53,54
 1160 1185 1160 1185 1016 1327 c 0,55,56
 863 1478 863 1478 659 1478 c 0,41,42
EndSplineSet
Validated: 1
EndChar

